<svg width="70" height="50" viewBox="0 0 70 50" fill="none" xmlns="http://www.w3.org/2000/svg">
<g clip-path="url(#clip0_630_2362)">
<path d="M69.6281 15.5859C69.8672 15.8063 69.9999 16.1015 69.9979 16.4082C69.9958 16.715 69.8592 17.0088 69.6172 17.2266L54.1625 30.918C54.0413 31.0253 53.8975 31.1102 53.7395 31.1678C53.5814 31.2254 53.4122 31.2546 53.2415 31.2537C53.0708 31.2528 52.9019 31.2218 52.7447 31.1625C52.5874 31.1032 52.4448 31.0168 52.325 30.9082L43.389 22.8711C43.2689 22.7628 43.1738 22.6345 43.1093 22.4934C43.0447 22.3523 43.012 22.2012 43.0131 22.0487C43.0141 21.8963 43.0488 21.7456 43.1152 21.6052C43.1816 21.4648 43.2784 21.3374 43.4 21.2305L46.4734 18.5059C46.5947 18.3985 46.7384 18.3136 46.8965 18.256C47.0545 18.1984 47.2237 18.1692 47.3944 18.1702C47.5652 18.1711 47.734 18.202 47.8912 18.2613C48.0485 18.3206 48.1911 18.407 48.3109 18.5156L53.2875 22.9883L64.75 12.832C64.8712 12.7247 65.015 12.6398 65.173 12.5822C65.3311 12.5246 65.5003 12.4954 65.671 12.4963C65.8417 12.4972 66.0106 12.5282 66.1678 12.5875C66.3251 12.6468 66.4677 12.7332 66.5875 12.8418L69.6281 15.5859Z" fill="#008BB7"/>
<path d="M24.5 24.9999C27.2689 24.9999 29.9757 24.2668 32.278 22.8933C34.5803 21.5198 36.3747 19.5676 37.4343 17.2835C38.4939 14.9994 38.7712 12.4861 38.231 10.0613C37.6908 7.63655 36.3574 5.40927 34.3995 3.66111C32.4416 1.91295 29.947 0.722444 27.2313 0.240129C24.5155 -0.242187 21.7006 0.005355 19.1424 0.95145C16.5843 1.89755 14.3978 3.4997 12.8594 5.55532C11.3211 7.61093 10.5 10.0277 10.5 12.4999C10.5 15.8152 11.975 18.9946 14.6005 21.3388C17.226 23.683 20.787 24.9999 24.5 24.9999ZM34.3 28.1249H32.4734C29.9734 29.1543 27.2531 29.6874 24.5 29.6874C21.7469 29.6874 19.0266 29.1543 16.5266 28.1249H14.7C10.8016 28.1257 7.06309 29.5088 4.30649 31.97C1.54989 34.4313 0.000869891 37.7692 0 41.2499L0 45.3124C0 46.5556 0.553123 47.7479 1.53769 48.627C2.52226 49.5061 3.85761 49.9999 5.25 49.9999H43.75C45.1424 49.9999 46.4777 49.5061 47.4623 48.627C48.4469 47.7479 49 46.5556 49 45.3124V41.2499C48.9991 37.7692 47.4501 34.4313 44.6935 31.97C41.9369 29.5088 38.1984 28.1257 34.3 28.1249Z" fill="#A1E3FF"/>
</g>
<defs>
<clipPath id="clip0_630_2362">
<rect width="70" height="50" fill="white"/>
</clipPath>
</defs>
</svg>
