<svg width="1317" height="692" viewBox="0 0 1317 692" fill="none" xmlns="http://www.w3.org/2000/svg">
<path d="M0 644C0 660.802 0 669.202 3.2698 675.62C6.14601 681.265 10.7354 685.854 16.3803 688.73C22.7976 692 31.1984 692 48 692H1231.06C1259.14 692 1273.18 692 1281.13 686.119C1288.06 680.992 1292.45 673.131 1293.18 664.541C1294.02 654.687 1286.66 642.734 1271.93 618.827L1019.93 209.682C1015.37 202.278 1013.09 198.576 1010.03 195.764C1007.32 193.273 1004.18 191.302 1000.76 189.949C996.895 188.421 992.57 187.981 983.919 187.101L52.8583 92.3776C34.5456 90.5146 25.3892 89.583 18.3101 92.5782C12.092 95.2092 6.94315 99.8608 3.69637 105.781C0 112.52 0 121.724 0 140.131V644Z" fill="#008BB7"/>
<g opacity="0.6">
<g opacity="0.2">
<path d="M737.798 629.997C717.48 617.288 699.553 602.269 685.211 584.94C704.333 579.163 722.261 571.076 737.798 561.834C758.714 549.125 776.642 533.529 790.984 515.621C800.545 521.398 811.302 526.019 823.851 529.485C839.986 533.529 859.109 535.839 881.817 535.839C1004.32 535.839 1025.24 469.409 1025.24 371.208L1025.24 130.327L738.396 130.327L738.396 302.468C738.396 382.761 722.261 441.682 651.148 460.745C645.77 462.477 639.196 463.633 633.22 464.788C630.83 450.347 630.232 435.328 630.232 420.309L630.232 0.355469L1134.6 0.355463L1134.6 420.309C1134.6 551.436 1053.92 666.389 882.415 666.389C823.254 666.389 775.446 652.525 737.798 629.997Z" fill="white"/>
</g>
<g opacity="0.4">
<path d="M593.182 597.293C627.245 597.293 657.722 592.671 685.211 584.584C704.334 578.808 722.262 570.721 737.799 561.478C758.714 548.77 776.642 533.173 790.984 515.266C804.729 499.092 815.485 480.607 823.852 460.967C838.194 427.463 845.365 390.493 845.365 351.79L845.365 129.972L738.396 129.972L738.396 302.112C738.396 382.406 722.262 441.326 651.149 460.389C645.77 462.122 639.197 463.277 633.221 464.433C621.269 466.166 608.122 467.321 593.182 467.321C470.677 467.321 449.761 400.891 449.761 302.69L449.761 129.972L629.635 129.972L629.635 -3.44194e-06L341 0L341 351.79C341 482.34 421.674 597.293 593.182 597.293Z" fill="white"/>
</g>
</g>
</svg>
