<svg width="40" height="33" viewBox="0 0 40 33" fill="none" xmlns="http://www.w3.org/2000/svg">
<path d="M39.6 8.25184V24.7482C39.6 26.9357 38.8177 29.0337 37.4253 30.5805C36.0328 32.1274 34.1442 32.9964 32.175 32.9964H25.6781C25.432 32.9964 25.1959 32.8877 25.0218 32.6944C24.8478 32.501 24.75 32.2388 24.75 31.9653V28.5286C24.75 28.2552 24.8478 27.9929 25.0218 27.7996C25.1959 27.6062 25.432 27.4976 25.6781 27.4976H32.175C32.8314 27.4976 33.4609 27.2079 33.9251 26.6923C34.3892 26.1767 34.65 25.4774 34.65 24.7482V8.25184C34.65 7.52265 34.3892 6.82333 33.9251 6.30772C33.4609 5.79211 32.8314 5.50244 32.175 5.50244H25.6781C25.432 5.50244 25.1959 5.39382 25.0218 5.20047C24.8478 5.00711 24.75 4.74487 24.75 4.47142V1.03468C24.75 0.76124 24.8478 0.498995 25.0218 0.305641C25.1959 0.112287 25.432 0.00366211 25.6781 0.00366211H32.175C34.1442 0.00366211 36.0328 0.872664 37.4253 2.4195C38.8177 3.96633 39.6 6.06428 39.6 8.25184Z" fill="#008BB7"/>
<path d="M28.5398 17.9606L15.5461 32.3949C14.3859 33.6837 12.375 32.7816 12.375 30.9343V22.6861H1.85626C1.61232 22.6868 1.37066 22.6339 1.14518 22.5306C0.919689 22.4272 0.714815 22.2753 0.542324 22.0837C0.369833 21.8921 0.233126 21.6645 0.140058 21.414C0.0469892 21.1635 -0.000606313 20.8951 5.83047e-06 20.6241V12.3759C-0.000606313 12.1049 0.0469892 11.8365 0.140058 11.586C0.233126 11.3355 0.369833 11.1079 0.542324 10.9163C0.714815 10.7247 0.919689 10.5728 1.14518 10.4694C1.37066 10.3661 1.61232 10.3132 1.85626 10.3139H12.375V2.0657C12.375 0.218449 14.3859 -0.683695 15.5461 0.605082L28.5398 15.0394C28.8856 15.4285 29.0795 15.9533 29.0795 16.5C29.0795 17.0467 28.8856 17.5715 28.5398 17.9606Z" fill="#A1E3FF"/>
</svg>
