<svg width="90" height="75" viewBox="0 0 90 75" fill="none" xmlns="http://www.w3.org/2000/svg">
<path d="M90 18.7542V56.2458C90 61.2176 88.2221 65.9856 85.0574 69.5012C81.8927 73.0167 77.6005 74.9917 73.125 74.9917H58.3594C57.7999 74.9917 57.2634 74.7448 56.8678 74.3054C56.4722 73.8659 56.25 73.2699 56.25 72.6485V64.8377C56.25 64.2162 56.4722 63.6202 56.8678 63.1808C57.2634 62.7413 57.7999 62.4945 58.3594 62.4945H73.125C74.6168 62.4945 76.0476 61.8361 77.1025 60.6643C78.1574 59.4924 78.75 57.9031 78.75 56.2458V18.7542C78.75 17.0969 78.1574 15.5076 77.1025 14.3357C76.0476 13.1639 74.6168 12.5055 73.125 12.5055H58.3594C57.7999 12.5055 57.2634 12.2587 56.8678 11.8192C56.4722 11.3798 56.25 10.7838 56.25 10.1623V2.35153C56.25 1.73007 56.4722 1.13406 56.8678 0.694617C57.2634 0.255176 57.7999 0.00830078 58.3594 0.00830078H73.125C77.6005 0.00830078 81.8927 1.9833 85.0574 5.49883C88.2221 9.01436 90 13.7824 90 18.7542Z" fill="#008BB7"/>
<path d="M64.8633 40.8196L35.332 73.6248C32.6953 76.5539 28.125 74.5035 28.125 70.3052V51.5594H4.21876C3.66436 51.5609 3.11514 51.4408 2.60267 51.2058C2.0902 50.9708 1.62458 50.6257 1.23255 50.1902C0.84053 49.7547 0.529832 49.2375 0.318313 48.6682C0.106794 48.0989 -0.00137798 47.4888 1.32511e-05 46.8729V28.1271C-0.00137798 27.5112 0.106794 26.9011 0.318313 26.3318C0.529832 25.7625 0.84053 25.2453 1.23255 24.8098C1.62458 24.3743 2.0902 24.0292 2.60267 23.7942C3.11514 23.5592 3.66436 23.4391 4.21876 23.4406H28.125V4.69476C28.125 0.496475 32.6953 -1.55385 35.332 1.37519L64.8633 34.1804C65.6491 35.0648 66.0897 36.2574 66.0897 37.5C66.0897 38.7426 65.6491 39.9352 64.8633 40.8196Z" fill="#A1E3FF"/>
</svg>
