<svg width="70" height="70" viewBox="0 0 70 70" fill="none" xmlns="http://www.w3.org/2000/svg">
<path d="M70 54.6875V59.0625C70 59.6427 69.7695 60.1991 69.3593 60.6093C68.9491 61.0195 68.3927 61.25 67.8125 61.25H4.375C3.21468 61.25 2.10188 60.7891 1.28141 59.9686C0.460936 59.1481 0 58.0353 0 56.875V10.9375C0 10.3573 0.230468 9.80094 0.640704 9.3907C1.05094 8.98047 1.60734 8.75 2.1875 8.75H6.5625C7.14266 8.75 7.69906 8.98047 8.1093 9.3907C8.51953 9.80094 8.75 10.3573 8.75 10.9375V52.5H67.8125C68.3927 52.5 68.9491 52.7305 69.3593 53.1407C69.7695 53.5509 70 54.1073 70 54.6875Z" fill="#A1E3FF"/>
<path d="M65.625 15.3125V31.4521C65.625 34.3752 62.0908 35.8395 60.0195 33.7764L55.5898 29.3467L42.4648 42.4717C41.6444 43.2919 40.5317 43.7528 39.3716 43.7528C38.2114 43.7528 37.0987 43.2919 36.2783 42.4717L26.25 32.4365L19.9527 38.7352C19.7496 38.9383 19.5084 39.0995 19.243 39.2095C18.9775 39.3194 18.693 39.376 18.4057 39.376C18.1184 39.376 17.8339 39.3194 17.5685 39.2095C17.3031 39.0995 17.0619 38.9383 16.8588 38.7352L13.7662 35.6426C13.563 35.4394 13.4018 35.1983 13.2919 34.9328C13.1819 34.6674 13.1253 34.3829 13.1253 34.0956C13.1253 33.8083 13.1819 33.5238 13.2919 33.2584C13.4018 32.9929 13.563 32.7518 13.7662 32.5486L23.1574 23.1574C23.9778 22.3372 25.0905 21.8763 26.2507 21.8763C27.4108 21.8763 28.5235 22.3372 29.3439 23.1574L39.375 33.1885L49.406 23.1561L44.9804 18.7305C42.9133 16.6633 44.3775 13.125 47.3047 13.125H63.4375C64.0176 13.125 64.574 13.3555 64.9843 13.7657C65.3945 14.1759 65.625 14.7323 65.625 15.3125Z" fill="#0188B3"/>
</svg>
