<svg width="227" height="79" viewBox="0 0 227 79" fill="none" xmlns="http://www.w3.org/2000/svg">
<path d="M45.864 34.528C45.608 35.872 45.032 37.12 44.136 38.272C43.24 39.424 42.184 40.384 40.968 41.152C39.816 41.856 38.696 42.24 37.608 42.304C36.52 42.368 35.624 41.984 34.92 41.152C36.136 40.32 36.424 39.52 35.784 38.752C35.208 37.984 34.216 37.376 32.808 36.928C31.4 36.48 30.024 36.352 28.68 36.544C25.352 37.056 22.888 38.496 21.288 40.864C19.688 43.168 18.664 45.824 18.216 48.832C17.896 51.392 18.152 53.696 18.984 55.744C19.88 57.728 21.096 59.328 22.632 60.544C24.232 61.696 25.96 62.304 27.816 62.368C31.976 62.432 35.432 61.824 38.184 60.544C40.936 59.264 43.08 57.792 44.616 56.128C46.216 54.4 47.304 52.992 47.88 51.904C49.416 52.992 50.312 54.56 50.568 56.608C50.824 58.656 50.504 60.864 49.608 63.232C48.712 65.6 47.304 67.872 45.384 70.048C43.464 72.224 41.128 74.016 38.376 75.424C35.624 76.768 32.488 77.44 28.968 77.44C27.112 77.44 24.904 77.216 22.344 76.768C19.784 76.32 17.16 75.488 14.472 74.272C11.848 73.056 9.416 71.296 7.176 68.992C5 66.688 3.304 63.712 2.088 60.064C0.936 56.416 0.584 51.936 1.032 46.624C1.352 42.528 2.44 38.912 4.296 35.776C6.216 32.576 8.552 29.888 11.304 27.712C14.056 25.472 16.936 23.776 19.944 22.624C23.016 21.408 25.928 20.768 28.68 20.704C31.432 20.64 33.928 21.056 36.168 21.952C38.408 22.848 40.296 24.032 41.832 25.504C43.368 26.912 44.488 28.416 45.192 30.016C45.896 31.616 46.12 33.12 45.864 34.528ZM108.613 63.808C108.613 64.384 108.709 65.248 108.901 66.4C109.093 67.552 109.349 68.736 109.669 69.952C110.053 71.168 110.437 72.256 110.821 73.216C111.205 74.112 111.589 74.656 111.973 74.848C111.077 75.936 109.637 76.8 107.653 77.44C105.669 78.144 103.685 78.272 101.701 77.824C100.165 77.376 98.7888 76.96 97.5728 76.576C96.3568 76.192 94.6928 76.032 92.5808 76.096C91.0448 76.16 89.5087 76.32 87.9728 76.576C86.5008 76.832 84.9968 77.12 83.4608 77.44C82.6927 77.568 81.3487 77.6 79.4287 77.536C77.5728 77.536 75.5248 77.312 73.2847 76.864C71.1087 76.416 69.0927 75.648 67.2367 74.56C64.8047 73.088 62.9807 70.944 61.7647 68.128C60.5487 65.312 59.8447 62.432 59.6527 59.488C59.6527 58.784 59.6207 57.408 59.5567 55.36C59.5567 53.312 59.5247 50.88 59.4607 48.064C59.4607 45.248 59.4287 42.336 59.3647 39.328C59.3647 36.32 59.3327 33.536 59.2687 30.976C59.2687 28.352 59.2687 26.24 59.2687 24.64C59.2687 22.976 59.2687 22.144 59.2687 22.144C59.8447 22.08 60.8047 22.016 62.1487 21.952C63.5567 21.824 65.0927 21.824 66.7567 21.952C68.4207 22.08 70.0208 22.4 71.5568 22.912C73.1567 23.36 74.5007 24.096 75.5887 25.12C76.7408 26.144 77.4128 27.52 77.6047 29.248C77.7327 30.656 77.8288 31.936 77.8928 33.088C77.9568 34.24 77.9888 35.52 77.9888 36.928C77.9888 38.272 77.9248 39.968 77.7968 42.016C77.7327 44 77.6367 46.528 77.5087 49.6C77.3808 52.096 77.3168 54.24 77.3168 56.032C77.3808 57.824 77.8288 59.168 78.6608 60.064C79.4928 60.96 80.9648 61.344 83.0768 61.216C84.4847 61.152 85.6367 60.608 86.5327 59.584C87.4928 58.496 88.2608 57.184 88.8368 55.648C89.4128 54.112 89.7968 52.544 89.9888 50.944C90.2448 49.344 90.3728 47.936 90.3728 46.72C90.3728 46.464 90.3408 45.472 90.2767 43.744C90.2767 42.016 90.2448 39.968 90.1808 37.6C90.1808 35.168 90.1488 32.768 90.0848 30.4C90.0848 28.032 90.0848 26.08 90.0848 24.544C90.0848 22.944 90.0848 22.144 90.0848 22.144C90.6608 22.08 91.6208 22.08 92.9648 22.144C94.3088 22.144 95.8128 22.272 97.4768 22.528C99.1408 22.784 100.773 23.232 102.373 23.872C103.973 24.512 105.317 25.408 106.405 26.56C107.557 27.648 108.229 29.056 108.421 30.784C108.805 34.496 108.869 39.04 108.613 44.416C108.421 49.728 108.421 56.192 108.613 63.808Z" fill="#008BB7"/>
<path d="M151.42 20.416C152.7 20.096 153.884 20.416 154.972 21.376C156.06 22.336 157.02 23.648 157.852 25.312C158.748 26.912 159.484 28.576 160.06 30.304C160.636 31.968 161.084 33.376 161.404 34.528C161.724 35.68 161.884 36.256 161.884 36.256C161.884 36.256 161.116 36.416 159.58 36.736C158.108 36.992 156.252 37.536 154.012 38.368C151.836 39.136 149.66 40.32 147.484 41.92C146.204 42.88 144.988 44.032 143.836 45.376C142.684 46.72 141.692 48.448 140.86 50.56C140.028 52.608 139.42 55.328 139.036 58.72C138.844 60.448 138.812 62.24 138.94 64.096C139.068 65.952 139.132 67.52 139.132 68.8C139.196 69.952 139.356 70.784 139.612 71.296C139.932 71.744 140.188 72.128 140.38 72.448C139.548 73.216 138.012 74.08 135.772 75.04C133.596 75.936 131.196 76.384 128.572 76.384C126.012 76.384 124.124 75.552 122.908 73.888C121.692 72.224 121.084 69.92 121.084 66.976C121.084 66.272 121.052 64.736 120.988 62.368C120.988 59.936 120.956 57.024 120.892 53.632C120.892 50.24 120.86 46.72 120.796 43.072C120.796 39.424 120.764 36.032 120.7 32.896C120.7 29.696 120.668 27.104 120.604 25.12C120.604 23.136 120.604 22.144 120.604 22.144C121.244 22.016 122.332 21.92 123.868 21.856C125.468 21.792 127.196 21.856 129.052 22.048C130.908 22.24 132.636 22.688 134.236 23.392C135.004 23.712 136.028 24.032 137.308 24.352C138.652 24.608 139.932 24.736 141.148 24.736C142.428 24.736 143.356 24.544 143.932 24.16C145.148 23.264 146.364 22.496 147.58 21.856C148.86 21.216 150.14 20.736 151.42 20.416ZM224.645 56.992C225.477 57.696 226.021 59.104 226.277 61.216C226.597 63.264 226.501 65.408 225.989 67.648C225.605 69.504 224.901 71.296 223.877 73.024C222.853 74.688 221.509 75.68 219.845 76C219.205 76.128 217.733 76.192 215.429 76.192C213.125 76.256 210.405 76.256 207.269 76.192C204.197 76.192 201.061 76.16 197.861 76.096C194.725 76.096 191.909 76.096 189.413 76.096C186.981 76.16 185.253 76.256 184.229 76.384C181.605 76.832 178.917 76.992 176.165 76.864C173.477 76.736 171.589 76.352 170.501 75.712C170.949 74.816 171.333 73.472 171.653 71.68C171.973 69.824 172.229 67.808 172.421 65.632C172.613 63.456 172.677 61.376 172.613 59.392L172.229 0.255997C172.933 0.127998 174.149 0.0959988 175.877 0.159998C177.669 0.223997 179.557 0.511997 181.541 1.024C183.717 1.536 185.669 2.49599 187.397 3.904C189.125 5.312 190.181 7.104 190.565 9.27999C190.693 9.984 190.789 11.392 190.853 13.504C190.917 15.552 190.949 17.984 190.949 20.8C191.013 23.616 191.013 26.496 190.949 29.44C190.949 32.384 190.949 35.136 190.949 37.696C190.949 40.256 190.917 42.336 190.853 43.936C190.853 45.536 190.853 46.336 190.853 46.336C190.789 48.768 191.045 50.976 191.621 52.96C192.197 54.88 193.029 56.384 194.117 57.472C194.949 58.304 195.973 58.88 197.189 59.2C198.405 59.52 199.909 59.744 201.701 59.872C202.469 59.936 203.653 59.936 205.253 59.872C206.917 59.808 208.741 59.712 210.725 59.584C212.709 59.392 214.661 59.168 216.581 58.912C218.565 58.656 220.293 58.368 221.765 58.048C223.237 57.728 224.197 57.376 224.645 56.992Z" fill="#A1E3FF"/>
</svg>
