<svg width="30" height="19" viewBox="0 0 30 19" fill="none" xmlns="http://www.w3.org/2000/svg">
<path d="M16.2547 14.5892C15.5223 15.1792 14.4777 15.1792 13.7453 14.5892L0.796357 4.15745C-0.673228 2.97354 0.163917 0.599976 2.05106 0.599976H27.9489C29.8361 0.599976 30.6732 2.97354 29.2036 4.15745L16.2547 14.5892Z" fill="#41AACB"/>
<path d="M-1.52588e-05 2.91751L14.306 13.1219C14.5073 13.3604 14.801 13.4835 15.0963 13.4759C15.3915 13.4834 15.6852 13.3604 15.8864 13.1219L30 3.05475V16.6C30 17.7045 29.1046 18.6 28 18.6H1.99998C0.895416 18.6 -1.52588e-05 17.7045 -1.52588e-05 16.6V2.91751Z" fill="#A1E3FF"/>
</svg>