<svg width="190" height="100" viewBox="0 0 190 100" fill="none" xmlns="http://www.w3.org/2000/svg">
<path d="M14.3347 35.7339C14.0741 35.7339 13.8134 35.4595 14.0741 35.1852L15.8985 32.4417C16.1591 32.1674 16.4198 31.893 16.941 31.893H49.7805C50.0412 31.893 50.3018 32.1674 50.0412 32.4417L48.4774 34.9108C48.2168 35.1852 47.9561 35.4595 47.4349 35.4595L14.3347 35.7339ZM0.521261 44.513C0.26063 44.513 -2.55887e-06 44.2387 0.260629 43.9643L2.08505 41.2209C2.34568 40.9465 2.60631 40.6722 3.12757 40.6722H45.0892C45.3498 40.6722 45.6104 40.9465 45.6104 41.2209L44.8286 43.9643C44.8286 44.2387 44.3073 44.513 44.0467 44.513H0.521261ZM22.6749 53.5665C22.4143 53.5665 22.1536 53.2922 22.4143 53.0178L23.7174 50.5487C23.9781 50.2743 24.2387 50 24.76 50H43.0041C43.2648 50 43.5254 50.2743 43.5254 50.5487L43.2648 52.7435C43.2648 53.0178 43.0041 53.2922 42.7435 53.2922L22.6749 53.5665ZM118.066 33.8134L102.689 37.9287C101.386 38.203 101.125 38.4774 100.082 36.8313C98.7792 35.1852 97.7367 34.0878 95.6516 33.2647C89.9177 30.2469 84.1838 31.07 78.9712 34.6365C72.7161 38.7517 69.5885 45.0617 69.5885 53.0178C69.5885 60.6996 74.8011 67.0096 82.0988 68.107C88.3539 68.93 93.5666 66.7352 97.7367 61.797C98.5186 60.6996 99.3005 59.6022 100.343 58.2304H82.6201C80.7956 58.2304 80.2744 56.8587 80.7956 55.2126C82.0988 52.1948 84.1838 47.2565 85.487 44.7874C85.7476 44.2387 86.5295 43.1413 87.8327 43.1413H121.193C120.933 45.8848 120.933 48.3539 120.672 51.0974C119.63 57.9561 117.284 64.5405 113.114 70.0274C106.598 79.0809 97.9973 84.8422 87.0508 86.4883C77.9287 87.8601 69.5885 85.9396 62.2908 80.1783C55.5144 74.6914 51.605 67.5583 50.5624 58.7791C49.2593 48.3539 52.3869 38.7517 58.3814 30.5213C64.8971 21.4678 73.498 15.7065 84.1838 13.786C92.7847 12.1399 101.125 13.2373 108.423 18.4499C113.375 21.7421 116.763 26.406 119.108 32.1673C119.369 33.2647 119.108 33.5391 118.066 33.8134V33.8134Z" fill="#0188B3"/>
<path d="M148.299 87.3114C139.959 87.037 132.401 84.5679 125.885 78.8066C120.412 73.8683 117.023 67.5583 115.981 60.1509C114.417 49.1769 117.284 39.5747 123.539 31.0699C130.316 21.7421 138.395 17.0782 149.342 14.8834C158.724 13.2373 167.586 14.0603 175.405 19.8217C182.702 25.0343 187.133 32.1673 188.436 41.4952C190 54.6639 186.351 65.0891 178.011 74.1426C172.016 80.727 164.458 84.5679 156.118 86.4883C153.251 87.037 150.645 87.037 148.299 87.3114V87.3114ZM170.192 48.3539C170.192 46.9821 170.192 46.1591 169.931 45.0617C168.368 35.4595 160.027 29.9725 151.166 32.1673C142.565 34.0878 137.092 39.8491 135.007 48.9026C133.443 56.31 136.831 63.9917 143.347 67.2839C148.299 69.4787 153.512 69.2044 158.203 66.7352C165.761 62.8944 169.671 56.5843 170.192 48.3539Z" fill="#0188B3"/>
</svg>
