<svg width="90" height="90" viewBox="0 0 90 90" fill="none" xmlns="http://www.w3.org/2000/svg">
<path d="M83.5714 8.4375C83.5714 6.19974 82.5555 4.05362 80.7471 2.47129C78.9387 0.888948 76.486 0 73.9286 0L9.64286 0C7.08541 0 4.63271 0.888948 2.82433 2.47129C1.01594 4.05362 0 6.19974 0 8.4375L0 81.5625C0 83.8003 1.01594 85.9464 2.82433 87.5287C4.63271 89.1111 7.08541 90 9.64286 90H73.9286C76.486 90 78.9387 89.1111 80.7471 87.5287C82.5555 85.9464 83.5714 83.8003 83.5714 81.5625V8.4375ZM41.7857 22.5C44.3286 22.5 46.8144 23.1598 48.9288 24.396C51.0431 25.6321 52.691 27.3891 53.6642 29.4448C54.6373 31.5005 54.8919 33.7625 54.3958 35.9448C53.8997 38.1271 52.6752 40.1316 50.8771 41.705C49.079 43.2783 46.7881 44.3498 44.294 44.7838C41.8 45.2179 39.2148 44.9951 36.8655 44.1436C34.5162 43.2922 32.5082 41.8502 31.0954 40.0002C29.6826 38.1501 28.9286 35.975 28.9286 33.75C28.9318 30.7672 30.2874 27.9073 32.6979 25.7981C35.1084 23.689 38.3768 22.5028 41.7857 22.5ZM64.2857 64.125C64.2857 65.9883 62.2768 67.5 59.7857 67.5H23.7857C21.2946 67.5 19.2857 65.9883 19.2857 64.125V60.75C19.2857 55.1602 25.3326 50.625 32.7857 50.625H33.7902C36.3223 51.5532 39.0403 52.0313 41.7857 52.0313C44.5311 52.0313 47.2491 51.5532 49.7812 50.625H50.7857C58.2388 50.625 64.2857 55.1602 64.2857 60.75V64.125Z" fill="#A1E3FF"/>
<path d="M50.7856 50.625H49.7812C47.249 51.5532 44.5311 52.0313 41.7856 52.0313C39.0402 52.0313 36.3223 51.5532 33.7901 50.625H32.7856C25.3325 50.625 19.2856 55.1602 19.2856 60.75V64.125C19.2856 65.9883 21.2946 67.5 23.7856 67.5H59.7856C62.2767 67.5 64.2856 65.9883 64.2856 64.125V60.75C64.2856 55.1602 58.2388 50.625 50.7856 50.625ZM41.7856 45C44.3285 45 46.8143 44.3402 48.9287 43.104C51.043 41.8679 52.691 40.1109 53.6641 38.0552C54.6372 35.9995 54.8918 33.7375 54.3957 31.5552C53.8996 29.3729 52.6751 27.3684 50.877 25.795C49.0789 24.2217 46.788 23.1502 44.2939 22.7162C41.7999 22.2821 39.2148 22.5049 36.8654 23.3564C34.5161 24.2078 32.5081 25.6498 31.0953 27.4998C29.6826 29.3499 28.9285 31.525 28.9285 33.75C28.9317 36.7328 30.2873 39.5927 32.6978 41.7019C35.1083 43.811 38.3767 44.9972 41.7856 45ZM87.5892 39.375H83.5714V50.625H87.5892C88.2286 50.625 88.8418 50.4028 89.2939 50.0072C89.7459 49.6116 89.9999 49.0751 89.9999 48.5156V41.4844C89.9999 40.9249 89.7459 40.3884 89.2939 39.9928C88.8418 39.5972 88.2286 39.375 87.5892 39.375ZM87.5892 61.875H83.5714V73.125H87.5892C88.2286 73.125 88.8418 72.9028 89.2939 72.5072C89.7459 72.1116 89.9999 71.5751 89.9999 71.0156V63.9844C89.9999 63.4249 89.7459 62.8884 89.2939 62.4928C88.8418 62.0972 88.2286 61.875 87.5892 61.875ZM87.5892 16.875H83.5714V28.125H87.5892C88.2286 28.125 88.8418 27.9028 89.2939 27.5072C89.7459 27.1116 89.9999 26.5751 89.9999 26.0156V18.9844C89.9999 18.4249 89.7459 17.8884 89.2939 17.4928C88.8418 17.0972 88.2286 16.875 87.5892 16.875Z" fill="#008BB7"/>
</svg>
