<svg width="684" height="544" viewBox="0 0 684 544" fill="none" xmlns="http://www.w3.org/2000/svg">
<g filter="url(#filter0_d_96_8)">
<circle cx="580" cy="475" r="50" fill="white"/>
</g>
<g filter="url(#filter1_d_96_8)">
<circle cx="49" cy="57" r="45" fill="white"/>
</g>
<g clip-path="url(#clip0_96_8)">
<path d="M575.347 466.62C577.147 467.171 579.07 467.176 580.872 466.634C582.675 466.093 584.276 465.029 585.474 463.577C586.672 462.125 587.412 460.351 587.602 458.479C587.791 456.606 587.421 454.719 586.539 453.057C585.953 451.953 585.155 450.976 584.191 450.181C583.227 449.385 582.115 448.788 580.92 448.422C579.725 448.056 578.47 447.929 577.226 448.048C575.982 448.167 574.774 448.53 573.67 449.117C572.008 450 570.645 451.355 569.753 453.013C568.862 454.67 568.481 456.555 568.661 458.429C568.841 460.302 569.572 462.08 570.762 463.538C571.952 464.996 573.548 466.069 575.347 466.62L575.347 466.62ZM574.357 450.41C575.292 449.907 576.317 449.593 577.373 449.487C578.429 449.381 579.495 449.484 580.511 449.792C581.527 450.1 582.472 450.605 583.292 451.279C584.112 451.954 584.79 452.783 585.288 453.721C585.786 454.658 586.094 455.685 586.193 456.741C586.293 457.798 586.183 458.864 585.869 459.878C585.555 460.892 585.044 461.834 584.365 462.65C583.685 463.465 582.852 464.139 581.911 464.631C580.977 465.135 579.952 465.449 578.896 465.555C577.84 465.661 576.773 465.557 575.757 465.249C574.741 464.942 573.796 464.436 572.977 463.762C572.157 463.088 571.478 462.258 570.981 461.321C570.483 460.383 570.175 459.357 570.075 458.3C569.976 457.243 570.086 456.177 570.4 455.163C570.713 454.149 571.225 453.207 571.904 452.392C572.583 451.576 573.417 450.903 574.357 450.41Z" fill="#546B81"/>
<path d="M574.266 459.899H575.759V461.389C575.759 461.835 575.936 462.263 576.251 462.579C576.567 462.895 576.994 463.072 577.441 463.073H578.827C579.274 463.073 579.702 462.895 580.018 462.579C580.334 462.264 580.512 461.835 580.512 461.389V459.899H582.003C582.449 459.898 582.877 459.72 583.193 459.405C583.509 459.089 583.687 458.661 583.687 458.214V456.827C583.687 456.381 583.509 455.952 583.193 455.637C582.877 455.321 582.449 455.143 582.003 455.143H580.512V453.653C580.512 453.206 580.334 452.778 580.018 452.462C579.702 452.146 579.274 451.969 578.828 451.968H577.441C576.995 451.969 576.567 452.147 576.252 452.463C575.936 452.778 575.759 453.206 575.759 453.653V455.143H574.266C573.819 455.143 573.391 455.321 573.075 455.637C572.759 455.953 572.581 456.381 572.581 456.827V458.214C572.581 458.661 572.759 459.089 573.075 459.405C573.391 459.721 573.819 459.898 574.266 459.899V459.899ZM574.046 456.827C574.047 456.769 574.07 456.714 574.111 456.673C574.152 456.632 574.208 456.608 574.266 456.608H576.491C576.686 456.608 576.872 456.53 577.009 456.393C577.147 456.256 577.224 456.069 577.224 455.875V453.652C577.224 453.595 577.247 453.54 577.288 453.498C577.328 453.457 577.383 453.434 577.441 453.433H578.827C578.886 453.433 578.941 453.457 578.982 453.498C579.023 453.539 579.047 453.594 579.047 453.652V455.875C579.047 456.069 579.124 456.256 579.262 456.393C579.399 456.53 579.585 456.608 579.78 456.608H582.003C582.061 456.608 582.116 456.632 582.157 456.673C582.198 456.714 582.222 456.769 582.222 456.827V458.214C582.222 458.272 582.198 458.328 582.157 458.369C582.116 458.41 582.061 458.433 582.003 458.434H579.78C579.586 458.434 579.399 458.511 579.262 458.648C579.125 458.786 579.047 458.972 579.047 459.166V461.389C579.047 461.447 579.023 461.502 578.982 461.543C578.941 461.584 578.886 461.608 578.828 461.609H577.441C577.383 461.607 577.328 461.584 577.288 461.543C577.247 461.502 577.224 461.446 577.224 461.389V459.166C577.224 458.972 577.147 458.786 577.009 458.648C576.872 458.511 576.686 458.434 576.492 458.434H574.266C574.208 458.433 574.152 458.41 574.111 458.368C574.07 458.327 574.047 458.272 574.046 458.214V456.827Z" fill="#0192FE"/>
<path d="M602.151 490.914V484.883H604.115C604.309 484.883 604.496 484.805 604.633 484.668C604.77 484.531 604.848 484.344 604.848 484.15V469.475C604.848 468.793 604.6 468.134 604.151 467.621C603.701 467.108 603.081 466.776 602.404 466.686C601.728 466.597 601.043 466.756 600.475 467.134C599.908 467.512 599.497 468.084 599.319 468.742H592.718C592.524 468.742 592.337 468.82 592.2 468.957C592.063 469.094 591.985 469.281 591.985 469.475C591.985 469.669 592.063 469.855 592.2 469.993C592.337 470.13 592.524 470.207 592.718 470.207H599.222V483.418H579.419V473.184C579.42 472.394 579.734 471.638 580.292 471.08C580.85 470.522 581.607 470.208 582.396 470.207H589.336C589.53 470.207 589.716 470.13 589.854 469.992C589.991 469.855 590.068 469.669 590.068 469.474C590.068 469.28 589.991 469.094 589.854 468.957C589.716 468.819 589.53 468.742 589.336 468.742H582.396C581.218 468.743 580.089 469.212 579.257 470.044C578.424 470.877 577.955 472.006 577.954 473.184V473.381H569.203C569.189 472.805 569.008 472.245 568.683 471.768C568.358 471.292 567.902 470.92 567.371 470.696C567.35 470.688 567.33 470.681 567.309 470.674L560.626 468.587V464.816C560.626 464.07 560.329 463.355 559.802 462.827C559.274 462.3 558.559 462.003 557.813 462.003C557.067 462.003 556.351 462.3 555.824 462.827C555.296 463.355 555 464.07 555 464.816V471.67C555 471.864 555.077 472.05 555.215 472.187C555.352 472.325 555.538 472.402 555.733 472.402C555.927 472.402 556.113 472.325 556.25 472.187C556.388 472.05 556.465 471.864 556.465 471.67V464.816C556.465 464.458 556.607 464.116 556.86 463.863C557.112 463.61 557.455 463.468 557.813 463.468C558.17 463.468 558.513 463.61 558.766 463.863C559.018 464.116 559.16 464.458 559.16 464.816V479.99C559.16 480.184 559.237 480.37 559.375 480.508C559.512 480.645 559.698 480.722 559.893 480.722H577.954V483.418H556.465V475.052C556.465 474.858 556.388 474.671 556.25 474.534C556.113 474.397 555.927 474.319 555.733 474.319C555.538 474.319 555.352 474.397 555.215 474.534C555.077 474.671 555 474.858 555 475.052V484.15C555 484.344 555.077 484.531 555.215 484.668C555.352 484.805 555.538 484.883 555.733 484.883H558.447V490.914C557.579 491.096 556.81 491.592 556.287 492.307C555.765 493.023 555.526 493.906 555.617 494.788C555.708 495.669 556.123 496.485 556.781 497.079C557.438 497.672 558.293 498.001 559.179 498.001C560.065 498.001 560.919 497.672 561.577 497.079C562.235 496.485 562.65 495.669 562.741 494.788C562.832 493.906 562.593 493.023 562.071 492.307C561.548 491.592 560.779 491.096 559.911 490.914V488.592H600.686V490.914C599.819 491.096 599.05 491.592 598.527 492.307C598.005 493.023 597.766 493.907 597.857 494.788C597.948 495.669 598.362 496.485 599.02 497.079C599.678 497.672 600.533 498.001 601.419 498.001C602.305 498.001 603.159 497.672 603.817 497.079C604.475 496.485 604.89 495.669 604.981 494.788C605.072 493.907 604.833 493.023 604.311 492.307C603.788 491.592 603.019 491.096 602.151 490.914H602.151ZM602.033 468.128C602.391 468.128 602.734 468.27 602.987 468.522C603.24 468.775 603.382 469.117 603.383 469.475V483.418H600.687V469.475C600.688 469.118 600.829 468.776 601.082 468.523C601.334 468.271 601.676 468.128 602.033 468.128ZM566.838 472.062C567.096 472.176 567.317 472.36 567.476 472.593C567.635 472.826 567.726 473.099 567.739 473.381H560.626V470.122L566.838 472.062ZM560.626 479.258V474.846H577.954V479.258H560.626ZM561.295 494.419C561.295 494.838 561.171 495.247 560.938 495.595C560.706 495.943 560.375 496.214 559.989 496.374C559.602 496.535 559.177 496.577 558.766 496.495C558.356 496.413 557.979 496.212 557.683 495.916C557.387 495.62 557.185 495.243 557.104 494.832C557.022 494.422 557.064 493.996 557.224 493.61C557.384 493.223 557.655 492.893 558.003 492.66C558.351 492.428 558.76 492.304 559.179 492.304C559.74 492.304 560.278 492.527 560.675 492.924C561.071 493.321 561.294 493.858 561.295 494.419ZM559.911 487.127V484.883H600.686V487.127H559.911ZM601.419 496.535C601 496.535 600.591 496.411 600.244 496.179C599.896 495.946 599.624 495.616 599.464 495.229C599.304 494.842 599.262 494.417 599.344 494.006C599.426 493.596 599.627 493.219 599.923 492.923C600.219 492.627 600.596 492.426 601.007 492.344C601.417 492.263 601.842 492.305 602.229 492.465C602.616 492.625 602.946 492.896 603.179 493.244C603.411 493.592 603.535 494.001 603.535 494.42C603.534 494.981 603.311 495.518 602.915 495.915C602.518 496.312 601.98 496.535 601.419 496.535Z" fill="#546B81"/>
<path d="M597.838 494.42C597.839 493.742 598.031 493.078 598.394 492.505C598.757 491.932 599.274 491.474 599.887 491.184H602.951C603.53 491.458 604.025 491.883 604.384 492.414C604.743 492.944 604.953 493.562 604.992 494.202C605.031 494.841 604.898 495.48 604.606 496.05C604.314 496.621 603.875 497.103 603.333 497.445C602.792 497.788 602.168 497.979 601.528 497.998C600.887 498.018 600.253 497.865 599.692 497.556C599.13 497.247 598.662 496.793 598.336 496.241C598.01 495.689 597.838 495.06 597.838 494.42ZM599.303 494.42C599.303 494.838 599.427 495.247 599.659 495.595C599.892 495.943 600.222 496.214 600.609 496.375C600.996 496.535 601.421 496.577 601.832 496.495C602.242 496.413 602.619 496.212 602.915 495.916C603.211 495.62 603.412 495.243 603.494 494.832C603.576 494.422 603.534 493.997 603.374 493.61C603.214 493.223 602.942 492.893 602.594 492.66C602.246 492.428 601.837 492.304 601.419 492.304C600.858 492.304 600.32 492.527 599.923 492.924C599.527 493.321 599.304 493.859 599.303 494.42H599.303ZM555.598 494.42C555.599 493.742 555.791 493.078 556.154 492.505C556.517 491.932 557.034 491.474 557.647 491.184H560.711C561.29 491.458 561.785 491.883 562.144 492.413C562.503 492.944 562.713 493.562 562.752 494.201C562.791 494.841 562.658 495.48 562.366 496.05C562.074 496.621 561.635 497.102 561.093 497.445C560.552 497.788 559.928 497.979 559.288 497.998C558.647 498.018 558.013 497.865 557.452 497.556C556.89 497.247 556.422 496.793 556.096 496.241C555.77 495.689 555.598 495.06 555.598 494.419V494.42ZM557.063 494.42C557.063 494.838 557.187 495.247 557.419 495.595C557.652 495.943 557.982 496.214 558.369 496.375C558.756 496.535 559.181 496.577 559.592 496.495C560.002 496.413 560.379 496.212 560.675 495.916C560.971 495.62 561.172 495.243 561.254 494.832C561.336 494.422 561.294 493.997 561.134 493.61C560.974 493.223 560.702 492.893 560.354 492.66C560.006 492.428 559.597 492.304 559.179 492.304C558.618 492.304 558.08 492.527 557.683 492.924C557.287 493.321 557.064 493.858 557.063 494.419L557.063 494.42Z" fill="#0192FE"/>
</g>
<g filter="url(#filter2_d_96_8)">
<circle cx="630" cy="158" r="50" fill="white"/>
</g>
<g clip-path="url(#clip1_96_8)">
<path d="M642.151 158.248C642.41 158.248 642.658 158.145 642.841 157.962C643.024 157.779 643.127 157.53 643.127 157.271C643.127 157.012 643.024 156.764 642.841 156.581C642.658 156.398 642.41 156.295 642.151 156.295H635.585C635.326 156.295 635.077 156.398 634.894 156.581C634.711 156.764 634.608 157.012 634.608 157.271C634.608 157.53 634.711 157.779 634.894 157.962C635.077 158.145 635.326 158.248 635.585 158.248H642.151Z" fill="#0192FE"/>
<path d="M654.314 164.398C653.819 163.68 653.101 163.146 652.27 162.881C651.44 162.616 650.545 162.633 649.726 162.932V139.519C649.724 138.225 649.21 136.984 648.294 136.068C647.379 135.153 646.138 134.638 644.843 134.637H619.062C617.768 134.638 616.527 135.153 615.611 136.068C614.696 136.984 614.181 138.225 614.18 139.519V144.76C614.18 145.019 614.282 145.267 614.466 145.45C614.649 145.633 614.897 145.736 615.156 145.736C615.415 145.736 615.663 145.633 615.847 145.45C616.03 145.267 616.133 145.019 616.133 144.76V139.519C616.134 138.743 616.442 137.998 616.992 137.449C617.541 136.9 618.286 136.591 619.062 136.59H626.289V144.759C626.289 144.939 626.338 145.115 626.432 145.268C626.525 145.421 626.659 145.546 626.819 145.628C626.979 145.71 627.158 145.746 627.337 145.733C627.516 145.72 627.688 145.657 627.834 145.553L631.953 142.601L636.071 145.553C636.217 145.658 636.389 145.72 636.568 145.733C636.747 145.746 636.927 145.71 637.086 145.628C637.246 145.546 637.38 145.422 637.474 145.268C637.567 145.115 637.617 144.939 637.617 144.759V136.59H644.843C645.62 136.591 646.365 136.9 646.914 137.449C647.463 137.998 647.772 138.743 647.773 139.519V163.751L640.839 166.681C640.952 166.125 640.939 165.551 640.803 165.001C640.666 164.45 640.409 163.937 640.05 163.498C639.691 163.059 639.239 162.706 638.726 162.463C638.214 162.22 637.654 162.094 637.087 162.093H631.458L628.24 160.668C626.775 160.016 625.189 159.681 623.586 159.683C621.669 159.687 619.782 160.154 618.085 161.042V159.734C618.085 159.475 617.982 159.227 617.799 159.043C617.616 158.86 617.367 158.757 617.108 158.757H616.133V153.548C616.133 153.289 616.03 153.041 615.847 152.858C615.663 152.675 615.415 152.572 615.156 152.572C614.897 152.572 614.649 152.675 614.466 152.858C614.282 153.041 614.18 153.289 614.18 153.548V158.757H605.977C605.718 158.757 605.469 158.86 605.286 159.043C605.103 159.227 605 159.475 605 159.734V178.386C605 178.645 605.103 178.893 605.286 179.077C605.469 179.26 605.718 179.363 605.977 179.363H617.108C617.367 179.363 617.616 179.26 617.799 179.077C617.982 178.893 618.085 178.645 618.085 178.386V177.41H630.415C635.524 177.404 640.563 176.22 645.139 173.949L652.825 170.125C653.327 169.875 653.77 169.52 654.123 169.085C654.476 168.649 654.732 168.143 654.873 167.6C655.015 167.057 655.038 166.49 654.941 165.938C654.845 165.385 654.631 164.86 654.314 164.397L654.314 164.398ZM635.664 142.858L632.522 140.606C632.356 140.487 632.157 140.423 631.953 140.423C631.749 140.423 631.55 140.487 631.384 140.606L628.242 142.858V136.59H635.664V142.858ZM606.953 177.409V160.71H616.132V177.409H606.953ZM652.983 167.109C652.913 167.382 652.784 167.636 652.607 167.854C652.429 168.073 652.207 168.251 651.955 168.377L644.269 172.201C639.963 174.337 635.222 175.451 630.416 175.457H618.085V163.311C619.714 162.223 621.627 161.641 623.586 161.636C624.916 161.634 626.233 161.912 627.449 162.453L630.856 163.962C630.981 164.018 631.115 164.046 631.252 164.046H637.087C637.584 164.046 638.061 164.244 638.413 164.595C638.764 164.947 638.962 165.424 638.962 165.921C638.962 166.419 638.764 166.896 638.413 167.247C638.061 167.599 637.584 167.797 637.087 167.797H628.769C628.51 167.797 628.262 167.9 628.079 168.083C627.896 168.266 627.793 168.514 627.793 168.773C627.793 169.032 627.896 169.281 628.079 169.464C628.262 169.647 628.51 169.75 628.769 169.75H637.329C638.163 169.751 638.989 169.583 639.757 169.258L650.311 164.799C650.65 164.656 651.021 164.611 651.384 164.668C651.747 164.725 652.087 164.883 652.365 165.123C652.643 165.364 652.848 165.677 652.958 166.028C653.067 166.379 653.076 166.753 652.983 167.109Z" fill="#546B81"/>
<path d="M615.156 150.131C615.382 150.131 615.601 150.053 615.776 149.909C615.951 149.766 616.071 149.567 616.115 149.345C616.159 149.123 616.125 148.893 616.018 148.694C615.912 148.494 615.74 148.338 615.531 148.251C615.322 148.165 615.09 148.153 614.873 148.219C614.657 148.284 614.47 148.423 614.344 148.611C614.219 148.799 614.162 149.025 614.184 149.25C614.206 149.475 614.306 149.685 614.466 149.845C614.649 150.027 614.897 150.13 615.156 150.131Z" fill="#0192FE"/>
<path d="M636.071 145.553L631.953 142.601L627.834 145.553C627.688 145.658 627.516 145.72 627.337 145.733C627.158 145.747 626.979 145.71 626.819 145.628C626.659 145.546 626.525 145.422 626.432 145.268C626.338 145.115 626.289 144.939 626.289 144.76V136.639H628.242V142.858L631.384 140.606C631.55 140.487 631.749 140.423 631.953 140.423C632.157 140.423 632.356 140.487 632.522 140.606L635.664 142.858V136.639H637.617V144.76C637.617 144.939 637.567 145.115 637.474 145.268C637.38 145.422 637.246 145.546 637.086 145.628C636.927 145.71 636.747 145.747 636.568 145.733C636.389 145.72 636.217 145.658 636.071 145.553Z" fill="#0192FE"/>
</g>
<g filter="url(#filter3_d_96_8)">
<circle cx="79" cy="486" r="50" fill="white"/>
</g>
<circle cx="324" cy="263" r="224.5" stroke="#9F9B9B"/>
<g filter="url(#filter4_d_96_8)">
<circle cx="277" cy="475" r="50" fill="white"/>
</g>
<g filter="url(#filter5_d_96_8)">
<circle cx="98" cy="311" r="50" fill="white"/>
</g>
<g filter="url(#filter6_d_96_8)">
<circle cx="129" cy="140" r="50" fill="white"/>
</g>
<g clip-path="url(#clip2_96_8)">
<path d="M124 150.836C120.219 150.836 116.649 150.199 113.948 149.041C110.984 147.771 109.352 145.98 109.352 144V136.357L99.6744 133.21C99.4781 133.147 99.307 133.022 99.1861 132.855C99.0647 132.689 98.9995 132.488 99 132.281C98.9996 132.075 99.0649 131.874 99.1864 131.707C99.3073 131.54 99.4784 131.416 99.6747 131.353L123.698 123.54C123.796 123.508 123.898 123.492 124 123.492C124.103 123.492 124.205 123.508 124.302 123.54L148.325 131.353C148.522 131.416 148.693 131.54 148.814 131.707C148.935 131.874 149 132.075 149 132.281C149 132.488 148.935 132.689 148.814 132.855C148.693 133.022 148.522 133.147 148.325 133.21L147.662 133.426L147.659 133.407L146.966 133.652L146.07 133.943V133.968L144.117 134.658V134.579L138.648 136.357V144C138.648 145.98 137.016 147.771 134.052 149.041C131.351 150.199 127.781 150.836 124 150.836ZM111.305 136.992V144C111.305 146.31 116.518 148.883 124 148.883C131.482 148.883 136.695 146.31 136.695 144V136.992L124.302 141.023C124.204 141.054 124.103 141.07 124 141.07C123.897 141.07 123.796 141.054 123.698 141.023L111.305 136.992ZM124 125.496L103.134 132.281L124 139.067L144.866 132.281L124 125.496Z" fill="#546B81"/>
<path d="M140.211 164.508C140.018 164.508 139.829 164.451 139.668 164.343C139.508 164.236 139.383 164.084 139.309 163.905C139.235 163.727 139.215 163.53 139.253 163.341C139.291 163.151 139.384 162.977 139.52 162.841C140.583 161.774 141.182 160.33 141.188 158.824V156.695C141.189 155.83 141.477 154.989 142.007 154.304C142.537 153.62 143.279 153.13 144.117 152.913V134.658L146.07 133.968V152.913C146.908 153.13 147.65 153.62 148.181 154.304C148.711 154.989 148.999 155.83 149 156.695V157.672C148.998 159.484 148.277 161.222 146.996 162.503C145.714 163.785 143.976 164.506 142.164 164.508H140.211ZM147.659 133.407L147.663 133.426L146.966 133.652L147.659 133.407Z" fill="#0192FE"/>
</g>
<g filter="url(#filter7_d_96_8)">
<circle cx="300" cy="45" r="45" fill="white"/>
</g>
<g filter="url(#filter8_d_96_8)">
<circle cx="483" cy="104" r="45" fill="white"/>
</g>
<g filter="url(#filter9_d_96_8)">
<circle cx="534" cy="307" r="50" fill="white"/>
</g>
<path d="M559.702 326.838H558.869V305.109C559.828 304.495 560.618 303.649 561.165 302.649C561.712 301.65 561.999 300.528 562 299.389C562 299.261 561.967 299.136 561.904 299.025L556.092 288.855C555.89 288.503 555.6 288.211 555.249 288.008C554.899 287.805 554.501 287.698 554.096 287.697H519.904C519.499 287.698 519.101 287.805 518.751 288.008C518.4 288.211 518.11 288.503 517.908 288.855L512.096 299.025C512.033 299.136 512 299.261 512 299.389C512.001 300.528 512.288 301.65 512.835 302.649C513.382 303.649 514.172 304.495 515.131 305.109V326.838H514.298C514.104 326.838 513.918 326.915 513.78 327.052C513.643 327.19 513.566 327.376 513.566 327.57C513.566 327.765 513.643 327.951 513.78 328.088C513.918 328.226 514.104 328.303 514.298 328.303H559.702C559.896 328.303 560.082 328.226 560.22 328.088C560.357 327.951 560.434 327.765 560.434 327.57C560.434 327.376 560.357 327.19 560.22 327.052C560.082 326.915 559.896 326.838 559.702 326.838ZM513.515 300.121H515.863C516.058 300.121 516.244 300.044 516.381 299.907C516.519 299.769 516.596 299.583 516.596 299.389C516.596 299.195 516.519 299.008 516.381 298.871C516.244 298.734 516.058 298.656 515.863 298.656H513.995L519.18 289.582C519.253 289.455 519.359 289.349 519.486 289.275C519.613 289.201 519.757 289.162 519.904 289.162H554.096C554.243 289.162 554.387 289.201 554.514 289.275C554.641 289.349 554.747 289.455 554.82 289.582L560.005 298.657H558.136C557.942 298.657 557.756 298.734 557.618 298.871C557.481 299.009 557.404 299.195 557.404 299.389C557.404 299.584 557.481 299.77 557.618 299.907C557.756 300.045 557.942 300.122 558.136 300.122H560.485C560.307 301.397 559.675 302.565 558.704 303.411C557.733 304.256 556.489 304.722 555.201 304.722C553.914 304.722 552.67 304.256 551.699 303.411C550.728 302.565 550.095 301.397 549.918 300.122H555.006C555.2 300.122 555.387 300.045 555.524 299.907C555.661 299.77 555.738 299.584 555.738 299.389C555.738 299.195 555.661 299.009 555.524 298.871C555.387 298.734 555.2 298.657 555.006 298.657H518.995C518.801 298.657 518.615 298.734 518.477 298.871C518.34 299.009 518.263 299.195 518.263 299.389C518.263 299.584 518.34 299.77 518.477 299.907C518.615 300.045 518.801 300.122 518.995 300.122H524.082C523.905 301.397 523.273 302.565 522.302 303.411C521.331 304.256 520.087 304.722 518.799 304.722C517.511 304.722 516.267 304.256 515.296 303.411C514.325 302.565 513.693 301.397 513.516 300.122L513.515 300.121ZM548.349 300.121C548.173 301.397 547.541 302.566 546.569 303.411C545.598 304.257 544.354 304.723 543.066 304.723C541.779 304.723 540.534 304.257 539.563 303.411C538.592 302.566 537.96 301.397 537.783 300.121H548.349ZM536.216 300.121C536.039 301.397 535.407 302.566 534.436 303.411C533.465 304.257 532.22 304.723 530.933 304.723C529.645 304.723 528.401 304.257 527.43 303.411C526.458 302.566 525.826 301.397 525.65 300.121H536.216ZM553.49 326.838H545.561V324.389H553.49V326.838ZM553.49 322.924H545.561V309.515H553.49V322.924ZM557.404 326.838H554.955V308.783C554.955 308.589 554.877 308.402 554.74 308.265C554.603 308.128 554.416 308.05 554.222 308.05H544.828C544.634 308.05 544.448 308.128 544.31 308.265C544.173 308.402 544.096 308.589 544.096 308.783V326.838H516.596V305.82C518.148 306.353 519.841 306.306 521.361 305.688C522.882 305.07 524.127 303.922 524.866 302.457C525.433 303.579 526.301 304.522 527.372 305.181C528.443 305.839 529.676 306.188 530.933 306.188C532.191 306.188 533.423 305.839 534.494 305.181C535.565 304.522 536.433 303.579 537 302.457C537.567 303.579 538.435 304.522 539.506 305.181C540.577 305.839 541.809 306.188 543.067 306.188C544.324 306.188 545.557 305.839 546.628 305.181C547.699 304.522 548.567 303.579 549.134 302.457C549.873 303.922 551.119 305.07 552.639 305.688C554.159 306.306 555.852 306.353 557.404 305.82V326.838Z" fill="#546B81"/>
<path d="M540.914 308.05H519.778C519.584 308.05 519.397 308.127 519.26 308.265C519.123 308.402 519.045 308.588 519.045 308.783V323.656C519.045 323.851 519.123 324.037 519.26 324.174C519.397 324.312 519.584 324.389 519.778 324.389H540.914C541.108 324.389 541.295 324.312 541.432 324.174C541.569 324.037 541.647 323.851 541.647 323.656V308.783C541.647 308.588 541.569 308.402 541.432 308.265C541.295 308.127 541.108 308.05 540.914 308.05ZM540.182 322.924H520.51V309.515H540.182V322.924Z" fill="#0192FE"/>
<path d="M549.134 302.457C548.567 303.579 547.699 304.522 546.628 305.181C545.557 305.839 544.324 306.188 543.067 306.188C541.809 306.188 540.577 305.839 539.506 305.181C538.435 304.522 537.567 303.579 537 302.457C536.433 303.579 535.565 304.522 534.494 305.181C533.423 305.839 532.19 306.188 530.933 306.188C529.676 306.188 528.443 305.839 527.372 305.181C526.301 304.522 525.433 303.579 524.866 302.457C524.127 303.922 522.881 305.07 521.361 305.688C519.841 306.306 518.148 306.353 516.596 305.82V306.023L515.131 305.341V305.109C514.301 304.577 513.597 303.87 513.067 303.039C512.536 302.208 512.193 301.271 512.06 300.294L513.542 300.291C513.755 301.533 514.401 302.659 515.365 303.47C516.329 304.281 517.55 304.724 518.809 304.722C520.069 304.719 521.288 304.271 522.249 303.456C523.21 302.641 523.851 301.512 524.059 300.269L525.672 300.267C525.88 301.513 526.524 302.645 527.488 303.461C528.453 304.278 529.677 304.725 530.94 304.723C532.204 304.721 533.426 304.27 534.389 303.452C535.351 302.633 535.992 301.499 536.196 300.252L537.803 300.25C538.007 301.499 538.649 302.634 539.614 303.453C540.579 304.272 541.803 304.722 543.069 304.721C544.334 304.721 545.558 304.27 546.522 303.45C547.486 302.63 548.127 301.494 548.33 300.245H549.935C550.138 301.493 550.778 302.628 551.74 303.448C552.702 304.268 553.924 304.72 555.189 304.723C556.453 304.725 557.677 304.279 558.643 303.463C559.608 302.647 560.253 301.515 560.461 300.268C561.019 300.271 561.516 300.275 561.941 300.279C561.81 301.259 561.467 302.198 560.936 303.032C560.406 303.866 559.7 304.575 558.868 305.109V305.153C558.32 305.447 557.815 305.709 557.403 305.919V305.819C555.851 306.352 554.158 306.305 552.638 305.687C551.118 305.069 549.873 303.921 549.133 302.456L549.134 302.457Z" fill="#0192FE"/>
<ellipse cx="323" cy="330.5" rx="139" ry="6.5" fill="#C4C4C4"/>
<path d="M431.997 313.615H222.003C218.69 313.615 216 311.241 216 308.316V266.146C216 263.221 218.69 260.846 222.003 260.846H431.993C435.31 260.846 438 263.221 438 266.146V308.312C438 311.241 435.31 313.615 431.997 313.615Z" fill="#38454F"/>
<path d="M241.615 328.692C234.541 328.692 228.808 323.63 228.808 317.385V313.615H254.423V317.385C254.423 323.63 248.689 328.692 241.615 328.692Z" fill="#28384C"/>
<path d="M412.385 328.692C405.31 328.692 399.577 323.63 399.577 317.385V313.615H425.192V317.385C425.192 323.63 419.459 328.692 412.385 328.692Z" fill="#28384C"/>
<path d="M420.923 283.462C423.281 283.462 425.192 281.774 425.192 279.692C425.192 277.611 423.281 275.923 420.923 275.923C418.565 275.923 416.654 277.611 416.654 279.692C416.654 281.774 418.565 283.462 420.923 283.462Z" fill="#546A79"/>
<path d="M403.846 283.462C406.204 283.462 408.115 281.774 408.115 279.692C408.115 277.611 406.204 275.923 403.846 275.923C401.488 275.923 399.577 277.611 399.577 279.692C399.577 281.774 401.488 283.462 403.846 283.462Z" fill="#546A79"/>
<path d="M412.385 298.538C414.742 298.538 416.654 296.851 416.654 294.769C416.654 292.688 414.742 291 412.385 291C410.027 291 408.115 292.688 408.115 294.769C408.115 296.851 410.027 298.538 412.385 298.538Z" fill="#546A79"/>
<path d="M395.308 298.538C397.666 298.538 399.577 296.851 399.577 294.769C399.577 292.688 397.666 291 395.308 291C392.95 291 391.038 292.688 391.038 294.769C391.038 296.851 392.95 298.538 395.308 298.538Z" fill="#546A79"/>
<path d="M386.769 283.462C389.127 283.462 391.038 281.774 391.038 279.692C391.038 277.611 389.127 275.923 386.769 275.923C384.411 275.923 382.5 277.611 382.5 279.692C382.5 281.774 384.411 283.462 386.769 283.462Z" fill="#546A79"/>
<path d="M378.231 298.538C380.589 298.538 382.5 296.851 382.5 294.769C382.5 292.688 380.589 291 378.231 291C375.873 291 373.962 292.688 373.962 294.769C373.962 296.851 375.873 298.538 378.231 298.538Z" fill="#546A79"/>
<path d="M369.692 283.462C372.05 283.462 373.962 281.774 373.962 279.692C373.962 277.611 372.05 275.923 369.692 275.923C367.334 275.923 365.423 277.611 365.423 279.692C365.423 281.774 367.334 283.462 369.692 283.462Z" fill="#546A79"/>
<path d="M361.154 298.538C363.512 298.538 365.423 296.851 365.423 294.769C365.423 292.688 363.512 291 361.154 291C358.796 291 356.885 292.688 356.885 294.769C356.885 296.851 358.796 298.538 361.154 298.538Z" fill="#546A79"/>
<path d="M352.615 283.462C354.973 283.462 356.885 281.774 356.885 279.692C356.885 277.611 354.973 275.923 352.615 275.923C350.258 275.923 348.346 277.611 348.346 279.692C348.346 281.774 350.258 283.462 352.615 283.462Z" fill="#546A79"/>
<path d="M344.077 298.538C346.435 298.538 348.346 296.851 348.346 294.769C348.346 292.688 346.435 291 344.077 291C341.719 291 339.808 292.688 339.808 294.769C339.808 296.851 341.719 298.538 344.077 298.538Z" fill="#546A79"/>
<path d="M431.997 260.846H222.003C218.69 260.846 216 258.472 216 255.547V213.376C216 210.452 218.69 208.077 222.003 208.077H431.993C435.31 208.077 438 210.452 438 213.376V255.543C438 258.472 435.31 260.846 431.997 260.846Z" fill="#546A79"/>
<path d="M431.997 208.077H222.003C218.69 208.077 216 205.702 216 202.777V160.607C216 157.682 218.69 155.308 222.003 155.308H431.993C435.31 155.308 438 157.682 438 160.607V202.774C438 205.702 435.31 208.077 431.997 208.077Z" fill="#38454F"/>
<path d="M420.923 230.692C423.281 230.692 425.192 229.005 425.192 226.923C425.192 224.841 423.281 223.154 420.923 223.154C418.565 223.154 416.654 224.841 416.654 226.923C416.654 229.005 418.565 230.692 420.923 230.692Z" fill="#38454F"/>
<path d="M403.846 230.692C406.204 230.692 408.115 229.005 408.115 226.923C408.115 224.841 406.204 223.154 403.846 223.154C401.488 223.154 399.577 224.841 399.577 226.923C399.577 229.005 401.488 230.692 403.846 230.692Z" fill="#38454F"/>
<path d="M412.385 245.769C414.742 245.769 416.654 244.082 416.654 242C416.654 239.918 414.742 238.231 412.385 238.231C410.027 238.231 408.115 239.918 408.115 242C408.115 244.082 410.027 245.769 412.385 245.769Z" fill="#38454F"/>
<path d="M395.308 245.769C397.666 245.769 399.577 244.082 399.577 242C399.577 239.918 397.666 238.231 395.308 238.231C392.95 238.231 391.038 239.918 391.038 242C391.038 244.082 392.95 245.769 395.308 245.769Z" fill="#38454F"/>
<path d="M386.769 230.692C389.127 230.692 391.038 229.005 391.038 226.923C391.038 224.841 389.127 223.154 386.769 223.154C384.411 223.154 382.5 224.841 382.5 226.923C382.5 229.005 384.411 230.692 386.769 230.692Z" fill="#38454F"/>
<path d="M378.231 245.769C380.589 245.769 382.5 244.082 382.5 242C382.5 239.918 380.589 238.231 378.231 238.231C375.873 238.231 373.962 239.918 373.962 242C373.962 244.082 375.873 245.769 378.231 245.769Z" fill="#38454F"/>
<path d="M369.692 230.692C372.05 230.692 373.962 229.005 373.962 226.923C373.962 224.841 372.05 223.154 369.692 223.154C367.334 223.154 365.423 224.841 365.423 226.923C365.423 229.005 367.334 230.692 369.692 230.692Z" fill="#38454F"/>
<path d="M361.154 245.769C363.512 245.769 365.423 244.082 365.423 242C365.423 239.918 363.512 238.231 361.154 238.231C358.796 238.231 356.885 239.918 356.885 242C356.885 244.082 358.796 245.769 361.154 245.769Z" fill="#38454F"/>
<path d="M352.615 230.692C354.973 230.692 356.885 229.005 356.885 226.923C356.885 224.841 354.973 223.154 352.615 223.154C350.258 223.154 348.346 224.841 348.346 226.923C348.346 229.005 350.258 230.692 352.615 230.692Z" fill="#38454F"/>
<path d="M344.077 245.769C346.435 245.769 348.346 244.082 348.346 242C348.346 239.918 346.435 238.231 344.077 238.231C341.719 238.231 339.808 239.918 339.808 242C339.808 244.082 341.719 245.769 344.077 245.769Z" fill="#38454F"/>
<path d="M420.923 177.923C423.281 177.923 425.192 176.235 425.192 174.154C425.192 172.072 423.281 170.385 420.923 170.385C418.565 170.385 416.654 172.072 416.654 174.154C416.654 176.235 418.565 177.923 420.923 177.923Z" fill="#546A79"/>
<path d="M403.846 177.923C406.204 177.923 408.115 176.235 408.115 174.154C408.115 172.072 406.204 170.385 403.846 170.385C401.488 170.385 399.577 172.072 399.577 174.154C399.577 176.235 401.488 177.923 403.846 177.923Z" fill="#546A79"/>
<path d="M412.385 193C414.742 193 416.654 191.312 416.654 189.231C416.654 187.149 414.742 185.461 412.385 185.461C410.027 185.461 408.115 187.149 408.115 189.231C408.115 191.312 410.027 193 412.385 193Z" fill="#546A79"/>
<path d="M395.308 193C397.666 193 399.577 191.312 399.577 189.231C399.577 187.149 397.666 185.461 395.308 185.461C392.95 185.461 391.038 187.149 391.038 189.231C391.038 191.312 392.95 193 395.308 193Z" fill="#546A79"/>
<path d="M386.769 177.923C389.127 177.923 391.038 176.235 391.038 174.154C391.038 172.072 389.127 170.385 386.769 170.385C384.411 170.385 382.5 172.072 382.5 174.154C382.5 176.235 384.411 177.923 386.769 177.923Z" fill="#546A79"/>
<path d="M378.231 193C380.589 193 382.5 191.312 382.5 189.231C382.5 187.149 380.589 185.461 378.231 185.461C375.873 185.461 373.962 187.149 373.962 189.231C373.962 191.312 375.873 193 378.231 193Z" fill="#546A79"/>
<path d="M369.692 177.923C372.05 177.923 373.962 176.235 373.962 174.154C373.962 172.072 372.05 170.385 369.692 170.385C367.334 170.385 365.423 172.072 365.423 174.154C365.423 176.235 367.334 177.923 369.692 177.923Z" fill="#546A79"/>
<path d="M361.154 193C363.512 193 365.423 191.312 365.423 189.231C365.423 187.149 363.512 185.461 361.154 185.461C358.796 185.461 356.885 187.149 356.885 189.231C356.885 191.312 358.796 193 361.154 193Z" fill="#546A79"/>
<path d="M352.615 177.923C354.973 177.923 356.885 176.235 356.885 174.154C356.885 172.072 354.973 170.385 352.615 170.385C350.258 170.385 348.346 172.072 348.346 174.154C348.346 176.235 350.258 177.923 352.615 177.923Z" fill="#546A79"/>
<path d="M344.077 193C346.435 193 348.346 191.312 348.346 189.231C348.346 187.149 346.435 185.461 344.077 185.461C341.719 185.461 339.808 187.149 339.808 189.231C339.808 191.312 341.719 193 344.077 193Z" fill="#546A79"/>
<path d="M250.154 193C257.227 193 262.962 187.937 262.962 181.692C262.962 175.447 257.227 170.385 250.154 170.385C243.08 170.385 237.346 175.447 237.346 181.692C237.346 187.937 243.08 193 250.154 193Z" fill="#283238"/>
<path d="M250.154 189.231C254.869 189.231 258.692 185.856 258.692 181.692C258.692 177.529 254.869 174.154 250.154 174.154C245.438 174.154 241.615 177.529 241.615 181.692C241.615 185.856 245.438 189.231 250.154 189.231Z" fill="#008BB7"/>
<path d="M250.154 245.769C257.227 245.769 262.962 240.707 262.962 234.462C262.962 228.216 257.227 223.154 250.154 223.154C243.08 223.154 237.346 228.216 237.346 234.462C237.346 240.707 243.08 245.769 250.154 245.769Z" fill="#283238"/>
<path d="M250.154 242C254.869 242 258.692 238.625 258.692 234.462C258.692 230.298 254.869 226.923 250.154 226.923C245.438 226.923 241.615 230.298 241.615 234.462C241.615 238.625 245.438 242 250.154 242Z" fill="#008BB7"/>
<path d="M250.154 298.538C257.227 298.538 262.962 293.476 262.962 287.231C262.962 280.986 257.227 275.923 250.154 275.923C243.08 275.923 237.346 280.986 237.346 287.231C237.346 293.476 243.08 298.538 250.154 298.538Z" fill="#283238"/>
<path d="M250.154 294.769C254.869 294.769 258.692 291.394 258.692 287.231C258.692 283.067 254.869 279.692 250.154 279.692C245.438 279.692 241.615 283.067 241.615 287.231C241.615 291.394 245.438 294.769 250.154 294.769Z" fill="#008BB7"/>
<g clip-path="url(#clip3_96_8)">
<path d="M495.201 106.53H477.152L487.124 100.972C487.626 100.691 487.995 100.223 488.152 99.6705C488.309 99.1178 488.241 98.5254 487.963 98.0226L486.477 95.3578C486.196 94.8564 485.728 94.4869 485.175 94.3303C484.622 94.1736 484.029 94.2426 483.527 94.522L479.379 96.8335C479.842 95.9352 480.148 94.9641 480.282 93.9624C480.469 92.4096 480.117 91.0091 479.264 89.9108C478.587 89.043 477.638 88.4285 476.569 88.1667C475.5 87.9048 474.374 88.0109 473.373 88.4676C473.196 88.5473 473.058 88.694 472.989 88.8756C472.92 89.0572 472.926 89.2588 473.005 89.436C473.085 89.6132 473.232 89.7515 473.413 89.8204C473.595 89.8894 473.797 89.8834 473.974 89.8038C474.675 89.4823 475.465 89.4067 476.215 89.5892C476.965 89.7717 477.632 90.2016 478.107 90.8096C479.501 92.604 478.966 95.4106 476.682 98.3361L475.797 98.829L475.157 97.6822C474.995 97.3911 474.782 97.1316 474.528 96.9163C474.684 95.9848 475.118 94.7794 475.597 93.9919C475.695 93.8262 475.724 93.6284 475.677 93.4416C475.631 93.2547 475.512 93.0938 475.348 92.9937C475.183 92.8935 474.986 92.8622 474.798 92.9064C474.611 92.9507 474.448 93.067 474.346 93.2302C473.794 94.1825 473.393 95.215 473.158 96.2907C472.545 96.1916 471.916 96.3029 471.374 96.6063L471.12 96.7475C471.02 94.6341 471.348 92.8654 472.086 91.5898C472.135 91.5065 472.167 91.4144 472.18 91.3188C472.193 91.2231 472.187 91.1258 472.162 91.0325C472.138 90.9391 472.095 90.8516 472.036 90.7748C471.978 90.6981 471.905 90.6337 471.821 90.5853C471.737 90.537 471.645 90.5056 471.549 90.4931C471.454 90.4805 471.356 90.487 471.263 90.5121C471.17 90.5373 471.083 90.5806 471.006 90.6396C470.93 90.6986 470.866 90.7722 470.818 90.856C469.838 92.5488 469.465 94.7949 469.705 97.5367L468.82 98.0297C465.083 95.252 461.426 94.6837 458.973 96.5243C458.11 97.1689 457.483 98.0795 457.189 99.1157C456.895 100.152 456.95 101.256 457.346 102.258C458.181 104.343 460.268 105.612 463.144 105.88L458.897 108.247C458.396 108.527 458.027 108.995 457.87 109.547C457.713 110.1 457.781 110.692 458.06 111.194L459.546 113.861C459.827 114.362 460.295 114.731 460.848 114.888C461.4 115.045 461.993 114.977 462.495 114.698L462.496 114.697L467.282 112.03V123.96C467.283 124.65 467.557 125.311 468.045 125.798C468.533 126.286 469.194 126.56 469.884 126.561H494.377C495.067 126.56 495.728 126.286 496.216 125.798C496.704 125.311 496.978 124.649 496.979 123.96V108.307C496.979 107.836 496.791 107.384 496.458 107.051C496.124 106.718 495.673 106.53 495.201 106.53V106.53ZM470.793 108.397L468.622 104.504L475.231 100.822L477.402 104.714L474.097 106.556C473.981 106.587 473.874 106.646 473.786 106.729L470.793 108.397ZM484.241 95.8011C484.345 95.7426 484.463 95.7119 484.582 95.712C484.708 95.7119 484.831 95.7452 484.939 95.8086C485.047 95.8719 485.137 95.9629 485.198 96.0723L486.683 98.7351C486.774 98.8986 486.795 99.091 486.744 99.2705C486.693 99.45 486.573 99.602 486.41 99.6932L478.681 104.001L476.512 100.108L484.241 95.8011ZM472.087 97.886C472.281 97.7775 472.5 97.7206 472.722 97.7208C472.845 97.7209 472.968 97.7382 473.087 97.772C473.254 97.8184 473.41 97.8974 473.545 98.0044C473.681 98.1115 473.794 98.2445 473.878 98.3957L474.518 99.5419L467.909 103.225L467.268 102.075C467.143 101.852 467.087 101.596 467.107 101.341C467.108 101.334 467.109 101.327 467.109 101.32C467.117 101.238 467.132 101.157 467.154 101.078C467.201 100.911 467.28 100.756 467.387 100.621C467.494 100.485 467.627 100.372 467.778 100.289L472.087 97.886ZM458.706 101.713C458.429 101.011 458.392 100.237 458.599 99.5109C458.806 98.7849 459.247 98.1472 459.852 97.6963C461.649 96.3487 464.423 96.7776 467.405 98.8189L467.065 99.0086C466.532 99.3037 466.112 99.7674 465.87 100.327C464.904 100.022 464.034 99.8551 462.79 99.7189C462.597 99.6978 462.404 99.7542 462.252 99.8758C462.101 99.9974 462.004 100.174 461.983 100.367C461.961 100.56 462.018 100.754 462.14 100.905C462.261 101.057 462.438 101.154 462.631 101.175C464 101.325 464.805 101.511 465.661 101.798C465.706 102.146 465.817 102.482 465.988 102.789L466.629 103.938L465.829 104.384C462.194 104.781 459.536 103.788 458.705 101.713H458.706ZM461.783 113.418C461.62 113.506 461.428 113.527 461.249 113.477C461.071 113.426 460.918 113.308 460.825 113.148L459.34 110.482C459.249 110.319 459.227 110.127 459.278 109.948C459.328 109.769 459.448 109.617 459.61 109.526L466.385 105.751C466.406 105.741 466.427 105.729 466.447 105.717L467.343 105.218L469.513 109.11L467.67 110.137C467.666 110.139 467.663 110.142 467.659 110.144L461.783 113.418ZM468.747 123.96V111.214L474.524 107.995H477.901V114.481C477.901 114.675 477.978 114.861 478.116 114.998C478.253 115.136 478.439 115.213 478.634 115.213C478.828 115.213 479.014 115.136 479.151 114.998C479.289 114.861 479.366 114.675 479.366 114.481V107.994H484.895V125.096H479.366V117.951C479.366 117.757 479.289 117.571 479.151 117.433C479.014 117.296 478.828 117.219 478.634 117.219C478.439 117.219 478.253 117.296 478.116 117.433C477.978 117.571 477.901 117.757 477.901 117.951V125.096H469.884C469.582 125.095 469.294 124.976 469.081 124.763C468.867 124.55 468.748 124.261 468.747 123.96ZM495.515 123.96C495.514 124.261 495.394 124.55 495.181 124.763C494.968 124.976 494.679 125.096 494.377 125.096H486.36V107.995H495.201C495.283 107.996 495.362 108.029 495.421 108.087C495.479 108.146 495.512 108.225 495.513 108.307L495.515 123.96Z" fill="#546B81"/>
<path d="M492.516 90.1207C492.525 90.2108 493.455 99.1663 490.319 102.566C490.188 102.708 490.118 102.898 490.126 103.092C490.134 103.286 490.218 103.469 490.361 103.601C490.504 103.732 490.693 103.802 490.887 103.794C491.081 103.786 491.264 103.702 491.396 103.559C494.979 99.6759 494.015 90.3576 493.972 89.9628C493.962 89.8672 493.933 89.7745 493.886 89.6902C493.84 89.6058 493.778 89.5313 493.703 89.471C493.628 89.4108 493.542 89.3658 493.45 89.3388C493.357 89.3118 493.261 89.3032 493.165 89.3136C493.069 89.324 492.977 89.3531 492.892 89.3992C492.808 89.4454 492.733 89.5078 492.673 89.5827C492.551 89.7341 492.495 89.9276 492.516 90.1207Z" fill="#546B81"/>
<path d="M499.215 89.0322C497.976 90.9294 497.583 92.6227 497.566 92.6943C497.525 92.8829 497.56 93.08 497.664 93.2428C497.768 93.4057 497.931 93.5211 498.119 93.564C498.307 93.6069 498.505 93.5738 498.669 93.4719C498.833 93.37 498.95 93.2076 498.995 93.0199C499.311 91.8714 499.809 90.781 500.47 89.79C501.931 87.5762 503.938 86.1513 506.436 85.5549C506.624 85.5089 506.786 85.3904 506.887 85.2252C506.988 85.0601 507.019 84.8617 506.974 84.6735C506.929 84.4853 506.812 84.3225 506.647 84.2206C506.483 84.1188 506.285 84.0863 506.096 84.1301C503.245 84.8107 500.865 86.5059 499.215 89.0325V89.0322Z" fill="#546B81"/>
<path d="M484.191 85.0088C484.196 85.0575 484.196 85.1066 484.19 85.1553L484.018 87.2863C483.993 87.5123 483.945 88.0182 484.358 88.3306C484.778 88.6483 485.271 88.4491 485.489 88.3611L487.446 87.5453C487.502 87.533 487.56 87.5323 487.616 87.5434L489.589 88.3637C489.776 88.4483 489.978 88.496 490.184 88.504C490.374 88.5067 490.559 88.4457 490.711 88.3308C491.123 88.0191 491.074 87.5132 491.05 87.2866L490.881 85.1586C490.876 85.1092 490.875 85.0595 490.879 85.0099L492.301 83.2963C492.465 83.1098 492.789 82.7321 492.637 82.2425C492.482 81.7457 491.977 81.6204 491.761 81.5669L489.599 81.0306L488.462 79.1327C488.358 78.9562 488.08 78.4882 487.537 78.4862H487.535C486.994 78.4862 486.713 78.9532 486.608 79.1293V79.1299L485.479 81.0137L485.469 81.0311L483.306 81.5677C483.091 81.6214 482.587 81.7472 482.432 82.2439C482.28 82.7335 482.615 83.1241 482.768 83.2971L484.191 85.0088ZM485.891 82.4351C486.066 82.4012 486.23 82.3276 486.372 82.22C486.513 82.1124 486.628 81.9736 486.707 81.8145L487.534 80.4339L488.368 81.8263C488.447 81.9825 488.561 82.1186 488.701 82.2242C488.841 82.3297 489.003 82.4019 489.175 82.4353L490.781 82.8336L489.747 84.0797C489.407 84.4814 489.394 84.9268 489.42 85.2726L489.538 86.757L488.182 86.193C487.766 86.0303 487.304 86.0298 486.888 86.1916L485.53 86.758L485.65 85.271C485.674 84.9578 485.667 84.4941 485.327 84.0854L484.287 82.8331L485.891 82.4351Z" fill="#0192FE"/>
<path d="M506.623 100.135C506.777 99.9613 507.113 99.5718 506.962 99.0821C506.807 98.584 506.301 98.4578 506.085 98.4041L503.926 97.8687L502.786 95.9664C502.681 95.7906 502.4 95.3234 501.859 95.3234H501.857C501.316 95.3248 501.038 95.7902 500.933 95.9679L499.803 97.8503L499.792 97.8686L497.633 98.404C497.417 98.4576 496.91 98.5834 496.756 99.0819C496.605 99.5716 496.94 99.9608 497.095 100.135L498.516 101.847C498.519 101.895 498.519 101.944 498.514 101.992L498.341 104.123C498.318 104.348 498.271 104.858 498.685 105.169C499.104 105.484 499.596 105.286 499.813 105.198L501.77 104.382C501.827 104.37 501.885 104.369 501.942 104.38L503.913 105.2C504.1 105.285 504.302 105.332 504.507 105.34C504.696 105.343 504.881 105.283 505.033 105.169C505.447 104.858 505.4 104.348 505.377 104.122L505.204 101.995C505.199 101.946 505.199 101.896 505.202 101.846L506.623 100.135ZM504.071 100.916C503.731 101.318 503.717 101.763 503.744 102.11L503.864 103.594L502.505 103.027C502.089 102.866 501.628 102.866 501.212 103.027L499.854 103.594L499.974 102.107C500 101.763 499.987 101.318 499.651 100.922L498.613 99.67L500.22 99.2714C500.393 99.237 500.556 99.1632 500.697 99.0557C500.837 98.9483 500.951 98.81 501.03 98.6516L501.86 97.2697L502.657 98.6015L502.687 98.6516C502.765 98.8102 502.88 98.9487 503.021 99.0562C503.161 99.1637 503.325 99.2374 503.499 99.2717C503.499 99.2717 504.962 99.2588 505.105 99.67C505.247 100.081 504.071 100.916 504.071 100.916Z" fill="#0192FE"/>
<path d="M499.187 84.7625C499.911 84.7621 500.619 84.5469 501.221 84.1442C501.823 83.7414 502.292 83.1692 502.569 82.4999C502.846 81.8306 502.918 81.0943 502.776 80.384C502.635 79.6737 502.285 79.0213 501.773 78.5095C501.261 77.9976 500.608 77.6492 499.897 77.5082C499.187 77.3673 498.451 77.4402 497.782 77.7177C497.113 77.9952 496.541 78.4649 496.139 79.0674C495.737 79.6698 495.522 80.3779 495.523 81.1022C495.524 82.0731 495.911 83.0038 496.598 83.69C497.285 84.3762 498.216 84.7619 499.187 84.7625ZM499.187 78.904C499.621 78.9043 500.046 79.0335 500.407 79.2751C500.768 79.5168 501.049 79.86 501.215 80.2615C501.381 80.663 501.425 81.1047 501.34 81.5307C501.255 81.9568 501.046 82.3481 500.738 82.6553C500.431 82.9624 500.04 83.1716 499.613 83.2563C499.187 83.341 498.746 83.2975 498.344 83.1313C497.943 82.9651 497.6 82.6836 497.358 82.3225C497.117 81.9613 496.988 81.5367 496.988 81.1022C496.988 80.5193 497.22 79.9605 497.633 79.5484C498.045 79.1362 498.604 78.9045 499.187 78.904Z" fill="#546B81"/>
</g>
<path d="M263.13 502C262.979 501.995 262.832 501.95 262.703 501.87C261.024 500.918 259.328 499.934 257.688 498.982C256.967 498.564 256.221 498.131 255.485 497.706C255.375 497.642 255.283 497.55 255.218 497.439C255.154 497.328 255.12 497.203 255.12 497.075V488.674C255.12 488.535 255.16 488.399 255.235 488.282C255.308 488.167 255.411 488.075 255.532 488.016C256.905 487.225 258.246 486.452 259.569 485.687C258.958 484.32 258.493 482.892 258.183 481.427C257.566 478.512 257.565 475.5 258.181 472.584C258.491 471.116 258.957 469.686 259.569 468.317C258.737 467.835 257.889 467.346 257.069 466.874C256.552 466.576 256.016 466.267 255.486 465.961C255.375 465.896 255.283 465.804 255.218 465.693C255.154 465.582 255.12 465.457 255.12 465.329V456.928C255.12 456.789 255.16 456.653 255.235 456.536C255.308 456.421 255.411 456.329 255.532 456.269C256.393 455.773 257.255 455.276 258.116 454.779L258.123 454.775C259.644 453.898 261.217 452.99 262.764 452.097C262.876 452.032 263.004 451.999 263.133 452C263.263 452.001 263.389 452.036 263.501 452.103C266.081 453.593 268.455 454.964 270.757 456.292C270.836 456.332 270.906 456.388 270.962 456.456C271.018 456.524 271.06 456.603 271.084 456.687C271.125 456.863 271.141 457.044 271.131 457.225C273.626 456.235 276.285 455.726 278.969 455.724H279.013C281.702 455.724 284.367 456.233 286.866 457.225V456.928C286.866 456.789 286.906 456.653 286.981 456.536C287.054 456.421 287.157 456.329 287.278 456.269C288.133 455.776 288.987 455.283 289.842 454.79L289.86 454.78C291.38 453.903 292.952 452.997 294.51 452.097C294.622 452.032 294.75 451.999 294.879 452C295.009 452.001 295.136 452.036 295.247 452.103L297.262 453.268C297.373 453.333 297.466 453.425 297.529 453.537C297.593 453.648 297.627 453.774 297.627 453.902C297.626 454.031 297.592 454.157 297.528 454.268C297.463 454.379 297.371 454.471 297.259 454.535C297.149 454.597 297.024 454.63 296.897 454.63C296.77 454.63 296.645 454.597 296.534 454.534L294.873 453.573C293.02 454.642 291.034 455.788 289.061 456.928L294.873 460.287L300.687 456.928L299.411 456.192C299.299 456.128 299.206 456.036 299.141 455.925C299.076 455.813 299.042 455.687 299.042 455.558C299.043 455.429 299.077 455.302 299.142 455.191C299.207 455.08 299.301 454.988 299.413 454.925C299.523 454.862 299.648 454.83 299.775 454.83C299.902 454.83 300.026 454.864 300.136 454.927L302.504 456.294C302.617 456.357 302.711 456.449 302.776 456.56C302.842 456.672 302.876 456.799 302.875 456.928L302.88 465.329C302.881 465.468 302.841 465.605 302.765 465.722C302.692 465.836 302.589 465.928 302.468 465.988L302.36 466.05L302.337 466.063C301.057 466.801 299.733 467.563 298.431 468.316C299.65 471.05 300.28 474.01 300.28 477.003C300.28 479.996 299.65 482.956 298.431 485.69L299.521 486.318L299.532 486.324C300.509 486.886 301.517 487.468 302.512 488.043C302.623 488.108 302.716 488.199 302.78 488.31C302.845 488.421 302.879 488.546 302.881 488.675V497.075C302.881 497.214 302.841 497.351 302.766 497.469C302.693 497.583 302.59 497.674 302.468 497.734C300.201 499.041 297.898 500.369 295.671 501.654L295.655 501.664L295.297 501.87C295.169 501.948 295.022 501.991 294.872 501.994C294.722 501.991 294.577 501.949 294.45 501.87C292.917 500.973 291.352 500.074 289.838 499.206L289.836 499.204C288.982 498.714 288.099 498.207 287.232 497.706C287.121 497.642 287.029 497.55 286.965 497.439C286.901 497.328 286.867 497.203 286.866 497.075V496.781C285.614 497.278 284.316 497.654 282.992 497.905C280.355 498.407 277.646 498.407 275.008 497.906C273.683 497.655 272.385 497.278 271.132 496.781V497.075C271.133 497.212 271.094 497.347 271.022 497.463C270.949 497.58 270.845 497.674 270.722 497.734C268.39 499.078 266.03 500.44 263.747 501.757L263.551 501.87C263.425 501.951 263.279 501.996 263.13 502ZM301.413 489.939L295.604 493.295V500.009C297.602 498.856 299.626 497.686 301.413 496.654V489.939ZM288.33 489.939V496.654C290.229 497.749 292.084 498.822 294.139 500.009V493.295L288.33 489.939ZM269.667 489.939L263.858 493.295V500.01C265.845 498.863 267.873 497.69 269.663 496.656L269.667 496.654V489.939ZM256.585 489.939V496.654C258.533 497.778 260.444 498.883 262.393 500.009V493.295L256.585 489.939ZM267.908 486.505C268.037 486.505 268.163 486.539 268.274 486.603L270.766 488.043C270.877 488.107 270.969 488.199 271.033 488.309C271.097 488.42 271.131 488.546 271.131 488.674V495.197C273.609 496.267 276.28 496.819 278.979 496.82H279C281.705 496.821 284.382 496.269 286.866 495.197V488.674C286.866 488.535 286.906 488.399 286.981 488.281C287.053 488.167 287.156 488.075 287.278 488.016C288.112 487.534 288.947 487.053 289.782 486.571L289.876 486.517C291.389 485.644 292.955 484.741 294.51 483.843C294.622 483.779 294.75 483.745 294.879 483.746C295.008 483.747 295.135 483.783 295.246 483.849L297.157 484.953C298.254 482.446 298.82 479.739 298.82 477.002C298.82 474.265 298.254 471.557 297.157 469.05L295.296 470.124C295.169 470.202 295.022 470.243 294.873 470.243C294.723 470.243 294.577 470.202 294.449 470.124L294.432 470.114L294.42 470.107C292.063 468.749 289.627 467.344 287.231 465.96C287.12 465.896 287.028 465.804 286.964 465.693C286.9 465.583 286.866 465.457 286.866 465.329V458.806C284.385 457.735 281.712 457.183 279.01 457.183H278.969C276.273 457.186 273.607 457.738 271.131 458.806V465.329C271.132 465.466 271.094 465.601 271.021 465.718C270.949 465.834 270.844 465.928 270.721 465.988C268.394 467.329 266.037 468.689 263.758 470.005L263.55 470.124C263.432 470.207 263.291 470.252 263.146 470.251C262.99 470.248 262.837 470.205 262.703 470.124L260.84 469.05C259.745 471.558 259.179 474.265 259.179 477.001C259.179 479.738 259.745 482.445 260.84 484.953L262.764 483.843C262.876 483.778 263.003 483.745 263.133 483.746C263.262 483.747 263.389 483.782 263.5 483.849L265.397 484.945C265.564 485.041 265.686 485.2 265.737 485.386C265.787 485.573 265.761 485.772 265.665 485.939C265.618 486.022 265.554 486.095 265.478 486.154C265.402 486.213 265.316 486.256 265.223 486.281C265.131 486.306 265.034 486.313 264.939 486.301C264.844 486.289 264.752 486.258 264.669 486.21L263.126 485.319C261.331 486.355 259.294 487.531 257.313 488.677L263.127 492.033L268.941 488.677L267.54 487.869C267.401 487.788 267.292 487.664 267.231 487.515C267.169 487.366 267.159 487.201 267.201 487.046C267.243 486.891 267.335 486.753 267.463 486.656C267.591 486.558 267.747 486.505 267.908 486.505L267.908 486.505ZM294.873 485.318L294.693 485.422C292.847 486.488 290.938 487.589 289.059 488.677L294.873 492.032L300.687 488.677L299.487 487.983C297.978 487.112 296.418 486.21 294.873 485.318L294.873 485.318ZM301.413 458.193L295.604 461.549V468.263C297.585 467.12 299.612 465.948 301.401 464.914L301.413 464.907L301.413 458.193ZM288.331 458.196V464.907C290.172 465.97 292.041 467.051 293.85 468.096L294.139 468.263V461.549L288.331 458.196ZM269.667 458.196L263.858 461.549V468.263C265.84 467.119 267.873 465.944 269.667 464.908V458.196L269.667 458.196ZM256.585 458.196V464.908C258.483 466.003 260.405 467.114 262.263 468.188L262.393 468.263V461.549L256.585 458.196ZM263.127 453.572L263.105 453.585C261.317 454.617 259.291 455.786 257.315 456.928L263.127 460.284L268.938 456.928C268.054 456.418 267.157 455.9 266.287 455.398L266.245 455.373C265.285 454.819 264.196 454.19 263.127 453.572Z" fill="#546B81"/>
<path d="M270.951 485.05C269.68 483.78 268.729 482.226 268.173 480.517C267.618 478.808 267.476 476.992 267.757 475.217C268.039 473.443 268.737 471.76 269.794 470.307C270.85 468.853 272.236 467.671 273.838 466.856C275.439 466.041 277.211 465.617 279.008 465.619C280.805 465.62 282.576 466.047 284.176 466.864C285.777 467.682 287.161 468.866 288.215 470.321C289.27 471.776 289.965 473.46 290.244 475.235C290.273 475.426 290.226 475.621 290.111 475.778C289.997 475.934 289.826 476.038 289.635 476.068C289.443 476.098 289.248 476.05 289.092 475.936C288.936 475.822 288.831 475.651 288.801 475.46C288.413 472.993 287.109 470.763 285.149 469.215C283.189 467.668 280.717 466.916 278.227 467.111C275.737 467.306 273.413 468.432 271.717 470.266C270.021 472.099 269.08 474.505 269.08 477.002C269.08 479.499 270.021 481.905 271.717 483.738C273.413 485.572 275.737 486.698 278.227 486.893C280.717 487.088 283.189 486.336 285.149 484.788C287.109 483.241 288.413 481.011 288.801 478.544C288.831 478.353 288.936 478.182 289.092 478.068C289.248 477.954 289.443 477.906 289.635 477.936C289.826 477.966 289.997 478.07 290.111 478.226C290.226 478.382 290.273 478.577 290.244 478.769C289.919 480.844 289.025 482.789 287.663 484.388C286.3 485.987 284.522 487.177 282.525 487.828C280.527 488.478 278.389 488.563 276.346 488.073C274.303 487.583 272.436 486.537 270.951 485.051L270.951 485.05ZM279.927 484.081V482.937H278.07V484.081C278.07 484.275 277.992 484.461 277.855 484.599C277.718 484.736 277.531 484.813 277.337 484.813C277.143 484.813 276.957 484.736 276.819 484.599C276.682 484.461 276.605 484.275 276.605 484.081V482.937H273.712C273.518 482.937 273.331 482.86 273.194 482.723C273.057 482.586 272.979 482.399 272.979 482.205C272.979 482.011 273.057 481.825 273.194 481.687C273.331 481.55 273.518 481.473 273.712 481.473H274.642V472.533H273.712C273.519 472.531 273.334 472.452 273.198 472.315C273.063 472.178 272.986 471.992 272.986 471.799C272.986 471.606 273.063 471.421 273.198 471.283C273.334 471.146 273.519 471.068 273.712 471.065H276.605V469.922C276.605 469.728 276.682 469.541 276.82 469.404C276.957 469.267 277.143 469.19 277.338 469.19C277.532 469.19 277.718 469.267 277.855 469.404C277.993 469.541 278.07 469.728 278.07 469.922V471.065H279.927V469.922C279.93 469.729 280.008 469.544 280.145 469.409C280.283 469.273 280.468 469.197 280.661 469.197C280.854 469.197 281.04 469.273 281.177 469.409C281.314 469.544 281.392 469.729 281.395 469.922V471.149C282.012 471.288 282.577 471.599 283.026 472.046C283.36 472.375 283.62 472.772 283.789 473.21C283.958 473.648 284.032 474.117 284.006 474.586C283.98 475.055 283.854 475.513 283.637 475.929C283.421 476.346 283.118 476.711 282.749 477.001C283.118 477.292 283.421 477.657 283.637 478.074C283.854 478.49 283.98 478.948 284.006 479.417C284.032 479.886 283.958 480.355 283.789 480.793C283.62 481.231 283.36 481.628 283.026 481.957C282.577 482.405 282.012 482.716 281.395 482.857V484.081C281.396 484.178 281.378 484.274 281.341 484.364C281.305 484.454 281.251 484.536 281.183 484.605C281.115 484.674 281.033 484.729 280.944 484.767C280.854 484.804 280.758 484.823 280.661 484.823C280.564 484.823 280.468 484.804 280.378 484.767C280.289 484.729 280.208 484.674 280.139 484.605C280.071 484.536 280.017 484.454 279.981 484.364C279.944 484.274 279.926 484.178 279.927 484.081V484.081ZM276.106 477.735V481.473H280.661C280.908 481.473 281.154 481.425 281.383 481.33C281.612 481.236 281.82 481.097 281.995 480.922C282.17 480.749 282.308 480.544 282.403 480.317C282.497 480.091 282.546 479.848 282.546 479.602C282.546 479.357 282.497 479.114 282.403 478.888C282.308 478.661 282.17 478.456 281.995 478.283C281.64 477.931 281.16 477.734 280.661 477.735H276.106V477.735ZM276.106 476.27H280.661C281.161 476.27 281.641 476.072 281.995 475.719C282.17 475.547 282.308 475.341 282.403 475.115C282.498 474.889 282.546 474.646 282.546 474.4C282.546 474.155 282.498 473.912 282.403 473.685C282.308 473.459 282.17 473.253 281.995 473.081C281.64 472.729 281.16 472.532 280.661 472.533H276.106V476.27Z" fill="#0192FE"/>
<g clip-path="url(#clip4_96_8)">
<path d="M72.8505 512.136C72.3745 512.137 71.9068 512.012 71.4945 511.774C71.0822 511.536 70.74 511.193 70.5023 510.781L65.2908 501.754L65.0986 501.865C64.5772 502.167 64.0015 502.362 63.4044 502.441C62.8072 502.52 62.2005 502.48 61.6187 502.324C61.037 502.168 60.4916 501.899 60.0139 501.533C59.5362 501.166 59.1354 500.708 58.8345 500.187L54.6135 492.876C54.0068 491.822 53.8428 490.571 54.1575 489.397C54.4721 488.222 55.2396 487.221 56.2917 486.612L61.3721 483.679C61.5634 483.57 61.7899 483.541 62.0023 483.599C62.2147 483.656 62.3956 483.796 62.5057 483.986C62.6157 484.177 62.6459 484.403 62.5896 484.616C62.5334 484.829 62.3953 485.011 62.2054 485.122L57.1251 488.055C56.7931 488.247 56.5022 488.502 56.2688 488.806C56.0355 489.11 55.8643 489.457 55.7651 489.827C55.6659 490.198 55.6406 490.584 55.6907 490.964C55.7407 491.344 55.8651 491.71 56.0567 492.042L60.2778 499.354C60.538 499.805 60.9145 500.178 61.3679 500.434C61.8101 500.684 62.3099 500.814 62.818 500.812C63.326 500.81 63.8248 500.676 64.2649 500.422L65.0056 499.994C66.8849 498.909 72.6037 495.607 72.6288 495.594C79.4822 492.085 87.0182 490.112 94.712 489.812C95.026 489.801 95.3316 489.708 95.5992 489.544C95.8668 489.379 96.0871 489.148 96.2388 488.873C96.3905 488.598 96.4683 488.288 96.4646 487.974C96.461 487.66 96.376 487.352 96.218 487.08L84.6552 467.054C84.4183 466.645 84.0323 466.344 83.5782 466.213C83.124 466.083 82.637 466.133 82.2192 466.354C81.9393 466.503 81.7037 466.723 81.5365 466.992C80.5239 468.598 79.4261 470.148 78.2478 471.636C77.091 473.096 75.858 474.493 74.5541 475.823C73.2695 477.133 71.918 478.375 70.5051 479.545C69.1091 480.699 67.6553 481.782 66.1494 482.789L71.1652 491.477C71.2383 491.604 71.2768 491.747 71.2768 491.893C71.2768 492.04 71.2384 492.183 71.1653 492.31C71.0923 492.437 70.9871 492.542 70.8605 492.615C70.7339 492.688 70.5903 492.727 70.4441 492.727C70.2977 492.727 70.1538 492.689 70.027 492.615C69.9002 492.542 69.7949 492.437 69.7217 492.31C69.6688 492.219 64.3361 482.983 64.3036 482.924C64.2035 482.739 64.1766 482.524 64.2282 482.321C64.2799 482.117 64.4063 481.941 64.5823 481.826C66.1473 480.813 67.6565 479.716 69.1032 478.54C70.5422 477.369 71.9169 476.122 73.2214 474.803C74.5236 473.484 75.7538 472.097 76.9064 470.646C78.0611 469.191 79.1364 467.675 80.1274 466.104C80.2924 465.841 80.4911 465.601 80.7184 465.39C80.9345 465.191 81.1753 465.02 81.4351 464.882C81.9514 464.61 82.5272 464.471 83.1107 464.476C83.6942 464.481 84.2672 464.632 84.7783 464.913C85.0455 465.061 85.2916 465.245 85.51 465.459C85.7403 465.685 85.9386 465.941 86.0994 466.221L89.3287 471.814C89.3888 471.791 89.4491 471.769 89.5079 471.749L90.3656 473.235C90.3031 473.249 90.2406 473.266 90.1781 473.284L93.5828 479.182C93.629 479.138 93.6749 479.091 93.7194 479.043L94.578 480.53C94.5295 480.573 94.4806 480.614 94.4321 480.654L97.6614 486.247C97.8201 486.521 97.9414 486.814 98.022 487.12C98.098 487.411 98.1355 487.709 98.1335 488.009C98.1277 488.593 97.9771 489.166 97.6953 489.677C97.4135 490.188 97.0093 490.621 96.5189 490.937C96.2664 491.099 95.9937 491.226 95.7079 491.317C95.4061 491.412 95.0929 491.466 94.7767 491.477C87.3322 491.769 80.0403 493.677 73.4068 497.068L66.7341 500.921L71.9456 509.948C72.014 510.066 72.1051 510.17 72.2137 510.254C72.3223 510.337 72.4463 510.398 72.5786 510.434C72.7109 510.469 72.8489 510.478 72.9847 510.46C73.1204 510.442 73.2514 510.398 73.3699 510.329L75.1978 509.274C75.3164 509.206 75.4205 509.114 75.5039 509.006C75.5873 508.897 75.6485 508.773 75.684 508.641C75.7194 508.509 75.7284 508.371 75.7105 508.235C75.6926 508.099 75.648 507.968 75.5794 507.85L71.8859 501.452C71.8128 501.325 71.7743 501.182 71.7743 501.036C71.7742 500.889 71.8127 500.746 71.8857 500.619C71.9587 500.492 72.0638 500.387 72.1904 500.314C72.3169 500.241 72.4605 500.202 72.6068 500.202C72.7532 500.202 72.897 500.24 73.0238 500.314C73.1507 500.387 73.256 500.492 73.3292 500.619L77.0227 507.016C77.2011 507.324 77.3169 507.664 77.3636 508.017C77.4102 508.37 77.3868 508.729 77.2947 509.072C77.2026 509.416 77.0436 509.738 76.8267 510.021C76.6099 510.303 76.3395 510.54 76.031 510.717L74.2032 511.772C73.792 512.01 73.3255 512.136 72.8505 512.136Z" fill="#546B81"/>
<path d="M100.988 480.155C100.775 480.098 100.593 479.958 100.482 479.766C100.372 479.575 100.342 479.348 100.399 479.134C100.456 478.921 100.596 478.739 100.788 478.628C100.979 478.518 101.206 478.488 101.42 478.545L103.382 479.071C103.578 479.123 103.747 479.244 103.86 479.412C103.973 479.58 104.02 479.784 103.994 479.984C103.967 480.185 103.869 480.369 103.717 480.502C103.565 480.636 103.369 480.709 103.167 480.709H103.143C103.021 480.709 103.001 480.694 100.988 480.155ZM93.7191 479.044C94.2321 478.495 94.5552 477.795 94.6407 477.049C94.7261 476.302 94.5695 475.548 94.1938 474.897C93.818 474.246 93.2432 473.734 92.5539 473.434C91.8647 473.135 91.0975 473.065 90.3656 473.235L89.5075 471.749C90.4727 471.422 91.5134 471.389 92.4972 471.655C96.4994 472.727 97.6498 477.839 94.5776 480.531L93.7191 479.044ZM99.0505 472.133C98.9958 472.038 98.9603 471.933 98.946 471.825C98.9317 471.716 98.9389 471.606 98.9673 471.5C98.9956 471.395 99.0445 471.296 99.1111 471.209C99.1777 471.122 99.2608 471.049 99.3556 470.994L101.512 469.749C101.607 469.693 101.712 469.656 101.821 469.641C101.93 469.625 102.041 469.632 102.148 469.66C102.255 469.688 102.355 469.736 102.443 469.803C102.53 469.87 102.604 469.954 102.659 470.049C102.714 470.145 102.75 470.25 102.764 470.36C102.778 470.469 102.77 470.58 102.741 470.687C102.712 470.793 102.662 470.892 102.594 470.979C102.526 471.066 102.441 471.139 102.345 471.193L100.189 472.438C99.9975 472.548 99.7701 472.578 99.5566 472.521C99.3431 472.464 99.1611 472.324 99.0506 472.133L99.0505 472.133ZM93.6613 467.464C93.5555 467.435 93.4564 467.387 93.3696 467.32C93.2827 467.253 93.2099 467.17 93.1551 467.075C93.1004 466.981 93.0649 466.876 93.0506 466.767C93.0364 466.659 93.0436 466.549 93.072 466.443L93.5978 464.481C93.655 464.267 93.7947 464.085 93.9861 463.975C94.1775 463.864 94.405 463.834 94.6185 463.891C94.832 463.949 95.0141 464.088 95.1246 464.28C95.2351 464.471 95.2651 464.699 95.2079 464.912L94.682 466.874C94.6537 466.98 94.6048 467.079 94.5382 467.166C94.4716 467.253 94.3885 467.326 94.2937 467.38C94.1989 467.435 94.0942 467.471 93.9857 467.485C93.8772 467.499 93.7669 467.492 93.6612 467.464L93.6613 467.464Z" fill="#0192FE"/>
<path d="M72.8504 512.137C72.3744 512.137 71.9067 512.012 71.4944 511.774C71.0822 511.536 70.7399 511.193 70.5022 510.781L65.4492 502.029L66.8318 501.09L71.9457 509.948C72.0141 510.066 72.1052 510.17 72.2138 510.254C72.3224 510.337 72.4464 510.398 72.5787 510.434C72.711 510.469 72.849 510.478 72.9848 510.46C73.1205 510.443 73.2515 510.398 73.37 510.329L75.1979 509.274C75.3165 509.206 75.4206 509.115 75.504 509.006C75.5874 508.897 75.6486 508.773 75.6841 508.641C75.7195 508.509 75.7285 508.371 75.7106 508.235C75.6927 508.099 75.6481 507.968 75.5795 507.85L71.8859 501.452C71.8128 501.326 71.7743 501.182 71.7742 501.036C71.7742 500.89 71.8126 500.746 71.8857 500.619C71.9587 500.493 72.0638 500.387 72.1904 500.314C72.3169 500.241 72.4605 500.202 72.6067 500.202C72.7532 500.202 72.897 500.24 73.0238 500.314C73.1506 500.387 73.256 500.492 73.3292 500.619L77.0227 507.016C77.201 507.324 77.3168 507.664 77.3634 508.017C77.4101 508.37 77.3867 508.729 77.2946 509.072C77.2025 509.416 77.0434 509.739 76.8266 510.021C76.6098 510.303 76.3394 510.54 76.031 510.717L74.2031 511.773C73.7919 512.01 73.3253 512.136 72.8503 512.136L72.8504 512.137Z" fill="#0192FE"/>
</g>
<g clip-path="url(#clip5_96_8)">
<path d="M33.7511 82C33.5908 81.9999 33.433 81.9605 33.2915 81.8853C33.15 81.8101 33.029 81.7014 32.9392 81.5686C32.8495 81.4358 32.7936 81.2831 32.7765 81.1237C32.7594 80.9644 32.7816 80.8032 32.8412 80.6544L47.6451 43.7146C46.7585 43.3957 46.0129 42.7742 45.5396 41.9595C45.0662 41.1449 44.8954 40.1894 45.0573 39.2612C45.2192 38.333 45.7033 37.4917 46.4245 36.8854C47.1457 36.2791 48.0577 35.9467 48.9999 35.9467C49.9421 35.9467 50.8541 36.2791 51.5753 36.8854C52.2965 37.4917 52.7806 38.333 52.9425 39.2612C53.1044 40.1894 52.9336 41.1449 52.4602 41.9595C51.9869 42.7742 51.2412 43.3957 50.3547 43.7146L65.1588 80.654C65.2067 80.7736 65.2306 80.9014 65.2292 81.0301C65.2277 81.1589 65.2009 81.2861 65.1502 81.4045C65.0996 81.5229 65.0261 81.6302 64.9341 81.7202C64.842 81.8102 64.733 81.8812 64.6135 81.9291C64.494 81.9771 64.3662 82.001 64.2374 81.9995C64.1086 81.998 63.9814 81.9712 63.863 81.9206C63.7446 81.8699 63.6373 81.7965 63.5473 81.7044C63.4573 81.6123 63.3863 81.5034 63.3384 81.3838L60.8039 75.0598H55.4454C55.1853 75.0598 54.9359 74.9565 54.752 74.7726C54.5681 74.5887 54.4648 74.3393 54.4648 74.0793C54.4648 73.8192 54.5681 73.5698 54.752 73.3859C54.9359 73.202 55.1853 73.0987 55.4454 73.0987H60.018L56.7287 64.891L40.8199 73.0987H47.5777C47.8378 73.0987 48.0872 73.202 48.2711 73.3859C48.455 73.5698 48.5583 73.8192 48.5583 74.0793C48.5583 74.3393 48.455 74.5887 48.2711 74.7726C48.0872 74.9565 47.8378 75.0598 47.5777 75.0598H37.1959L34.6615 81.3838C34.5886 81.5657 34.463 81.7216 34.3007 81.8315C34.1385 81.9413 33.9471 82.0001 33.7511 82.0001V82ZM41.4257 64.5053L38.3572 72.1624L53.1979 64.5053H41.4257ZM52.3874 54.0588L43.281 62.5443H55.7883L52.3874 54.0588ZM45.6655 53.926L43.2886 59.8564L49.6259 53.9513H45.8835C45.8103 53.9511 45.7373 53.9427 45.666 53.9261L45.6655 53.926ZM49 45.6057L46.4414 51.9896H51.5586L49 45.6057ZM49 37.8848C48.5941 37.8847 48.1973 38.005 47.8598 38.2305C47.5223 38.4559 47.2592 38.7764 47.1039 39.1514C46.9485 39.5263 46.9078 39.9389 46.9869 40.337C47.0661 40.7351 47.2615 41.1008 47.5484 41.3878C47.8354 41.6749 48.201 41.8704 48.5991 41.9496C48.9972 42.0288 49.4098 41.9882 49.7848 41.8329C50.1598 41.6777 50.4803 41.4147 50.7059 41.0772C50.9314 40.7397 51.0518 40.343 51.0518 39.9371C51.0511 39.3932 50.8347 38.8717 50.4501 38.4871C50.0655 38.1024 49.5441 37.886 49.0002 37.8852L49 37.8848ZM51.5125 75.0568C51.3082 75.0575 51.1088 74.9942 50.9424 74.8757C50.7788 74.7574 50.6554 74.5917 50.5889 74.4011C50.5224 74.2104 50.516 74.004 50.5705 73.8095C50.6269 73.617 50.7405 73.4461 50.8962 73.3196C51.052 73.1931 51.2425 73.1169 51.4426 73.1011C51.4655 73.0995 51.4887 73.0986 51.5114 73.0986C51.6646 73.098 51.8158 73.1333 51.9527 73.2019C52.0897 73.2705 52.2086 73.3703 52.2999 73.4934C52.3912 73.6164 52.4522 73.7592 52.4781 73.9101C52.504 74.0611 52.494 74.2161 52.4489 74.3625C52.3845 74.5798 52.246 74.7678 52.0575 74.8936C51.8959 75.0004 51.7064 75.0573 51.5127 75.057L51.5125 75.0568Z" fill="#546B81"/>
<path d="M63.1801 47.5873C62.9963 47.4033 62.893 47.1539 62.893 46.8939C62.893 46.6339 62.9963 46.3845 63.1801 46.2005C64.0026 45.3781 64.6551 44.4017 65.1002 43.3271C65.5454 42.2525 65.7745 41.1007 65.7745 39.9376C65.7745 38.7744 65.5454 37.6227 65.1002 36.5481C64.6551 35.4735 64.0026 34.4971 63.1801 33.6746C63.0024 33.4895 62.9043 33.242 62.9069 32.9854C62.9095 32.7288 63.0126 32.4834 63.1941 32.3019C63.3756 32.1204 63.621 32.0173 63.8776 32.0147C64.1343 32.0121 64.3817 32.1102 64.5669 32.2879C66.5956 34.3169 67.7353 37.0686 67.7353 39.9379C67.7353 42.8071 66.5956 45.5589 64.5669 47.5878C64.3829 47.7717 64.1335 47.8749 63.8735 47.8749C63.6135 47.8749 63.3641 47.7717 63.1801 47.5878V47.5873ZM33.4333 47.5873C32.4286 46.5827 31.6317 45.39 31.088 44.0775C30.5443 42.7649 30.2644 41.358 30.2644 39.9373C30.2644 38.5165 30.5443 37.1097 31.088 35.7971C31.6317 34.4845 32.4286 33.2919 33.4333 32.2873C33.6172 32.1034 33.8666 32.0001 34.1266 32.0001C34.3867 32.0001 34.6361 32.1034 34.82 32.2873C35.0039 32.4712 35.1072 32.7206 35.1072 32.9807C35.1072 33.2407 35.0039 33.4901 34.82 33.674C33.9975 34.4965 33.3451 35.473 32.8999 36.5476C32.4548 37.6222 32.2257 38.774 32.2257 39.9372C32.2257 41.1004 32.4548 42.2522 32.8999 43.3268C33.3451 44.4014 33.9975 45.3779 34.82 46.2004C34.9994 46.3852 35.099 46.6331 35.0971 46.8907C35.0952 47.1483 34.992 47.3948 34.8099 47.577C34.6277 47.7591 34.3812 47.8623 34.1237 47.8642C33.8661 47.866 33.6181 47.7665 33.4333 47.5871V47.5873ZM58.874 45.6976C58.6902 45.5137 58.5869 45.2643 58.5869 45.0043C58.5869 44.7442 58.6902 44.4948 58.874 44.3109C59.4483 43.7366 59.9039 43.0547 60.2148 42.3043C60.5256 41.5539 60.6856 40.7496 60.6856 39.9374C60.6856 39.1251 60.5256 38.3209 60.2148 37.5705C59.9039 36.82 59.4483 36.1382 58.874 35.5639C58.7807 35.4733 58.7064 35.3651 58.6553 35.2456C58.6043 35.126 58.5775 34.9975 58.5765 34.8675C58.5756 34.7375 58.6005 34.6087 58.6498 34.4884C58.6991 34.3681 58.7718 34.2588 58.8637 34.1669C58.9557 34.075 59.0649 34.0022 59.1852 33.9529C59.3055 33.9036 59.4344 33.8787 59.5644 33.8797C59.6944 33.8806 59.8229 33.9074 59.9424 33.9585C60.062 34.0096 60.1702 34.0839 60.2607 34.1772C61.7862 35.706 62.6428 37.7776 62.6428 39.9373C62.6428 42.097 61.7862 44.1685 60.2607 45.6974C60.1697 45.7885 60.0616 45.8608 59.9426 45.9101C59.8237 45.9594 59.6961 45.9848 59.5674 45.9848C59.4386 45.9848 59.3111 45.9594 59.1921 45.9101C59.0731 45.8608 58.965 45.7885 58.874 45.6974V45.6976ZM37.7392 45.6976C36.2138 44.1687 35.3572 42.0972 35.3572 39.9375C35.3572 37.7778 36.2138 35.7062 37.7392 34.1774C37.8296 34.0832 37.9378 34.0081 38.0576 33.9563C38.1774 33.9046 38.3062 33.8772 38.4367 33.8759C38.5672 33.8745 38.6966 33.8993 38.8174 33.9486C38.9382 33.9979 39.0479 34.0708 39.1402 34.1631C39.2325 34.2553 39.3054 34.3651 39.3547 34.4859C39.404 34.6067 39.4287 34.7361 39.4274 34.8666C39.4261 34.997 39.3987 35.1259 39.347 35.2457C39.2952 35.3655 39.2201 35.4737 39.1259 35.5641C38.5516 36.1384 38.096 36.8202 37.7852 37.5705C37.4743 38.3209 37.3143 39.1252 37.3143 39.9374C37.3143 40.7496 37.4743 41.5539 37.7852 42.3042C38.096 43.0546 38.5516 43.7364 39.1259 44.3107C39.2192 44.4013 39.2935 44.5095 39.3446 44.629C39.3957 44.7486 39.4224 44.8771 39.4234 45.0071C39.4244 45.137 39.3995 45.2659 39.3501 45.3862C39.3008 45.5065 39.2281 45.6158 39.1362 45.7077C39.0443 45.7996 38.935 45.8723 38.8147 45.9216C38.6944 45.9709 38.5656 45.9958 38.4356 45.9949C38.3056 45.9939 38.1771 45.9671 38.0575 45.9161C37.938 45.865 37.8298 45.7907 37.7392 45.6974V45.6976ZM54.5677 43.8083C54.3838 43.6244 54.2805 43.375 54.2805 43.1149C54.2805 42.8549 54.3838 42.6055 54.5677 42.4216C55.2256 41.7624 55.5952 40.8692 55.5952 39.9378C55.5952 39.0065 55.2256 38.1132 54.5677 37.4541C54.4736 37.3637 54.3984 37.2555 54.3466 37.1357C54.2949 37.016 54.2675 36.8871 54.2662 36.7566C54.2649 36.6261 54.2896 36.4967 54.3389 36.3759C54.3882 36.2551 54.4611 36.1454 54.5534 36.0531C54.6457 35.9609 54.7554 35.8879 54.8762 35.8386C54.997 35.7893 55.1264 35.7646 55.2569 35.7659C55.3874 35.7672 55.5163 35.7946 55.636 35.8464C55.7558 35.8981 55.864 35.9733 55.9544 36.0674C56.9794 37.0947 57.5551 38.4867 57.5551 39.938C57.5551 41.3892 56.9794 42.7812 55.9544 43.8086C55.8633 43.8996 55.7553 43.9719 55.6363 44.0212C55.5173 44.0705 55.3898 44.0958 55.261 44.0958C55.1323 44.0958 55.0047 44.0705 54.8858 44.0212C54.7668 43.9719 54.6587 43.8996 54.5677 43.8086V43.8083ZM42.0456 43.8083C41.0205 42.7809 40.4448 41.3889 40.4448 39.9377C40.4448 38.4864 41.0205 37.0944 42.0456 36.0671C42.2304 35.8876 42.4783 35.7881 42.7359 35.79C42.9935 35.7919 43.24 35.8951 43.4222 36.0772C43.6043 36.2593 43.7075 36.5058 43.7094 36.7634C43.7112 37.021 43.6117 37.269 43.4323 37.4538C42.7743 38.1129 42.4047 39.0062 42.4047 39.9375C42.4047 40.8689 42.7743 41.7621 43.4323 42.4213C43.61 42.6064 43.7081 42.8538 43.7055 43.1105C43.7029 43.3671 43.5998 43.6125 43.4183 43.794C43.2368 43.9755 42.9914 44.0786 42.7348 44.0812C42.4781 44.0838 42.2307 43.9857 42.0456 43.808V43.8083Z" fill="#0192FE"/>
</g>
<path d="M106.969 333H85.7187C84.835 332.999 83.9877 332.647 83.3628 332.023C82.7379 331.398 82.3864 330.55 82.3854 329.667V286.333C82.3864 285.45 82.7379 284.602 83.3628 283.977C83.9877 283.353 84.835 283.001 85.7187 283H88.6354C88.8563 283 89.0681 283.088 89.2244 283.244C89.3806 283.401 89.4685 283.612 89.4687 283.833V285.771C89.469 285.992 89.5568 286.204 89.7131 286.36C89.8693 286.516 90.0811 286.604 90.302 286.604H102.385C102.606 286.604 102.818 286.692 102.975 286.848C103.131 287.005 103.219 287.216 103.219 287.437C103.219 287.659 103.131 287.87 102.975 288.027C102.818 288.183 102.606 288.271 102.385 288.271H90.302C89.6392 288.27 89.0038 288.006 88.5351 287.538C88.0664 287.069 87.8028 286.434 87.802 285.771V284.667H85.7187C85.2768 284.667 84.8532 284.843 84.5407 285.155C84.2283 285.468 84.0525 285.891 84.052 286.333V329.667C84.0525 330.109 84.2283 330.532 84.5407 330.845C84.8532 331.157 85.2768 331.333 85.7187 331.333H106.969C107.411 331.333 107.834 331.157 108.147 330.845C108.459 330.532 108.635 330.109 108.635 329.667V316.438C108.635 316.216 108.723 316.005 108.879 315.848C109.036 315.692 109.248 315.604 109.469 315.604C109.69 315.604 109.902 315.692 110.058 315.848C110.214 316.005 110.302 316.216 110.302 316.438V329.667C110.301 330.55 109.95 331.398 109.325 332.023C108.7 332.647 107.852 332.999 106.969 333ZM98.5312 329.25H94.1562C93.9352 329.25 93.7232 329.162 93.567 329.006C93.4107 328.85 93.3229 328.638 93.3229 328.417C93.3229 328.196 93.4107 327.984 93.567 327.827C93.7232 327.671 93.9352 327.583 94.1562 327.583H98.5312C98.7522 327.583 98.9642 327.671 99.1205 327.827C99.2767 327.984 99.3645 328.196 99.3645 328.417C99.3645 328.638 99.2767 328.85 99.1205 329.006C98.9642 329.162 98.7522 329.25 98.5312 329.25ZM110.302 294.251H108.635V286.333C108.635 285.891 108.459 285.468 108.147 285.155C107.834 284.843 107.411 284.667 106.969 284.667H93.4375C93.2164 284.667 93.0045 284.579 92.8482 284.423C92.6919 284.266 92.6041 284.054 92.6041 283.833C92.6041 283.612 92.6919 283.4 92.8482 283.244C93.0045 283.088 93.2164 283 93.4375 283H106.969C107.852 283.001 108.7 283.353 109.325 283.977C109.95 284.602 110.301 285.45 110.302 286.333V294.251Z" fill="#546B81"/>
<path d="M97.0937 316.786C96.6244 316.785 96.1557 316.75 95.6916 316.681C95.5227 316.655 95.3657 316.578 95.2419 316.461C95.1181 316.343 95.0333 316.19 94.9992 316.023C94.965 315.855 94.9831 315.682 95.0509 315.525C95.1187 315.368 95.2331 315.236 95.3784 315.146C96.2351 314.622 96.9388 313.882 97.4191 313H95.4857C94.5532 312.999 93.6592 312.628 92.9999 311.969C92.3406 311.31 91.9697 310.416 91.9688 309.483V298.08C91.9698 297.147 92.3406 296.253 93 295.594C93.6593 294.934 94.5533 294.564 95.4857 294.563H108.635V294.251H110.302V295.396C110.302 295.617 110.214 295.829 110.058 295.985C109.902 296.141 109.69 296.229 109.469 296.229H95.4856C94.9951 296.23 94.5248 296.425 94.178 296.772C93.8311 297.119 93.636 297.589 93.6354 298.08V309.483C93.636 309.974 93.8311 310.444 94.178 310.791C94.5248 311.138 94.9951 311.333 95.4856 311.333H98.6633C98.7932 311.333 98.9212 311.364 99.0373 311.422C99.1533 311.48 99.2541 311.565 99.3317 311.669C99.4092 311.773 99.4613 311.894 99.4839 312.022C99.5064 312.15 99.4988 312.281 99.4616 312.406C99.1697 313.38 98.6777 314.283 98.017 315.057C100.083 314.786 101.814 313.62 102.692 311.804C102.76 311.663 102.867 311.544 102.999 311.461C103.132 311.378 103.285 311.333 103.442 311.333H112.097C112.588 311.333 113.058 311.138 113.405 310.791C113.752 310.444 113.947 309.974 113.948 309.483V298.079C113.948 297.639 113.791 297.213 113.504 296.878C113.432 296.795 113.377 296.698 113.342 296.594C113.307 296.489 113.293 296.379 113.301 296.269C113.309 296.159 113.339 296.052 113.389 295.954C113.438 295.856 113.507 295.768 113.591 295.697C113.674 295.625 113.771 295.571 113.876 295.537C113.981 295.503 114.091 295.49 114.201 295.499C114.311 295.508 114.418 295.539 114.515 295.59C114.613 295.64 114.7 295.71 114.771 295.794C115.315 296.431 115.614 297.242 115.615 298.08V309.483C115.614 310.416 115.243 311.309 114.583 311.969C113.924 312.628 113.03 312.999 112.098 313H103.944C102.589 315.361 100.043 316.786 97.0944 316.786L97.0937 316.786Z" fill="#0192FE"/>
<path d="M94.1562 329.25C93.9352 329.25 93.7232 329.162 93.567 329.006C93.4107 328.85 93.3229 328.638 93.3229 328.417C93.3229 328.196 93.4107 327.984 93.567 327.827C93.7232 327.671 93.9352 327.583 94.1562 327.583H98.5312C98.7522 327.583 98.9642 327.671 99.1205 327.827C99.2767 327.984 99.3645 328.196 99.3645 328.417C99.3645 328.638 99.2767 328.85 99.1205 329.006C98.9642 329.162 98.7522 329.25 98.5312 329.25H94.1562Z" fill="#0292FE"/>
<g clip-path="url(#clip6_96_8)">
<path d="M323.291 64.9904H276.709C276.256 64.9899 275.822 64.8096 275.501 64.4893C275.181 64.1689 275.001 63.7345 275 63.2814V60.84C275.001 60.3869 275.181 59.9525 275.501 59.6321C275.822 59.3118 276.256 59.1315 276.709 59.131H278.284L280.859 55.5056V37.5309L278.284 33.9058C277.781 33.9604 277.271 33.8835 276.806 33.6828C276.448 33.5291 276.123 33.3076 275.849 33.0304C275.584 32.7639 275.371 32.449 275.224 32.1027C275.073 31.7466 274.996 31.3631 275 30.9761V28.7789C274.998 28.6316 275.043 28.4875 275.128 28.3677C275.197 28.2726 275.284 28.193 275.385 28.1341L285.986 22.2568C286.156 22.1627 286.357 22.1398 286.543 22.1934C286.73 22.2469 286.888 22.3724 286.982 22.5423C287.076 22.7122 287.099 22.9125 287.046 23.0993C286.992 23.286 286.866 23.4438 286.697 23.538L278.565 28.0465H321.436L301.066 16.7535C300.74 16.5716 300.373 16.4762 300 16.4762C299.627 16.4762 299.26 16.5716 298.935 16.7535L289.72 21.8621C289.55 21.9563 289.35 21.9791 289.163 21.9256C288.976 21.8721 288.818 21.7466 288.724 21.5767C288.63 21.4068 288.607 21.2064 288.661 21.0197C288.714 20.833 288.84 20.6752 289.01 20.581L298.224 15.4724C298.498 15.3206 298.789 15.2041 299.092 15.1256C299.688 14.9715 300.313 14.9715 300.908 15.1256C301.211 15.2041 301.503 15.3206 301.776 15.4724L324.615 28.1342C324.732 28.1967 324.829 28.2896 324.897 28.4032C324.965 28.5167 325.001 28.6465 325 28.7787V30.976C325.006 31.3487 324.936 31.7188 324.796 32.0641C324.655 32.4095 324.447 32.7231 324.183 32.9865C323.581 33.5824 322.767 33.9151 321.92 33.9119C321.851 33.9119 321.783 33.9097 321.716 33.9055L319.141 37.5309V55.5056L321.716 59.1307H323.291C323.744 59.1312 324.178 59.3114 324.499 59.6318C324.819 59.9522 324.999 60.3866 325 60.8397V63.2811C324.999 63.7343 324.819 64.1687 324.499 64.4892C324.178 64.8096 323.744 64.9899 323.291 64.9904ZM276.709 60.5959C276.644 60.5959 276.582 60.6216 276.536 60.6674C276.491 60.7132 276.465 60.7752 276.465 60.84V63.2814C276.465 63.3461 276.491 63.4082 276.536 63.454C276.582 63.4998 276.644 63.5255 276.709 63.5255H323.291C323.356 63.5255 323.418 63.4998 323.464 63.454C323.509 63.4082 323.535 63.3461 323.535 63.2814V60.84C323.535 60.7752 323.509 60.7132 323.464 60.6674C323.418 60.6216 323.356 60.5959 323.291 60.5959H276.709ZM312.902 56.4721L311.014 59.131H319.919L318.03 56.472H312.903L312.902 56.4721ZM290.783 33.9062L288.208 37.5313V55.5056L290.784 59.131H309.217L311.792 55.5059V49.8331C311.792 49.6389 311.869 49.4526 312.006 49.3152C312.144 49.1779 312.33 49.1007 312.524 49.1007C312.719 49.1007 312.905 49.1779 313.042 49.3152C313.18 49.4526 313.257 49.6389 313.257 49.8331V55.0073H317.676V38.0296H313.257V46.4149C313.257 46.6091 313.18 46.7954 313.042 46.9328C312.905 47.0701 312.719 47.1473 312.524 47.1473C312.33 47.1473 312.144 47.0701 312.006 46.9328C311.869 46.7954 311.792 46.6091 311.792 46.4149V37.5309L309.217 33.9058L290.783 33.9062ZM281.97 56.4718L280.081 59.131H288.987L287.098 56.472L281.97 56.4718ZM282.324 38.0296V55.0069H286.743V38.0296H282.324ZM311.013 33.9058L312.902 36.5649H318.03L319.919 33.9058H311.013ZM280.081 33.9058L281.97 36.5649H287.098L288.987 33.9058H280.081ZM276.465 29.5113V30.9761C276.465 31.3645 276.62 31.7368 276.894 32.0115C277.169 32.2861 277.541 32.4405 277.93 32.441H322.07C322.458 32.4405 322.831 32.2861 323.105 32.0115C323.38 31.7368 323.535 31.3645 323.535 30.9761V29.5113H276.465ZM300 54.9106C298.34 54.9106 296.717 54.4185 295.337 53.4963C293.957 52.5742 292.881 51.2635 292.246 49.73C291.611 48.1965 291.445 46.509 291.769 44.8811C292.092 43.2531 292.892 41.7577 294.065 40.584C295.239 39.4103 296.735 38.611 298.362 38.2872C299.99 37.9634 301.678 38.1296 303.211 38.7647C304.745 39.3999 306.056 40.4756 306.978 41.8557C307.9 43.2358 308.392 44.8584 308.392 46.5183C308.39 48.7433 307.505 50.8764 305.931 52.4497C304.358 54.023 302.225 54.908 300 54.9106H300ZM296.642 40.0002L296.46 40.5658C295.445 41.1723 294.601 42.0265 294.006 43.0482C293.192 44.4561 292.9 46.1056 293.181 47.7074C293.462 49.3091 294.298 50.7608 295.542 51.8077C296.787 52.8545 298.36 53.4298 299.986 53.4324C301.613 53.435 303.188 52.8649 304.436 51.8221C305.683 50.7793 306.524 49.3303 306.81 47.7295C307.097 46.1287 306.81 44.4782 306.001 43.0676C305.191 41.6571 303.911 40.5766 302.385 40.0157C300.858 39.4548 299.183 39.4494 297.653 40.0003H296.642V40.0002Z" fill="#546B81"/>
<path d="M300 51.7287C300.207 51.7287 300.406 51.6464 300.552 51.4999C300.699 51.3534 300.781 51.1547 300.781 50.9475V50.4145C301.98 50.1295 302.861 49.2066 302.861 48.1143C302.861 46.2926 301.234 45.9593 300.157 45.7388C298.883 45.4779 298.702 45.3243 298.702 44.894C298.702 44.5018 299.235 44.065 300.001 44.065C300.488 44.065 300.948 44.256 301.173 44.5516C301.234 44.6338 301.312 44.7029 301.401 44.7551C301.489 44.8073 301.587 44.8414 301.689 44.8556C301.791 44.8697 301.895 44.8636 301.994 44.8376C302.094 44.8116 302.187 44.7662 302.269 44.704C302.351 44.6418 302.42 44.5641 302.472 44.4752C302.523 44.3863 302.557 44.2881 302.571 44.1862C302.585 44.0842 302.578 43.9806 302.552 43.8812C302.525 43.7818 302.48 43.6886 302.417 43.6069C302.006 43.089 301.428 42.7303 300.782 42.5923V42.0608C300.782 41.8536 300.699 41.6549 300.553 41.5084C300.406 41.3619 300.208 41.2795 300 41.2795C299.793 41.2795 299.594 41.3619 299.448 41.5084C299.301 41.6549 299.219 41.8536 299.219 42.0608V42.5938C298.02 42.8788 297.139 43.8017 297.139 44.894C297.139 46.7157 298.766 47.049 299.843 47.2695C301.118 47.5304 301.298 47.684 301.298 48.1143C301.298 48.5065 300.765 48.9433 300 48.9433C299.512 48.9433 299.052 48.7523 298.828 48.4567C298.766 48.3745 298.688 48.3053 298.6 48.2532C298.511 48.201 298.413 48.1669 298.311 48.1527C298.209 48.1385 298.106 48.1446 298.006 48.1706C297.907 48.1966 297.813 48.242 297.731 48.3042C297.649 48.3664 297.58 48.4442 297.529 48.5331C297.477 48.6219 297.443 48.7201 297.429 48.8221C297.416 48.924 297.422 49.0277 297.449 49.1271C297.475 49.2265 297.521 49.3197 297.583 49.4014C297.994 49.9192 298.572 50.2779 299.219 50.4159V50.9475C299.219 51.1547 299.301 51.3534 299.448 51.4999C299.594 51.6464 299.793 51.7287 300 51.7287Z" fill="#0192FE"/>
<path d="M296.631 22.8021C296.631 22.1358 296.828 21.4844 297.199 20.9303C297.569 20.3763 298.095 19.9444 298.711 19.6894C299.326 19.4344 300.004 19.3677 300.657 19.4977C301.311 19.6277 301.911 19.9486 302.382 20.4198C302.853 20.891 303.174 21.4913 303.304 22.1448C303.434 22.7984 303.368 23.4758 303.113 24.0914C302.858 24.7071 302.426 25.2332 301.872 25.6034C301.318 25.9736 300.666 26.1712 300 26.1712C299.107 26.1702 298.25 25.8149 297.619 25.1833C296.987 24.5517 296.632 23.6953 296.631 22.8021ZM298.096 22.8021C298.096 23.1787 298.207 23.5469 298.417 23.8601C298.626 24.1732 298.923 24.4173 299.271 24.5614C299.619 24.7056 300.002 24.7433 300.371 24.6698C300.741 24.5963 301.08 24.415 301.347 24.1486C301.613 23.8823 301.794 23.543 301.868 23.1736C301.941 22.8042 301.903 22.4213 301.759 22.0734C301.615 21.7254 301.371 21.428 301.058 21.2188C300.745 21.0095 300.377 20.8978 300 20.8978C299.495 20.8984 299.011 21.0992 298.654 21.4562C298.297 21.8132 298.096 22.2972 298.096 22.8021Z" fill="#0192FE"/>
</g>
<defs>
<filter id="filter0_d_96_8" x="526" y="425" width="108" height="108" filterUnits="userSpaceOnUse" color-interpolation-filters="sRGB">
<feFlood flood-opacity="0" result="BackgroundImageFix"/>
<feColorMatrix in="SourceAlpha" type="matrix" values="0 0 0 0 0 0 0 0 0 0 0 0 0 0 0 0 0 0 127 0" result="hardAlpha"/>
<feOffset dy="4"/>
<feGaussianBlur stdDeviation="2"/>
<feComposite in2="hardAlpha" operator="out"/>
<feColorMatrix type="matrix" values="0 0 0 0 0 0 0 0 0 0 0 0 0 0 0 0 0 0 0.25 0"/>
<feBlend mode="normal" in2="BackgroundImageFix" result="effect1_dropShadow_96_8"/>
<feBlend mode="normal" in="SourceGraphic" in2="effect1_dropShadow_96_8" result="shape"/>
</filter>
<filter id="filter1_d_96_8" x="0" y="12" width="98" height="98" filterUnits="userSpaceOnUse" color-interpolation-filters="sRGB">
<feFlood flood-opacity="0" result="BackgroundImageFix"/>
<feColorMatrix in="SourceAlpha" type="matrix" values="0 0 0 0 0 0 0 0 0 0 0 0 0 0 0 0 0 0 127 0" result="hardAlpha"/>
<feOffset dy="4"/>
<feGaussianBlur stdDeviation="2"/>
<feComposite in2="hardAlpha" operator="out"/>
<feColorMatrix type="matrix" values="0 0 0 0 0 0 0 0 0 0 0 0 0 0 0 0 0 0 0.25 0"/>
<feBlend mode="normal" in2="BackgroundImageFix" result="effect1_dropShadow_96_8"/>
<feBlend mode="normal" in="SourceGraphic" in2="effect1_dropShadow_96_8" result="shape"/>
</filter>
<filter id="filter2_d_96_8" x="576" y="108" width="108" height="108" filterUnits="userSpaceOnUse" color-interpolation-filters="sRGB">
<feFlood flood-opacity="0" result="BackgroundImageFix"/>
<feColorMatrix in="SourceAlpha" type="matrix" values="0 0 0 0 0 0 0 0 0 0 0 0 0 0 0 0 0 0 127 0" result="hardAlpha"/>
<feOffset dy="4"/>
<feGaussianBlur stdDeviation="2"/>
<feComposite in2="hardAlpha" operator="out"/>
<feColorMatrix type="matrix" values="0 0 0 0 0 0 0 0 0 0 0 0 0 0 0 0 0 0 0.25 0"/>
<feBlend mode="normal" in2="BackgroundImageFix" result="effect1_dropShadow_96_8"/>
<feBlend mode="normal" in="SourceGraphic" in2="effect1_dropShadow_96_8" result="shape"/>
</filter>
<filter id="filter3_d_96_8" x="25" y="436" width="108" height="108" filterUnits="userSpaceOnUse" color-interpolation-filters="sRGB">
<feFlood flood-opacity="0" result="BackgroundImageFix"/>
<feColorMatrix in="SourceAlpha" type="matrix" values="0 0 0 0 0 0 0 0 0 0 0 0 0 0 0 0 0 0 127 0" result="hardAlpha"/>
<feOffset dy="4"/>
<feGaussianBlur stdDeviation="2"/>
<feComposite in2="hardAlpha" operator="out"/>
<feColorMatrix type="matrix" values="0 0 0 0 0 0 0 0 0 0 0 0 0 0 0 0 0 0 0.25 0"/>
<feBlend mode="normal" in2="BackgroundImageFix" result="effect1_dropShadow_96_8"/>
<feBlend mode="normal" in="SourceGraphic" in2="effect1_dropShadow_96_8" result="shape"/>
</filter>
<filter id="filter4_d_96_8" x="223" y="425" width="108" height="108" filterUnits="userSpaceOnUse" color-interpolation-filters="sRGB">
<feFlood flood-opacity="0" result="BackgroundImageFix"/>
<feColorMatrix in="SourceAlpha" type="matrix" values="0 0 0 0 0 0 0 0 0 0 0 0 0 0 0 0 0 0 127 0" result="hardAlpha"/>
<feOffset dy="4"/>
<feGaussianBlur stdDeviation="2"/>
<feComposite in2="hardAlpha" operator="out"/>
<feColorMatrix type="matrix" values="0 0 0 0 0 0 0 0 0 0 0 0 0 0 0 0 0 0 0.25 0"/>
<feBlend mode="normal" in2="BackgroundImageFix" result="effect1_dropShadow_96_8"/>
<feBlend mode="normal" in="SourceGraphic" in2="effect1_dropShadow_96_8" result="shape"/>
</filter>
<filter id="filter5_d_96_8" x="44" y="261" width="108" height="108" filterUnits="userSpaceOnUse" color-interpolation-filters="sRGB">
<feFlood flood-opacity="0" result="BackgroundImageFix"/>
<feColorMatrix in="SourceAlpha" type="matrix" values="0 0 0 0 0 0 0 0 0 0 0 0 0 0 0 0 0 0 127 0" result="hardAlpha"/>
<feOffset dy="4"/>
<feGaussianBlur stdDeviation="2"/>
<feComposite in2="hardAlpha" operator="out"/>
<feColorMatrix type="matrix" values="0 0 0 0 0 0 0 0 0 0 0 0 0 0 0 0 0 0 0.25 0"/>
<feBlend mode="normal" in2="BackgroundImageFix" result="effect1_dropShadow_96_8"/>
<feBlend mode="normal" in="SourceGraphic" in2="effect1_dropShadow_96_8" result="shape"/>
</filter>
<filter id="filter6_d_96_8" x="75" y="90" width="108" height="108" filterUnits="userSpaceOnUse" color-interpolation-filters="sRGB">
<feFlood flood-opacity="0" result="BackgroundImageFix"/>
<feColorMatrix in="SourceAlpha" type="matrix" values="0 0 0 0 0 0 0 0 0 0 0 0 0 0 0 0 0 0 127 0" result="hardAlpha"/>
<feOffset dy="4"/>
<feGaussianBlur stdDeviation="2"/>
<feComposite in2="hardAlpha" operator="out"/>
<feColorMatrix type="matrix" values="0 0 0 0 0 0 0 0 0 0 0 0 0 0 0 0 0 0 0.25 0"/>
<feBlend mode="normal" in2="BackgroundImageFix" result="effect1_dropShadow_96_8"/>
<feBlend mode="normal" in="SourceGraphic" in2="effect1_dropShadow_96_8" result="shape"/>
</filter>
<filter id="filter7_d_96_8" x="251" y="0" width="98" height="98" filterUnits="userSpaceOnUse" color-interpolation-filters="sRGB">
<feFlood flood-opacity="0" result="BackgroundImageFix"/>
<feColorMatrix in="SourceAlpha" type="matrix" values="0 0 0 0 0 0 0 0 0 0 0 0 0 0 0 0 0 0 127 0" result="hardAlpha"/>
<feOffset dy="4"/>
<feGaussianBlur stdDeviation="2"/>
<feComposite in2="hardAlpha" operator="out"/>
<feColorMatrix type="matrix" values="0 0 0 0 0 0 0 0 0 0 0 0 0 0 0 0 0 0 0.25 0"/>
<feBlend mode="normal" in2="BackgroundImageFix" result="effect1_dropShadow_96_8"/>
<feBlend mode="normal" in="SourceGraphic" in2="effect1_dropShadow_96_8" result="shape"/>
</filter>
<filter id="filter8_d_96_8" x="434" y="59" width="98" height="98" filterUnits="userSpaceOnUse" color-interpolation-filters="sRGB">
<feFlood flood-opacity="0" result="BackgroundImageFix"/>
<feColorMatrix in="SourceAlpha" type="matrix" values="0 0 0 0 0 0 0 0 0 0 0 0 0 0 0 0 0 0 127 0" result="hardAlpha"/>
<feOffset dy="4"/>
<feGaussianBlur stdDeviation="2"/>
<feComposite in2="hardAlpha" operator="out"/>
<feColorMatrix type="matrix" values="0 0 0 0 0 0 0 0 0 0 0 0 0 0 0 0 0 0 0.25 0"/>
<feBlend mode="normal" in2="BackgroundImageFix" result="effect1_dropShadow_96_8"/>
<feBlend mode="normal" in="SourceGraphic" in2="effect1_dropShadow_96_8" result="shape"/>
</filter>
<filter id="filter9_d_96_8" x="480" y="257" width="108" height="108" filterUnits="userSpaceOnUse" color-interpolation-filters="sRGB">
<feFlood flood-opacity="0" result="BackgroundImageFix"/>
<feColorMatrix in="SourceAlpha" type="matrix" values="0 0 0 0 0 0 0 0 0 0 0 0 0 0 0 0 0 0 127 0" result="hardAlpha"/>
<feOffset dy="4"/>
<feGaussianBlur stdDeviation="2"/>
<feComposite in2="hardAlpha" operator="out"/>
<feColorMatrix type="matrix" values="0 0 0 0 0 0 0 0 0 0 0 0 0 0 0 0 0 0 0.25 0"/>
<feBlend mode="normal" in2="BackgroundImageFix" result="effect1_dropShadow_96_8"/>
<feBlend mode="normal" in="SourceGraphic" in2="effect1_dropShadow_96_8" result="shape"/>
</filter>
<clipPath id="clip0_96_8">
<rect width="50" height="50" fill="white" transform="translate(555 448)"/>
</clipPath>
<clipPath id="clip1_96_8">
<rect width="50" height="50" fill="white" transform="translate(605 132)"/>
</clipPath>
<clipPath id="clip2_96_8">
<rect width="50" height="50" fill="white" transform="translate(99 119)"/>
</clipPath>
<clipPath id="clip3_96_8">
<rect width="50" height="50" fill="white" transform="translate(457 77)"/>
</clipPath>
<clipPath id="clip4_96_8">
<rect width="50" height="50" fill="white" transform="translate(54 463)"/>
</clipPath>
<clipPath id="clip5_96_8">
<rect width="50" height="50" fill="white" transform="translate(24 32)"/>
</clipPath>
<clipPath id="clip6_96_8">
<rect width="50" height="50" fill="white" transform="translate(275 15)"/>
</clipPath>
</defs>
</svg>
