<svg width="108" height="100" viewBox="0 0 108 100" fill="none" xmlns="http://www.w3.org/2000/svg">
<path d="M108 0H0V100H108V0Z" fill="#A1E3FF"/>
<path d="M72.5486 78.1254C74.724 81.4143 77.5543 83.8317 82.56 83.8317C86.7652 83.8317 89.4514 81.8857 89.4514 79.1968C89.4514 75.9746 86.6914 74.8333 82.0629 72.9587L79.5257 71.9508C72.2023 69.0619 67.3372 65.4429 67.3372 57.7921C67.3372 50.7444 73.1366 45.3794 82.2 45.3794C88.6526 45.3794 93.2914 47.4587 96.6343 52.9032L88.7314 57.6016C86.9914 54.7127 85.1143 53.5746 82.2 53.5746C79.2274 53.5746 77.3434 55.3206 77.3434 57.6016C77.3434 60.4206 79.2291 61.5619 83.5834 63.3079L86.1206 64.3143C94.7434 67.7381 99.612 71.2286 99.612 79.0762C99.612 87.5365 92.4343 92.1714 82.7949 92.1714C73.3697 92.1714 67.2806 88.0127 64.3012 82.5619L72.5486 78.1254ZM36.6977 78.9397C38.292 81.5587 39.7423 83.773 43.2292 83.773C46.5634 83.773 48.6669 82.5651 48.6669 77.8683V45.9159H58.8154V77.9952C58.8154 87.7254 52.6543 92.154 43.6612 92.154C35.5354 92.154 30.8297 88.2603 28.4366 83.5706L36.6977 78.9397Z" fill="#008BB7"/>
</svg>
