<svg width="100" height="100" viewBox="0 0 100 100" fill="none" xmlns="http://www.w3.org/2000/svg">
<path d="M54.2408 1.06224C51.5243 -0.357268 47.9828 -0.350885 45.2639 1.06224C41.9129 2.78044 38.562 4.49877 35.211 6.21712C24.9445 11.4816 14.6777 16.7463 4.40953 22.008C1.75933 23.3034 -0.0281733 25.9477 0.000336138 28.6924V70.88C-0.0188003 73.6782 1.86087 76.3481 4.57942 77.6258C6.05527 78.3553 7.51528 79.1127 8.9752 79.8701C11.3851 81.1204 13.7947 82.3705 16.2749 83.4946C20.8755 85.5949 26.6312 86.0594 31.288 83.869C35.0681 82.0534 36.747 78.0158 36.7423 74.3052C36.7616 65.5113 36.7584 56.7172 36.7552 47.9232C36.7533 42.794 36.7514 37.6648 36.754 32.5357C36.8439 31.9169 36.344 31.2555 35.6176 31.2704C33.8773 31.2449 32.1347 31.2555 30.3945 31.2662C29.7368 31.2084 29.0952 31.7158 29.1448 32.33C29.1325 39.5761 29.1344 46.8234 29.1362 54.071C29.1379 60.6595 29.1396 67.2482 29.1307 73.8364C29.1686 75.7502 27.7771 77.5896 25.792 78.236C23.5425 79.0006 21.0356 78.4077 18.9938 77.4098C17.7685 76.7814 16.5428 76.1538 15.3172 75.5262C12.9178 74.2976 10.5185 73.069 8.12122 71.8346C7.88111 71.7313 7.68164 71.5636 7.54967 71.3542C7.4177 71.1448 7.35956 70.9037 7.3831 70.6633C7.3831 66.0237 7.38336 61.384 7.38362 56.7443C7.38414 47.4652 7.38466 38.1864 7.3831 28.9087C7.3171 28.3477 7.68928 27.8424 8.24385 27.6133C15.7959 23.7511 23.3458 19.8834 30.896 16.0157C36.9148 12.9324 42.9338 9.84905 48.9541 6.76827C49.1897 6.6221 49.4685 6.54409 49.7539 6.54446C50.0393 6.54484 50.3178 6.6236 50.553 6.7704C56.5478 9.83717 62.5417 12.9057 68.5357 15.9742C76.1123 19.853 83.689 23.7318 91.2679 27.6073C91.8244 27.836 92.1806 28.3498 92.124 28.9087C92.1231 33.9682 92.1235 39.028 92.1239 44.0878C92.1246 52.9458 92.1253 61.804 92.1193 70.6612C92.1595 71.1538 91.8857 71.6311 91.3905 71.8474C84.3989 75.4371 77.4022 79.0192 70.4054 82.6013C64.0272 85.8667 57.6489 89.1321 51.2743 92.4034C51.1921 92.445 51.1079 92.4899 51.0221 92.5357C50.4408 92.8456 49.7823 93.1966 49.131 92.8552C47.124 91.8238 45.1309 90.7693 43.1381 89.7149C41.6517 88.9285 40.1654 88.1422 38.6735 87.3655C38.2939 87.1453 37.8104 87.0509 37.4144 87.297C37.3196 87.3435 37.2248 87.39 37.13 87.4365C35.6583 88.1583 34.1795 88.8836 32.578 89.346C32.3743 89.4209 32.158 89.4814 31.9405 89.5422C31.3496 89.7075 30.7495 89.8754 30.3687 90.3414C30.835 90.9227 31.5213 91.2692 32.2009 91.6123C32.3803 91.7028 32.5592 91.7931 32.7334 91.8875C34.5952 92.8664 36.4583 93.8435 38.3215 94.8207C40.5458 95.9873 42.7701 97.1539 44.9925 98.3236C47.6809 99.8825 51.2934 99.9935 54.0686 98.5527C60.5195 95.2498 66.9693 91.945 73.4193 88.6401C80.5872 84.9673 87.7553 81.2945 94.9253 77.624C97.6368 76.3392 99.5259 73.68 99.5067 70.8797V28.6924C99.5329 26.0034 97.8138 23.4062 95.2436 22.0917C87.241 17.9826 79.2362 13.8788 71.2312 9.77491C65.5675 6.87133 59.9038 3.96773 54.2408 1.06224Z" fill="#008BB7"/>
<path d="M74.7902 32.7371C69.4449 30.08 63.0857 29.9385 57.1456 30.2856C52.8544 30.6796 48.3409 31.78 45.2143 34.6381C42.0075 37.5115 41.3097 42.1512 42.8328 45.9023C43.9243 48.5527 46.6718 50.2764 49.5129 51.1881C53.173 52.3886 57.017 52.7597 60.8622 53.1311C64.3695 53.4697 67.8778 53.8085 71.2488 54.7768C72.6258 55.2009 74.2294 55.8495 74.6512 57.2413C75.0406 58.8899 74.6137 60.8062 73.173 61.9516C70.584 63.8556 67.073 63.991 63.8637 64.1148C63.6882 64.1215 63.5135 64.1283 63.34 64.1353C63.0009 64.1304 62.659 64.127 62.3152 64.1235C58.5641 64.0857 54.5789 64.0455 51.3477 62.1526C49.52 61.0243 48.7323 59.0268 48.412 57.1236C48.3765 56.5303 47.8625 55.9863 47.1693 56.0314C45.4338 56.0122 43.6982 56.0165 41.9626 56.0292C41.3569 55.9821 40.7274 56.3824 40.6942 56.9565C40.5551 60.3562 41.9556 63.8785 44.8229 66.1392C48.1761 68.8264 52.6962 69.8626 57.0398 70.3122C61.6591 70.7211 66.3796 70.6977 70.9282 69.7767C74.3474 69.0533 77.7755 67.7214 80.1293 65.2743C83.0318 62.3005 83.6024 57.8729 82.3007 54.1686C81.3056 51.4048 78.4617 49.6317 75.5545 48.7197C71.6012 47.4601 67.4692 46.9633 63.3353 46.4663C60.1265 46.0805 56.9165 45.6945 53.7882 44.9516C53.7351 44.9364 53.6815 44.9212 53.6275 44.9058C52.4175 44.5619 51.003 44.1598 50.4729 43.0161C49.8855 41.3523 50.3854 39.2863 52.0311 38.2629C54.1748 36.9119 56.8957 36.7129 59.426 36.591C59.5165 36.5902 59.6072 36.5894 59.698 36.5885C63.0842 36.5581 66.6606 36.5259 69.7562 37.9332C71.8268 38.8966 73.0266 40.875 73.5218 42.8725C73.6135 43.4594 74.0384 44.0714 74.7695 44.0459C75.9487 44.0678 77.1281 44.0637 78.3074 44.0596C78.8517 44.0578 79.396 44.0559 79.9403 44.0566C80.5323 44.0952 81.1806 43.7846 81.2962 43.2215C81.2232 39.0466 78.9288 34.7732 74.7902 32.7371Z" fill="#008BB7"/>
</svg>
