<svg width="130" height="136" viewBox="0 0 130 136" fill="none" xmlns="http://www.w3.org/2000/svg">
<path d="M41.9154 105.134C41.9154 105.134 35.2143 108.151 46.6846 109.171C60.5807 110.398 67.6824 110.223 82.9961 107.979C82.9961 107.979 87.0224 109.933 92.6446 111.626C58.3162 123.016 14.9517 110.966 41.9154 105.134ZM37.7205 90.2706C37.7205 90.2706 30.2045 94.5777 41.6834 95.4967C56.5275 96.6822 68.25 96.7793 88.535 93.7555C88.535 93.7555 91.3407 95.9574 95.7524 97.1617C54.2467 106.557 8.01711 97.9027 37.7205 90.2706Z" fill="#2A9FC4"/>
<path d="M73.0841 65.0579C81.543 72.5969 70.8618 79.3812 70.8618 79.3812C70.8618 79.3812 92.3394 70.7978 82.4757 60.0491C73.2634 50.026 66.1983 45.0451 104.444 27.8737C104.444 27.8737 44.411 39.4809 73.0841 65.0575" fill="#A1E3FF"/>
<path d="M118.487 116.128C118.487 116.128 123.446 119.291 113.025 121.738C93.2101 126.385 30.5528 127.788 13.1467 121.923C6.88993 119.816 18.6236 116.892 22.3144 116.278C26.1635 115.632 28.3635 115.752 28.3635 115.752C21.405 111.957 -16.613 123.203 9.05237 126.424C79.0449 135.211 136.642 122.467 118.487 116.128ZM45.1375 74.8707C45.1375 74.8707 13.2666 80.7313 33.8516 82.859C42.5429 83.7599 59.8693 83.5563 76.0086 82.5092C89.1985 81.6484 102.443 79.8167 102.443 79.8167C102.443 79.8167 97.7919 81.3587 94.4272 83.1373C62.0622 89.727 -0.461026 86.6615 17.5386 79.9208C32.761 74.2246 45.138 74.8707 45.138 74.8707H45.1375ZM102.311 99.611C135.212 86.3757 120 73.657 109.382 75.3707C106.78 75.7897 105.62 76.1529 105.62 76.1529C105.62 76.1529 106.586 74.9816 108.431 74.4745C129.436 68.7574 145.59 91.3358 101.65 100.278C101.65 100.278 102.159 99.9262 102.311 99.611Z" fill="#0188B3"/>
<path d="M82.4757 0.14584C82.4757 0.14584 100.697 14.2568 65.1939 35.9543C36.7248 53.3599 58.7021 63.284 65.1823 74.6227C48.5642 63.0155 36.3684 52.7975 44.5505 43.2877C56.5589 29.3273 89.8271 22.5591 82.4757 0.145447" fill="#A1E3FF"/>
<path d="M48.3707 135.475C79.9512 137.04 128.446 134.607 129.595 123.039C129.595 123.039 127.387 127.424 103.495 130.907C76.5408 134.834 43.2964 134.375 23.5786 131.859C23.5791 131.859 27.6151 134.445 48.3712 135.475" fill="#5382A1"/>
</svg>
