<svg width="21" height="28" viewBox="0 0 21 28" fill="none" xmlns="http://www.w3.org/2000/svg">
<path d="M10.6743 26.9638C10.2976 27.3301 9.71353 27.318 9.35041 26.9382C7.29799 24.7919 1.03915 17.8011 0.213795 11.5638C-0.864299 3.41666 5.85077 0 10.0251 0C14.1994 0 20.9904 3.58876 20.001 11.5638C19.1769 18.2075 12.7854 24.9108 10.6743 26.9638Z" fill="#A1E3FF"/>
<path d="M16 9.59998C16 12.9137 13.3137 15.6 10 15.6C6.68629 15.6 4 12.9137 4 9.59998C4 6.28627 6.68629 3.59998 10 3.59998C13.3137 3.59998 16 6.28627 16 9.59998Z" fill="#41AACB"/>
</svg>