<svg width="250" height="54" viewBox="0 0 250 54" fill="none" xmlns="http://www.w3.org/2000/svg">
<path d="M20.5835 4.89078C25.3634 -1.63026 34.6365 -1.63026 39.4165 4.89078L44.0841 11.2585L19.3399 50H11.961C2.02046 50 -3.56639 37.8376 2.54449 29.5007L20.5835 4.89078Z" fill="white"/>
<path d="M27.4972 50L48.443 17.2054L57.4555 29.5006C63.5664 37.8376 57.9795 50 48.039 50H27.4972Z" fill="white"/>
<path fill-rule="evenodd" clip-rule="evenodd" d="M89.8 43L91.48 38.04H101.96L103.64 43H110.88L100.72 14.92H92.8L82.64 43H89.8ZM96.72 22.48L100.2 32.76H93.28L96.72 22.48Z" fill="white"/>
<path d="M114.452 17.32C115.226 18.0133 116.212 18.36 117.412 18.36C118.586 18.36 119.546 18.0133 120.292 17.32C121.066 16.6 121.452 15.72 121.452 14.68C121.452 13.6133 121.066 12.7333 120.292 12.04C119.546 11.32 118.586 10.96 117.412 10.96C116.212 10.96 115.226 11.32 114.452 12.04C113.706 12.7333 113.332 13.6133 113.332 14.68C113.332 15.72 113.706 16.6 114.452 17.32Z" fill="white"/>
<path d="M120.812 43V20.68H113.972V43H120.812Z" fill="white"/>
<path d="M135.609 21.52C134.409 22.2133 133.409 23.1733 132.609 24.4V20.68H125.769V43H132.609V32.64C132.609 30.8 133.036 29.52 133.889 28.8C134.742 28.0533 136.022 27.68 137.729 27.68H139.609V20.44C138.142 20.44 136.809 20.8 135.609 21.52Z" fill="white"/>
<path fill-rule="evenodd" clip-rule="evenodd" d="M161.158 16.68C158.945 15.5067 156.358 14.92 153.398 14.92H142.878V43H153.398C156.332 43 158.905 42.4133 161.118 41.24C163.358 40.0667 165.078 38.4133 166.278 36.28C167.505 34.1467 168.118 31.7067 168.118 28.96C168.118 26.1867 167.505 23.7467 166.278 21.64C165.078 19.5067 163.372 17.8533 161.158 16.68ZM158.998 34.96C157.558 36.3733 155.545 37.08 152.958 37.08H149.718V20.76H152.958C155.545 20.76 157.558 21.48 158.998 22.92C160.438 24.36 161.158 26.3733 161.158 28.96C161.158 31.5467 160.438 33.5467 158.998 34.96Z" fill="white"/>
<path fill-rule="evenodd" clip-rule="evenodd" d="M171.861 25.76C171.008 27.4933 170.581 29.5067 170.581 31.8C170.581 34.0933 171.008 36.12 171.861 37.88C172.741 39.6133 173.928 40.96 175.421 41.92C176.914 42.8533 178.568 43.32 180.381 43.32C181.954 43.32 183.328 43 184.501 42.36C185.701 41.72 186.634 40.88 187.301 39.84V43H194.141V20.68H187.301V23.84C186.661 22.8 185.741 21.96 184.541 21.32C183.368 20.68 181.994 20.36 180.421 20.36C178.581 20.36 176.914 20.8267 175.421 21.76C173.928 22.6933 172.741 24.0267 171.861 25.76ZM185.861 27.8C186.821 28.7867 187.301 30.1333 187.301 31.84C187.301 33.5467 186.821 34.8933 185.861 35.88C184.928 36.8667 183.781 37.36 182.421 37.36C181.061 37.36 179.901 36.8667 178.941 35.88C178.008 34.8667 177.541 33.5067 177.541 31.8C177.541 30.0933 178.008 28.76 178.941 27.8C179.901 26.8133 181.061 26.32 182.421 26.32C183.781 26.32 184.928 26.8133 185.861 27.8Z" fill="white"/>
<path fill-rule="evenodd" clip-rule="evenodd" d="M199.009 25.76C198.156 27.4933 197.729 29.5067 197.729 31.8C197.729 34.0933 198.156 36.12 199.009 37.88C199.889 39.6133 201.076 40.96 202.569 41.92C204.063 42.8533 205.729 43.32 207.569 43.32C209.143 43.32 210.516 43 211.689 42.36C212.889 41.72 213.809 40.8667 214.449 39.8V43H221.289V13.4H214.449V23.76C213.756 22.72 212.796 21.8933 211.569 21.28C210.369 20.6667 209.036 20.36 207.569 20.36C205.729 20.36 204.063 20.8267 202.569 21.76C201.076 22.6933 199.889 24.0267 199.009 25.76ZM213.009 27.8C213.969 28.7867 214.449 30.1333 214.449 31.84C214.449 33.5467 213.969 34.8933 213.009 35.88C212.076 36.8667 210.929 37.36 209.569 37.36C208.209 37.36 207.049 36.8667 206.089 35.88C205.156 34.8667 204.689 33.5067 204.689 31.8C204.689 30.0933 205.156 28.76 206.089 27.8C207.049 26.8133 208.209 26.32 209.569 26.32C210.929 26.32 212.076 26.8133 213.009 27.8Z" fill="white"/>
<path d="M235.038 53.6L249.038 20.68H241.638L236.518 34.64L231.358 20.68H223.718L232.798 42.24L227.678 53.6H235.038Z" fill="white"/>
</svg>
