<svg width="1204" height="667" viewBox="0 0 1204 667" fill="none" xmlns="http://www.w3.org/2000/svg">
<path d="M346.604 625.272C345.26 623.94 347.145 620.052 349.42 619.462C352.196 618.742 354.85 621.522 353.851 624.103C353.165 625.875 348.045 626.701 346.604 625.272ZM338.742 614.317C338.292 612.54 336.651 610.606 335.096 610.02C332.539 609.056 332.281 608.213 332.4 601.233C332.473 596.987 332.097 590.968 331.564 587.859C330.835 583.6 331.082 581.273 332.564 578.431C335.102 573.565 335.126 565.531 332.609 563.46C330.192 561.471 330.633 555.588 333.569 550.663C334.773 548.643 335.763 546.164 335.77 545.154C335.776 544.144 336.611 541.743 337.624 539.817C339.468 536.311 342.557 526.289 344.291 518.187C345.373 513.128 345.025 497.672 343.577 486.487C342.605 478.978 342.311 478.455 337.002 474.759C330.253 470.061 320.948 457.356 320.948 452.84C320.948 452.102 318.864 449.763 316.317 447.643C312.147 444.172 311.697 443.226 311.804 438.153C311.874 434.843 312.741 431.623 313.906 430.346C314.998 429.151 316.256 425.904 316.704 423.132C317.27 419.62 318.552 417.332 320.928 415.59C324.67 412.848 324.787 409.734 321.429 402.293C319.669 398.393 319.659 398.39 315.349 400.175C311.152 401.913 310.933 401.863 307.468 398.349C305.508 396.361 303.571 395.064 303.164 395.468C302.757 395.872 302.423 395.334 302.423 394.274C302.423 393.214 299.95 390.795 296.927 388.899C293.904 387.003 290.765 384.22 289.953 382.715C288.028 379.15 279.043 375.007 273.67 375.207C269.158 375.375 248.086 366.085 248.086 363.928C248.086 363.274 247.391 362.727 246.542 362.713C244.77 362.683 238.952 354.882 237.679 350.83C237.208 349.33 234.947 345.877 232.654 343.157C230.362 340.437 227.565 336.155 226.439 333.642C224.116 328.456 219.172 324.249 216.565 325.24C215.058 325.814 215.055 326.584 216.545 330.769C218.193 335.4 221.81 341.837 223.5 343.151C224.891 344.23 226.063 349.272 224.923 349.272C222.32 349.272 213.516 336.458 211.613 329.899C210.504 326.077 208.15 321.435 206.381 319.583C204.612 317.732 203.63 316.217 204.197 316.217C205.131 316.217 201.806 312.875 195.488 307.465C192.251 304.693 188.288 299.702 187.723 297.686C186.675 293.947 185.394 276.212 185.959 273.262C186.293 271.521 186.028 268.164 185.37 265.803C184.484 262.621 184.63 260.437 185.936 257.359C188.42 251.502 187.37 249.008 179.632 242.386C172.891 236.616 171.261 234.068 167.152 222.884C165.98 219.695 164.261 216.46 163.331 215.695C162.4 214.929 161.639 213.808 161.639 213.202C161.639 212.597 160.176 209.91 158.388 207.231C155.916 203.528 154.327 202.36 151.762 202.36C149.906 202.36 146.975 201.258 145.248 199.912C143.521 198.565 141.028 197.463 139.708 197.463C136.368 197.463 130.053 195.365 122.496 191.743C118.966 190.052 115.578 188.974 114.966 189.349C114.355 189.724 113.804 191.787 113.743 193.933C113.641 197.464 111.933 199.843 109.463 199.893C107.994 199.923 108.376 196.918 110.473 191.942C112.872 186.252 111.221 183.783 107.491 187.481C103.533 191.405 101.3 196.588 102.002 200.224C102.482 202.715 102.064 203.773 100.341 204.424C99.0752 204.903 95.1001 207.665 91.5077 210.561C87.9154 213.457 84.2105 215.827 83.2747 215.827C82.3389 215.827 81.3393 216.516 81.0533 217.357C80.7673 218.199 80.1251 216.743 79.6262 214.121C79.1273 211.499 77.9256 208.567 76.9559 207.606C75.9861 206.645 75.1927 204.589 75.1927 203.038C75.1927 196.351 73.5795 192.435 70.0878 190.645C68.0607 189.606 66.548 187.828 66.548 186.486C66.548 185.196 66.0126 183.813 65.3581 183.412C63.9486 182.548 68.3181 177.883 70.5616 177.856C71.4107 177.847 74.3282 177.075 77.0451 176.142C81.3691 174.657 82.031 173.924 82.3547 170.264C82.6768 166.621 82.1976 165.802 78.6322 163.898C76.3815 162.697 73.1586 161.909 71.4702 162.148C67.3167 162.737 62.4919 158.346 63.0433 154.48C63.3885 152.06 64.0743 151.618 67.0077 151.929C68.9585 152.136 71.9435 153.207 73.6409 154.31C76.5092 156.173 76.8351 156.168 78.2572 154.24C79.0988 153.099 80.4207 152.165 81.1949 152.165C81.969 152.165 82.6024 150.788 82.6024 149.105C82.6024 146.656 81.9849 146.044 79.515 146.044C77.817 146.044 76.4276 145.518 76.4276 144.875C76.4276 142.975 70.1949 137.365 68.9382 138.135C68.3028 138.524 67.7754 138.122 67.7661 137.24C67.7569 136.359 67.4307 134.461 67.0413 133.022C66.4529 130.848 67.3278 129.918 72.2211 127.513C75.4594 125.922 78.9426 123.188 79.9615 121.439C80.9804 119.69 84.23 116.988 87.1828 115.436C91.8442 112.984 92.9428 112.82 95.5208 114.187C97.1539 115.054 99.4395 115.402 100.6 114.96C101.76 114.519 103.982 114.984 105.536 115.994C107.091 117.003 110.763 118.165 113.698 118.574C116.632 118.983 120.978 120.003 123.356 120.839C125.733 121.675 129.836 122.164 132.474 121.926C135.586 121.644 138.405 122.239 140.501 123.62C142.278 124.79 144.566 125.877 145.585 126.035C146.604 126.194 148.661 127.73 150.157 129.45C153.742 133.573 156.89 133.399 160.678 128.866C164.101 124.769 170.333 122.441 174.861 123.568C177.492 124.223 177.733 123.961 177.197 121.027C176.79 118.802 177.209 117.524 178.506 117.03C180.701 116.195 182.381 118.264 183.444 123.115C184.347 127.235 185.659 128.179 188.382 126.668C190.418 125.539 196.066 127.106 201.775 130.385C203.133 131.165 206.19 132.122 208.567 132.513C211.865 133.054 212.985 133.887 213.293 136.026C213.542 137.757 214.96 139.277 216.998 139.997C218.814 140.639 221.774 141.986 223.577 142.992C228.541 145.76 230.319 145.266 234.662 139.908C238.326 135.388 238.996 135.059 243.056 135.783C245.483 136.215 248.136 137.094 248.953 137.735C249.769 138.376 251.485 138.571 252.765 138.168C254.192 137.719 256.848 138.616 259.626 140.485C264.021 143.441 264.203 143.463 265.631 141.196C266.694 139.507 268.014 139.038 270.379 139.507C274.612 140.346 278.959 135.232 278.959 129.414C278.959 126.215 278.044 124.664 274.637 122.088C270.167 118.708 268.842 113.715 271.67 110.911C274.07 108.532 279.813 112.814 279.936 117.073C279.993 119.072 280.55 121.037 281.173 121.439C281.796 121.842 282.974 124.203 283.791 126.686C284.793 129.733 286.122 131.325 287.879 131.583C289.567 131.831 290.97 133.404 291.866 136.054C294.058 142.538 297.046 143.392 301.318 138.755C303.284 136.621 304.893 133.899 304.893 132.706C304.893 129.744 305.825 129.055 308.789 129.823C310.806 130.346 311.168 131.162 310.61 133.928C310.227 135.826 310.444 137.704 311.091 138.101C312.357 138.876 312.093 142.988 310.688 144.38C310.218 144.846 309.833 146.513 309.833 148.085C309.833 150.394 309.174 150.941 306.389 150.941C304.495 150.941 300.744 152.062 298.054 153.431C295.363 154.8 292.045 155.65 290.681 155.318C287.521 154.551 284.067 156.516 285.762 158.117C286.436 158.753 288.052 159.464 289.354 159.698C290.656 159.932 291.935 160.758 292.195 161.533C292.719 163.093 285.965 166.857 282.641 166.857C276.595 166.857 271.022 175.933 269.687 187.956C269.258 191.817 268.39 195.293 267.758 195.68C266.298 196.575 266.31 199.995 267.784 202.304C268.747 203.814 269.386 203.836 272.004 202.447C276.659 199.977 278.959 201.488 278.959 207.015C278.959 212.508 279.904 213.917 282.279 211.964C284.896 209.811 289.709 212.592 291.751 217.436C293.273 221.048 294.205 221.673 299.038 222.33C307.577 223.49 311.388 225.587 310.452 228.61C310.023 229.996 309.431 231.957 309.137 232.967C308.822 234.049 310.501 236.219 313.225 238.25L317.849 241.697L320.633 238.488C322.619 236.199 323.418 233.719 323.418 229.838C323.418 226.845 323.467 224.259 323.527 224.091C325.139 219.579 325.298 212.234 323.885 207.579C322.551 203.184 322.463 200.209 323.48 193.898C325.687 180.212 325.709 180.151 328.079 181.322C329.251 181.9 333.405 183.054 337.311 183.885C341.68 184.815 344.412 186.03 344.412 187.043C344.412 187.948 345.003 188.885 345.726 189.124C346.449 189.363 347.355 191.877 347.738 194.711C348.347 199.213 349.12 200.262 353.851 203.01C359.804 206.469 361.701 206.164 361.701 201.748C361.701 197.759 363.739 196.814 364.643 200.384C365.047 201.982 367.607 206.926 370.332 211.372C373.056 215.818 375.286 219.78 375.286 220.177C375.286 221.316 378.138 223.617 382.122 225.691C385.366 227.381 385.776 228.221 385.722 233.078C385.637 240.754 380.579 246.434 373.83 246.434C371.216 246.434 368.057 245.802 366.811 245.03C362.116 242.124 351.821 247.823 351.821 253.328C351.821 255.155 352.343 256.053 353.127 255.573C353.844 255.133 355.674 255.082 357.192 255.46C359.188 255.956 359.938 257.032 359.9 259.345C359.858 261.977 360.695 262.834 364.634 264.191C371.674 266.615 372.302 267.7 369.179 272.049C367.427 274.487 365.414 275.816 363.469 275.816C359.992 275.816 359.758 274.915 362.301 271.316C363.933 269.005 363.923 268.638 362.207 267.985C358.898 266.726 349.632 273.028 339.904 283.152C336.76 286.425 333.618 288.899 331.659 289.644C330.445 290.106 329.56 291.835 329.514 293.835C329.29 303.505 328.653 305.074 322.823 310.335C314.834 317.542 313.162 321.112 314.089 328.982C314.582 333.166 314.264 336.724 313.165 339.316C311.505 343.23 311.461 343.246 308.708 341.036C306.205 339.027 306.085 338.464 307.502 335.381C308.46 333.296 308.62 331.632 307.911 331.126C307.27 330.669 306.134 329.194 305.386 327.847C303.435 324.335 295.577 323.851 292.094 327.029C289.884 329.045 288.016 329.375 280.574 329.063C270.184 328.628 264.832 330.797 261.439 336.818C257.554 343.713 260.165 359.809 265.39 361.164C266.74 361.514 267.845 362.261 267.845 362.824C267.845 364.072 274.942 366.12 278.345 365.855C279.702 365.749 283.142 364.126 285.989 362.248C288.837 360.37 291.754 359.194 292.473 359.634C294.379 360.802 294.069 364.649 291.926 366.412C287.503 370.051 290.739 374.981 297.55 374.981C304.074 374.981 308.987 379.723 308.231 385.289C307.922 387.558 307.336 389.95 306.928 390.604C305.621 392.701 310.624 396.099 313.626 395.154C315.131 394.681 318.417 394.966 320.929 395.788C324.767 397.043 326.107 396.969 329.323 395.32C331.428 394.241 334.137 391.702 335.342 389.679C336.548 387.655 337.967 386 338.496 386C339.879 386 339.012 390.333 337.193 392.505C336.138 393.765 336.062 394.606 336.953 395.152C338.724 396.237 343.478 394.63 345.133 392.386C346.192 390.95 347.777 390.763 352.547 391.515C355.884 392.04 360.857 392.358 363.598 392.219C369.26 391.934 374.177 395.015 377.147 400.708C378.545 403.388 380.583 404.644 386.075 406.21C394.344 408.569 399.37 412.713 402.62 419.855C404.176 423.273 406.084 425.337 408.442 426.152C410.371 426.819 413.951 429.107 416.397 431.236C420.644 434.932 421.067 435.042 425.733 433.657C432.643 431.604 438.543 433.026 442.433 437.681C444.218 439.816 445.678 442.111 445.678 442.779C445.678 443.448 446.887 445.27 448.364 446.829C450.942 449.55 450.976 449.898 449.195 455.478C447.638 460.355 446.889 461.242 444.542 460.98C442.623 460.767 441.541 461.439 441.097 463.123C440.741 464.473 439.866 465.577 439.153 465.577C438.44 465.577 438.205 465.922 438.63 466.344C439.056 466.766 438.489 468.832 437.37 470.935C436.251 473.038 434.929 478.054 434.433 482.082C433.431 490.207 429.59 494.959 424.026 494.959C422.176 494.959 420.241 496.161 418.953 498.11C417.612 500.139 416.083 501.057 414.659 500.688C410.078 499.501 408.912 501.869 405.611 519.059C404.882 522.854 402.589 526.79 401.108 526.79C400.415 526.79 398.693 529.545 397.281 532.911C395.87 536.278 393.978 539.033 393.078 539.033C392.177 539.033 390.014 537.518 388.272 535.666C385.593 532.82 384.915 532.583 383.886 534.136C383.217 535.146 382.939 537.9 383.27 540.257C383.646 542.94 383.07 546.143 381.728 548.827C379.993 552.295 378.881 553.112 375.891 553.112C371.981 553.112 370.067 554.311 368.839 557.529C368.426 558.611 366.31 559.85 364.136 560.281C360.219 561.057 360.192 561.113 361.03 566.652C362.007 573.109 360.876 575.047 354.62 577.638C350.76 579.237 350.492 579.691 351.225 583.383C351.664 585.587 352.317 588.899 352.677 590.742C353.118 592.996 352.224 596.194 349.946 600.513C348.084 604.044 345.914 609.144 345.125 611.846C343.397 617.762 339.952 619.096 338.742 614.317V614.317ZM282.049 280.713C282.278 280.713 283.389 277.958 284.517 274.592C285.645 271.225 286.968 268.47 287.456 268.47C289.28 268.47 291.309 271.501 291.309 274.224C291.309 275.773 291.901 277.04 292.625 277.04C295.089 277.04 298.719 274.511 298.719 272.795C298.719 271.854 299.83 270.734 301.189 270.307C305.591 268.922 303.82 266.231 296.304 262.887C290.965 260.512 288.652 258.733 287.867 256.396C286.994 253.801 285.967 253.153 282.563 253.049C280.241 252.978 276.917 252.528 275.176 252.05C270.918 250.88 265.123 255.179 267.6 257.671C268.484 258.561 271.263 259.288 273.775 259.288C277.529 259.288 278.41 259.764 278.726 261.96C278.937 263.43 278.242 266.295 277.182 268.327C276.122 270.359 275.255 273.187 275.255 274.611C275.255 278.604 277.657 282.225 279.773 281.42C280.795 281.031 281.819 280.713 282.049 280.713ZM254.962 238.024C254.511 234.906 254.029 230.867 253.892 229.048C253.51 223.981 251.473 222.603 247.296 224.588C243.001 226.628 242.078 229.956 245.556 230.857C247.996 231.49 248.777 234.015 248.259 239.598C248.14 240.889 249.273 243.243 250.777 244.831C253.215 247.404 253.635 247.499 254.647 245.705C255.272 244.598 255.414 241.141 254.962 238.024ZM216.617 198.553C225.749 191.084 226.422 189.593 221.226 188.34C219.358 187.889 216.933 186.373 215.838 184.97C212.685 180.934 210.63 183.302 211.498 189.968C212.289 196.038 211.66 197.8 208.259 199.044C205.44 200.075 205.458 203.584 208.281 203.584C209.482 203.584 213.233 201.32 216.617 198.553H216.617ZM196.608 167.898C198.091 167.123 199.722 165.884 200.231 165.143C200.87 164.215 201.525 164.363 202.341 165.622C203.701 167.721 205.444 166.49 207.815 161.756C208.602 160.185 210.483 158.723 211.994 158.508C213.676 158.268 214.742 157.258 214.742 155.903C214.742 153.049 212.695 151.428 207.372 150.066C203.858 149.166 202.087 149.494 197.493 151.898C187.456 157.149 183.753 162.421 190.47 161.896C195.011 161.542 195.326 161.87 193.337 164.88C190.6 169.02 191.994 170.305 196.608 167.898V167.898ZM1102.39 610.995C1099.24 607.147 1101.19 603.782 1111.61 595.043C1115.56 591.728 1118.4 592.263 1118.12 596.267C1117.76 601.276 1117.57 601.953 1116.73 601.12C1116.31 600.704 1115.15 601.163 1114.17 602.141C1113.18 603.119 1111.27 603.919 1109.92 603.919C1108.57 603.919 1107.79 604.444 1108.19 605.087C1109.25 606.78 1107.65 612.213 1105.89 612.88C1105.07 613.192 1103.5 612.344 1102.39 610.995ZM1113.16 600.26C1113.59 599.566 1113.1 599.361 1112 599.779C1109.86 600.593 1109.47 601.47 1111.24 601.47C1111.88 601.47 1112.74 600.926 1113.16 600.26ZM1028.4 594.864C1026.28 593.808 1025.6 592.585 1025.92 590.4C1026.15 588.745 1026.43 587.306 1026.53 587.202C1026.93 586.8 1030.55 586.495 1033.28 586.634C1035.79 586.762 1036.09 587.318 1035.75 591.26C1035.32 596.241 1033.22 597.272 1028.4 594.864ZM1125.15 582.342C1124.28 581.416 1123.94 580.658 1124.39 580.658C1124.83 580.658 1124.55 579.88 1123.76 578.93C1122.72 577.693 1122.69 576.968 1123.66 576.375C1124.41 575.919 1124.76 573.954 1124.45 572.007C1123.89 568.484 1123.9 568.478 1126.83 570.584C1128.44 571.748 1129.78 573.613 1129.8 574.728C1129.83 576.147 1130.58 576.563 1132.31 576.115C1135.58 575.267 1135.45 577.541 1132.03 580.932C1128.69 584.242 1127.23 584.542 1125.15 582.342V582.342ZM1026.1 572.608C1022.92 571.513 1021.34 571.48 1020.1 572.483C1018.36 573.883 1016.64 572.364 1010.78 564.271C1009.49 562.483 1007.11 560.691 1005.48 560.287C1003.75 559.856 1002.61 558.731 1002.73 557.557C1003.5 549.674 1000.71 547.791 995.23 552.5C991.569 555.648 990.473 555.584 989.154 552.143C987.323 547.37 984.265 545.805 976.85 545.843C971.928 545.869 967.679 546.886 962.217 549.347C955.838 552.221 953.405 552.704 948.015 552.165C944.437 551.807 939.166 552.121 936.301 552.862C933.436 553.604 930.72 553.841 930.264 553.39C929.809 552.939 929.274 550.315 929.077 547.56C928.879 544.806 928.078 541.789 927.297 540.856C926.517 539.924 925.596 537.342 925.252 535.118C924.908 532.894 923.638 529.973 922.43 528.627C920.753 526.758 920.475 525.326 921.257 522.578C921.9 520.317 921.786 518.388 920.951 517.391C920.208 516.503 920.042 514.851 920.574 513.645C921.097 512.458 921.441 511.086 921.338 510.595C921.042 509.185 927.951 506.056 933.104 505.266C944.665 503.495 946.286 502.85 948.323 499.206C949.44 497.207 951.336 495.383 952.534 495.153C953.733 494.923 956.266 493.013 958.162 490.91C961.032 487.725 961.921 487.342 963.474 488.62C967.434 491.878 970.303 491.229 976.341 485.709C979.598 482.731 983.236 480.288 984.425 480.281C985.613 480.274 986.586 479.766 986.586 479.152C986.586 477.95 988.052 478.042 992.503 479.523C994.992 480.352 995.29 481.155 994.973 486.182C994.615 491.867 994.643 491.913 1000.17 494.486C1009.5 498.828 1012.41 499.136 1013.63 495.908C1014.21 494.376 1014.21 492.825 1013.64 492.461C1012.27 491.592 1014.11 484.843 1015.88 484.259C1016.63 484.01 1017.61 484.924 1018.04 486.29C1018.48 487.656 1020.61 490.002 1022.78 491.502C1027.89 495.039 1028.53 496.042 1028.55 500.543C1028.57 503.391 1029.89 505.494 1034.04 509.305C1037.05 512.063 1039.76 514.067 1040.07 513.759C1040.87 512.969 1048.33 522.138 1048.33 523.906C1048.33 524.707 1048.98 525.574 1049.76 525.834C1051.84 526.52 1052.94 536.4 1051.57 542.093C1050.93 544.787 1049.1 548.909 1047.51 551.254C1045.93 553.598 1044.63 556.778 1044.63 558.32C1044.63 561.097 1036.15 571.355 1032.36 573.171C1031.29 573.679 1028.48 573.425 1026.1 572.608H1026.1ZM620.921 543.175C618.597 540.398 614.848 530.029 612.784 520.669C612.413 518.985 611.426 517.057 610.59 516.384C608.034 514.325 605.362 508.093 604.643 502.516C604.268 499.602 603.117 496.294 602.086 495.165C598.787 491.551 598.34 481.812 601.035 472.231C603.141 464.74 603.252 463.02 601.863 459.377C600.98 457.063 598.796 451.356 597.008 446.694C595.22 442.032 592.861 437.568 591.767 436.775C590.144 435.599 589.924 433.938 590.574 427.772L591.371 420.212L587.767 419.497C585.785 419.104 583.036 417.742 581.659 416.47C580.282 415.198 578.636 414.158 578.001 414.158C577.366 414.158 576.527 413.331 576.136 412.321C575.206 409.918 569.242 409.961 565.735 412.396C562.807 414.43 557.199 414.096 549.783 411.448C546.778 410.375 545.062 410.384 542.624 411.485C536.397 414.298 532.445 413.316 526.577 407.499C523.561 404.509 520.771 400.791 520.376 399.235C519.98 397.679 517.756 395.173 515.433 393.666C509.283 389.676 507.484 385.485 508.726 378.042C509.288 374.675 509.781 368.726 509.821 364.82C509.907 356.6 511.997 351.845 518.541 344.987C521.111 342.294 523.589 338.85 524.048 337.335C524.506 335.82 525.385 334.581 526.001 334.581C528.409 334.581 534.894 326.288 537.49 319.89C540.432 312.638 540.08 312.785 550.433 314.47C554.699 315.165 556.713 314.816 560.441 312.739C564.254 310.615 567.545 310.079 578.417 309.811C591.008 309.501 591.779 309.624 592.702 312.084C593.313 313.714 593.022 315.938 591.922 318.04C589.251 323.143 589.635 323.562 596.976 323.562C600.721 323.562 604.75 324.033 605.929 324.609C607.109 325.184 610.695 326.487 613.9 327.503C619.353 329.234 619.859 329.206 621.809 327.069C624.119 324.54 626.175 324.225 629.393 325.908C635.336 329.016 640.882 330.869 645.824 331.399C648.834 331.722 652.829 332.359 654.703 332.816C656.576 333.272 659.64 333.017 661.512 332.248C667.242 329.895 672.487 317.314 669.493 313.105C667.943 310.925 658.996 308.852 652.532 309.175C646.505 309.476 646.347 309.395 645.939 305.811C645.709 303.79 645.005 301.519 644.374 300.763C642.159 298.107 644.641 295.918 653.793 292.454C662.4 289.197 663.471 289.058 669.513 290.417C681.208 293.049 682.722 293.238 685.86 292.457C690.66 291.262 689.688 287.509 682.788 280.596C679.392 277.194 676.613 273.408 676.613 272.183C676.613 269.974 674.321 268.47 670.955 268.47C669.823 268.47 669.204 269.8 669.204 272.228C669.204 275.425 668.789 275.928 666.425 275.595C664.614 275.34 663.505 274.219 663.242 272.374C663.019 270.818 662.042 269.243 661.071 268.873C658.398 267.856 653.562 271.572 652.596 275.385C652.125 277.245 650.668 279.512 649.357 280.422C647.934 281.41 646.974 283.507 646.974 285.632C646.974 290.044 642.743 294.18 638.229 294.18C634.72 294.18 633.39 296.038 633.39 300.941C633.39 305.25 631.568 305.58 627.323 302.04C624.812 299.945 622.864 296.638 621.597 292.316C619.877 286.451 619.096 285.488 614.12 283.1C611.063 281.633 607.694 279.119 606.633 277.512C604.19 273.818 600.046 273.594 600.046 277.157C600.046 281.249 604.491 286.334 610.524 289.145C616.489 291.925 617.149 293.017 614.288 295.372C613.291 296.192 612.523 297.224 612.582 297.664C613.204 302.334 609.336 303.015 608.178 298.44C607.748 296.743 606.16 293.904 604.648 292.132C601.42 288.346 589.954 277.04 589.343 277.04C589.112 277.04 586.849 278.142 584.315 279.489C581.78 280.836 577.923 281.937 575.744 281.937C571.757 281.937 567.938 285.408 567.938 289.031C567.938 290.665 564.936 294.308 563.659 294.224C563.296 294.2 562.453 294.18 561.788 294.18C561.123 294.18 559.381 296.521 557.917 299.383C555.133 304.827 553.288 306.671 551.636 305.659C551.096 305.328 549.08 305.978 547.158 307.104C543.921 309 543.375 309.004 539.782 307.162C535.055 304.739 533.481 302.043 533.579 296.538C533.62 294.231 533.397 290.932 533.084 289.208C532.771 287.483 532.991 284.795 533.574 283.234C534.531 280.669 535.135 280.478 539.862 281.253C553.536 283.496 552.889 283.674 553.838 277.405C554.823 270.894 552.469 265.661 548.267 265.019C546.86 264.803 545.709 263.924 545.709 263.063C545.709 260.646 550.072 256.228 552.459 256.228C557.012 256.228 563.075 252.01 575.15 240.442C587.057 229.036 587.697 228.167 587.697 223.388C587.697 216.246 590.864 217.857 591.889 225.52L592.675 231.392L600.783 232.143C607.08 232.726 609.562 232.458 611.893 230.943C613.812 229.697 616.208 229.254 618.537 229.716C622.693 230.54 623.541 229.66 625.436 222.563C626.715 217.777 626.872 217.663 632.229 217.663C637.593 217.663 637.721 217.57 638.122 213.383C638.648 207.892 639.999 206.369 645.901 204.616C652.89 202.54 654.404 200.248 650.644 197.437C646.462 194.309 642.202 193.745 636.773 195.6C631.109 197.534 630.616 196.939 630.099 187.535C629.776 181.661 630.316 179.383 633.42 173.533C637.87 165.148 638.716 159.2 635.553 158.551C632.246 157.872 626.147 165.376 627.822 168.063C628.548 169.229 619.122 179.099 617.283 179.099C616.045 179.099 613.598 186.414 614.004 188.902C614.17 189.916 615.265 192.105 616.438 193.765C618.742 197.026 619.295 202.996 617.402 204.156C616.759 204.55 614.407 208.164 612.177 212.186C609.946 216.209 607.502 219.5 606.745 219.5C604.703 219.5 601.281 215.34 601.281 212.859C601.281 209.871 597.376 203.584 595.519 203.584C594.68 203.584 593.55 204.273 593.007 205.115C592.464 205.956 591.073 207.38 589.917 208.277C588.091 209.694 587.319 209.407 584.051 206.092C581.981 203.993 580.287 201.028 580.287 199.502C580.287 197.977 579.642 196.089 578.855 195.308C578.066 194.527 577.524 191.026 577.649 187.525C577.894 180.676 578.658 179.659 586.771 175.374C591.372 172.944 596.323 166.597 598.191 160.735C598.727 159.052 600.197 156.955 601.458 156.075C602.719 155.195 603.751 153.433 603.751 152.16C603.751 150.886 606.415 146.648 609.67 142.741C612.926 138.834 616.561 133.579 617.748 131.063C620.101 126.076 623.841 123.401 626.86 124.55C627.916 124.952 631.624 123.714 635.099 121.8C639.849 119.184 643.18 118.29 648.518 118.197C656.557 118.058 657.715 119.801 652.934 124.847L650.249 127.68H654.697C657.97 127.68 659.786 128.488 661.573 130.741C663.281 132.893 665.203 133.801 668.049 133.801C670.275 133.801 673.15 134.747 674.439 135.903C675.727 137.058 678.751 139.124 681.16 140.494C684.122 142.177 686.05 144.478 687.115 147.6C688.551 151.811 688.472 152.367 686.214 153.935C684.853 154.88 682.913 155.339 681.904 154.955C680.895 154.571 679.63 154.961 679.093 155.822C677.735 158.001 671.073 155.017 669.089 151.34C667.812 148.975 664.164 147.31 659.941 147.166C659.262 147.143 658.394 148.396 658.013 149.951C657.481 152.118 658.201 153.431 661.1 155.582C665.259 158.666 666.516 160.965 666.647 165.725C666.741 169.134 671.144 173.801 674.143 173.67C675.162 173.626 676.177 172.321 676.399 170.769C676.643 169.061 678.085 167.466 680.055 166.723C681.843 166.049 684.718 163.938 686.443 162.033C689.271 158.911 693.004 157.703 701.621 157.125C703.42 157.004 702.516 153.741 700.077 151.553C697.11 148.891 696.91 145.686 699.548 143.071C702.412 140.231 703.782 140.718 703.782 144.575C703.782 151.521 710.42 153.346 713.863 147.347C716.659 142.475 732.186 135.076 732.186 138.616C732.186 141.3 737.386 141.331 740.25 138.664C742.323 136.734 744.035 136.167 746.183 136.702C748.523 137.284 750.071 136.573 753.06 133.542C756.764 129.787 757.121 129.685 762.045 130.988C764.865 131.734 767.86 132.084 768.7 131.764C770.654 131.021 771.666 127.226 771.688 120.56C771.697 117.654 772.262 114.244 772.943 112.983C773.792 111.409 773.76 110.431 772.84 109.867C772.042 109.378 773.04 108.117 775.307 106.751C777.401 105.488 779.114 103.896 779.114 103.213C779.114 101.251 786.051 101.767 787.802 103.859C789 105.289 789.036 106.091 787.953 107.164C785.888 109.211 786.211 119.102 788.483 123.395C791.394 128.897 791.617 138.906 788.981 145.735C786.94 151.021 786.404 151.52 783.119 151.195C777.545 150.642 775.721 153.645 778.333 159.075C779.931 162.398 780.921 163.211 782.547 162.537C783.715 162.053 786.339 161.295 788.376 160.853C792.891 159.873 800.108 149.96 800.108 144.739C800.108 140.418 802.495 135.026 804.408 135.026C805.33 135.026 805.922 137.951 806.069 143.235C806.195 147.751 806.817 151.961 807.453 152.591C809.037 154.161 817.398 150.116 817.398 147.78C817.398 146.778 816.562 144.694 815.541 143.149C814.52 141.604 813.465 138.081 813.197 135.319C812.569 128.862 811.752 127.664 808.172 127.958C804.341 128.272 799.106 125.44 798.182 122.552C796.109 116.078 795.642 104.325 797.339 101.321C798.436 99.3761 798.735 99.506 800.261 102.592C801.196 104.483 802.794 106.398 803.813 106.848C814.709 111.662 815.543 112.501 815.584 118.69C815.635 126.521 816.6 127.988 820.529 126.213C822.935 125.127 823.576 123.918 823.589 120.444C823.599 118.027 823.907 114.938 824.276 113.579C824.745 111.847 823.477 109.485 820.031 105.672C816.141 101.369 815.363 99.778 816.301 98.0422C816.952 96.8361 817.882 95.8083 818.367 95.7583C824.247 95.1523 827.712 92.919 827.862 89.6382C827.88 89.2522 829.284 86.9105 830.982 84.4345C832.947 81.5686 834.729 80.1787 835.884 80.61C836.882 80.9826 837.36 80.9517 836.946 80.5413C836.532 80.1309 838.494 77.2341 841.306 74.104C851.876 62.3379 851.006 62.8617 858.913 63.5095C865.224 64.0265 866.505 64.5962 869.526 68.2294C872.005 71.2104 873.661 72.1799 875.474 71.71C879.369 70.7001 881.574 66.7722 880.375 62.979C879.811 61.194 879.015 58.2184 878.606 56.3667C877.866 53.0127 877.889 53 884.655 53C890.934 53 891.508 53.2397 892.251 56.1726C892.941 58.8975 893.51 59.2235 896.288 58.4826C902.363 56.8618 907.766 57.361 909.065 59.6632C909.743 60.8638 911.385 62.9241 912.714 64.2416C914.952 66.4599 914.987 66.8538 913.192 69.5696C912.126 71.1824 911.254 73.5839 911.254 74.9062C911.254 77.7278 909.535 79.4627 902.695 83.5466C899.931 85.197 897.669 87.2236 897.669 88.0502C897.669 88.8767 896.864 90.3516 895.879 91.3275C894.411 92.7833 894.372 93.4856 895.664 95.2376C897.142 97.2405 897.542 97.1841 902.104 94.3291C904.779 92.655 907.709 90.3993 908.616 89.3166C910.105 87.5378 910.694 87.5263 914.729 89.1976C917.185 90.2148 919.492 91.4478 919.855 91.9376C920.219 92.4273 922.323 94.2994 924.532 96.0977C927.638 98.627 929.456 99.2272 932.559 98.7484C934.765 98.4079 940.002 98.935 944.195 99.9198C951.651 101.671 951.917 101.645 956.17 98.7797C960.81 95.6546 963.122 95.0871 963.122 97.0735C963.122 97.7468 963.891 98.2978 964.832 98.2978C967.634 98.2978 970.357 103.704 970.766 110.079L971.149 116.05L978.061 115.655C981.96 115.432 987.934 116.114 991.766 117.218C998.073 119.035 1003.35 118.797 1002.08 116.752C1001.78 116.269 1002.3 114.413 1003.23 112.627C1004.17 110.842 1005.11 108.183 1005.33 106.719C1005.55 105.255 1006.68 103.465 1007.84 102.742C1009.54 101.691 1010.69 102.121 1013.61 104.89C1017.28 108.376 1025.42 110.183 1026.88 107.835C1027.87 106.253 1034.73 107.983 1037.46 110.5C1038.72 111.668 1039.99 113.81 1040.27 115.26C1041.02 119.136 1041.77 119.961 1045.78 121.347C1048.68 122.35 1050.34 122.129 1054.07 120.243C1061.36 116.557 1064.78 117.472 1065.81 123.388C1066.35 126.445 1070.97 128.961 1077.21 129.592C1079.84 129.858 1083.9 131.19 1086.23 132.551C1088.56 133.912 1091.16 135.026 1092 135.026C1092.85 135.026 1095.43 136.403 1097.73 138.086C1103.01 141.946 1108.85 142.239 1108.85 138.645C1108.85 137.269 1110.2 134.694 1111.86 132.923L1114.87 129.703L1121.23 132.977C1124.73 134.777 1128.57 136.25 1129.76 136.25C1130.95 136.25 1132.98 137.408 1134.28 138.824C1136.58 141.346 1143.42 145.446 1143.42 144.303C1143.42 143.984 1145.02 144.276 1146.98 144.951C1149.75 145.907 1150.69 147.139 1151.24 150.506C1151.63 152.886 1152.55 155.553 1153.29 156.433C1154.7 158.118 1159.48 157.548 1159.48 155.695C1159.48 153.899 1164.11 154.481 1166.18 156.538C1169.04 159.367 1168.57 162.155 1164.5 166.571L1160.88 170.504L1151.58 165.62C1146.46 162.933 1141.44 160.735 1140.41 160.735C1139.39 160.735 1137.72 162.321 1136.71 164.26C1135.7 166.198 1133.95 168.133 1132.83 168.56C1131.15 169.201 1130.88 170.719 1131.3 177.246L1131.81 185.155L1125.88 187.266C1122.63 188.427 1119.96 189.759 1119.96 190.227C1119.96 190.694 1118.6 191.415 1116.94 191.829C1115.27 192.242 1113.18 194.093 1112.29 195.94C1110.86 198.893 1109.96 199.3 1104.89 199.3C1099.9 199.3 1098.62 199.854 1095.39 203.446C1092.08 207.118 1091.14 207.51 1087.17 206.872C1081.3 205.927 1077.96 207.971 1078.66 212.093C1081.1 226.547 1079.42 233.59 1072.66 237.219C1070.49 238.384 1067.88 241.072 1066.86 243.192C1064.76 247.547 1061.77 248.271 1061.06 244.597C1059.94 238.873 1060.47 230.412 1062.06 228.463C1063.21 227.065 1063.26 226.679 1062.23 227.295C1061.38 227.801 1060.68 227.631 1060.68 226.918C1060.68 225.485 1063.23 222.319 1068.4 217.333C1070.27 215.532 1071.8 213.239 1071.8 212.239C1071.8 211.239 1073.7 208.47 1076.02 206.085C1078.34 203.7 1080.43 200.646 1080.65 199.3C1080.99 197.254 1080.45 196.901 1077.35 197.157C1075.32 197.326 1072.44 196.843 1070.97 196.085C1068.79 194.963 1067.64 195.166 1064.8 197.177C1060.46 200.244 1057 203.984 1055.2 207.572C1053.67 210.616 1048.78 211.506 1047.37 208.998C1045.63 205.917 1040.56 204.944 1036.98 207.006C1034.1 208.668 1032.99 208.704 1028.64 207.277C1024.9 206.054 1022.9 205.973 1020.84 206.962C1019.32 207.693 1016.67 208.589 1014.96 208.953C1010.62 209.874 998.873 225.384 997.699 231.749C996.755 236.869 997.642 238.465 1001.88 239.262C1003.41 239.551 1004.84 241.694 1006.08 245.551C1007.71 250.616 1007.74 252.567 1006.31 260.07C1005.41 264.838 1004 269.394 1003.19 270.195C1002.39 270.996 1000.87 273.277 999.816 275.264C997.395 279.845 987.96 289.283 985.801 289.283C984.902 289.283 981.931 290.169 979.2 291.253C974.954 292.937 973.672 294.389 970.362 301.265C966.875 308.508 966.637 309.711 967.964 313.35C969.26 316.902 969.138 317.712 966.962 320.027L964.486 322.662L963.687 319.509C963.248 317.775 963.255 315.769 963.702 315.053C964.594 313.621 961.61 310.095 959.505 310.095C958.176 310.095 957.828 308.967 957.861 304.775C957.876 302.987 957.204 302.65 954.635 303.158C946.831 304.704 946.46 304.647 946.056 301.832C945.819 300.185 944.8 299.077 943.519 299.077C941.144 299.077 933.483 306.332 933.483 308.58C933.483 310.499 937.544 312.544 941.356 312.544C946.092 312.544 946.38 314.638 942.211 318.77C938.636 322.315 938.461 322.929 939.038 329.934C939.472 335.198 940.34 337.941 942.034 339.397C944.347 341.386 944.353 341.59 942.22 346.278C938.842 353.701 929.279 363.546 924.54 364.478C922.327 364.914 918.303 366.307 915.599 367.574C912.895 368.842 910.138 369.545 909.471 369.137C908.114 368.305 900.675 368.585 897.361 369.593C893.784 370.68 894.859 382.859 898.809 386C900.946 387.699 903.824 393.593 904.068 396.772C904.42 401.354 901.008 406.55 896.989 407.549C894.409 408.191 892.812 407.296 887.745 402.366C884.375 399.088 881.618 395.681 881.617 394.794C881.616 393.761 880.406 393.322 878.247 393.57C874.602 393.989 871.093 399.04 872.908 401.255C873.481 401.955 874.657 404.889 875.522 407.775C876.386 410.662 878.306 414.32 879.787 415.905C883.872 420.274 888.18 427.646 887.211 428.607C886.738 429.076 884.741 427.532 882.775 425.175C880.808 422.819 878.158 419.789 876.886 418.443C872.4 413.692 871.455 410.357 869.763 393.295C868.81 383.69 866.372 379.362 862.939 381.183C860.424 382.517 858.151 381.802 858.151 379.677C858.151 378.972 856.815 376.821 855.182 374.897C853.549 372.973 851.991 370.739 851.72 369.933C851.448 369.127 847.644 368.035 843.265 367.507C835.486 366.568 835.224 366.63 831.791 370.21C829.858 372.225 826.131 375.216 823.508 376.858C818.725 379.851 815.994 383.434 815.287 387.643C815.079 388.883 814.079 391.072 813.066 392.506C812.052 393.941 811.223 395.855 811.223 396.76C811.223 399.352 802.834 407.58 801.614 406.184C801.034 405.52 799.82 401.946 798.917 398.242C798.014 394.539 795.968 389.591 794.37 387.246C792.771 384.901 791.464 381.458 791.464 379.594C791.464 377.731 790.918 376.206 790.252 376.206C789.586 376.206 788.691 374.824 788.263 373.134C787.792 371.273 786.323 369.774 784.535 369.329C782.889 368.919 781.584 367.685 781.584 366.538C781.584 364.261 772.223 355.988 767.759 354.32C766.193 353.735 761.888 352.894 758.192 352.453C749.106 351.366 745.958 350.548 740.571 347.874C738.051 346.623 734.541 345.599 732.772 345.599C727.684 345.599 724.793 343.392 722.286 337.594C719.919 332.12 718.591 331.329 710.574 330.622C706.262 330.242 706.17 331.984 710.08 340.014C711.371 342.665 712.427 345.833 712.427 347.053C712.427 348.702 713.378 349.272 716.132 349.272C719.231 349.272 719.837 349.758 719.837 352.245C719.837 358.254 727.098 361.468 729.716 356.617C731.225 353.823 735.891 353.285 735.891 355.905C735.891 356.861 737.836 358.834 740.213 360.29C742.59 361.747 744.521 363.582 744.502 364.369C744.443 366.916 735.9 375.021 730.576 377.582C727.726 378.954 724.56 380.497 723.541 381.012C722.523 381.527 718.632 382.624 714.897 383.45C711.161 384.276 706.944 385.508 705.526 386.188C704.108 386.868 701.35 387.242 699.396 387.018C696.48 386.685 695.692 385.876 695.004 382.511C694.542 380.256 692.21 376.4 689.821 373.942C687.432 371.483 684.608 367.544 683.545 365.187C682.482 362.831 678.649 355.393 675.027 348.66C669.459 338.305 667.981 336.417 665.444 336.417C661.213 336.417 660.936 339.969 664.779 344.963C666.844 347.647 667.969 350.663 667.969 353.518C667.969 355.943 668.829 359.229 669.88 360.819C670.931 362.41 672.048 365.117 672.363 366.836C672.677 368.555 674.596 371.764 676.626 373.968C678.815 376.345 680.318 379.321 680.318 381.281C680.318 383.972 681.12 384.848 684.64 386C687.018 386.778 689.008 388.06 689.063 388.849C689.118 389.639 689.257 392.488 689.372 395.182C689.574 399.934 689.699 400.067 693.594 399.694C695.801 399.483 697.607 399.877 697.607 400.57C697.607 403.244 702.168 404.363 705.81 402.583C707.751 401.634 710.954 400.463 712.926 399.982C716.45 399.122 716.499 399.179 715.686 403.205C715.232 405.459 714.393 407.606 713.823 407.976C713.252 408.346 712.01 410.13 711.063 411.94C709.158 415.579 699.304 427.001 689.202 437.281C680.273 446.368 678.807 450.105 680.895 458.464C681.788 462.039 683.829 468.454 685.432 472.718L688.345 480.472L683.405 484.637C680.689 486.927 677.493 488.81 676.305 488.82C675.116 488.83 674.143 489.389 674.143 490.062C674.143 490.736 673.369 491.286 672.423 491.286C669.935 491.286 669.153 494.254 670.009 500.445C670.734 505.685 670.605 505.963 666.279 508.493C663.814 509.935 662.093 511.588 662.453 512.167C662.814 512.745 660.897 517.581 658.193 522.912C651.335 536.434 639.87 544.868 630.761 543.092C628.976 542.744 627.137 543.065 626.675 543.806C625.462 545.751 622.837 545.463 620.921 543.175V543.175ZM729.689 310.145C731.804 306.227 729.822 294.42 726.443 290.805C724.847 289.098 723.541 286.712 723.541 285.504C723.541 284.295 722.986 282.966 722.306 282.549C719.213 280.654 721.318 279.215 726.08 279.97L731.088 280.764L730.711 275.021C730.383 270.026 729.827 268.999 726.443 267.131C722.869 265.159 721.911 265.129 714.642 266.773C708.218 268.226 706.337 269.222 704.639 272.072C701.895 276.677 701.998 279.711 705.017 283.162C706.376 284.714 707.487 286.983 707.487 288.203C707.487 289.424 709.116 292.261 711.107 294.509C714.212 298.015 714.631 299.303 714.054 303.567C713.481 307.803 713.808 308.834 716.266 310.541C720.396 313.409 728.049 313.183 729.689 310.145V310.145ZM753.363 284.692C755.986 280.162 757.144 272.091 755.459 270.078C754.718 269.194 752.505 268.47 750.541 268.47C747.836 268.47 746.375 269.437 744.522 272.449C741.4 277.525 741.443 279.043 744.844 283.996C748.233 288.93 750.787 289.139 753.363 284.692V284.692ZM697.607 510.219C697.607 509.186 696.734 507.019 695.667 505.405C694.134 503.085 694.023 501.921 695.137 499.857C695.913 498.42 696.452 495.491 696.335 493.347C695.987 486.966 696.146 486.737 701.93 485.293C706.467 484.16 707.487 483.397 707.487 481.135C707.487 476.577 710.97 472.73 714.707 473.159C717.604 473.491 717.946 474.01 717.654 477.634C717.473 479.888 715.827 484.846 713.997 488.652C712.167 492.458 710.541 496.398 710.382 497.408C709.107 505.542 707.025 509.571 703.458 510.803C698.465 512.529 697.607 512.443 697.607 510.219ZM1030.52 469.177C1029.21 467.87 1027.27 466.75 1026.2 466.688C1025.13 466.625 1021.75 466.425 1018.69 466.243C1009.3 465.683 1003.56 463.36 995.87 456.996C989.265 451.533 986.845 450.274 983.829 450.734C983.331 450.809 982.576 449.497 982.151 447.818C981.726 446.139 980.883 444.764 980.277 444.764C979.671 444.764 979.176 443.938 979.176 442.928C979.176 439.857 984.439 440.842 987.351 444.458C989.893 447.615 990.316 447.73 994.138 446.305C997.808 444.936 998.65 445.077 1002.59 447.723C1004.99 449.338 1009.38 451.045 1012.34 451.515C1017.49 452.332 1020.33 454.227 1023.02 458.636C1023.7 459.75 1025.64 460.852 1027.34 461.085C1029.29 461.352 1031.07 462.825 1032.16 465.073C1033.12 467.033 1034.37 468.821 1034.94 469.046C1035.51 469.27 1035.98 469.959 1035.98 470.576C1035.98 472.45 1033.04 471.696 1030.52 469.177V469.177ZM955.712 469.211C955.712 468.559 956.546 468.025 957.564 468.025C959.936 468.025 959.936 468.79 957.564 469.692C956.546 470.08 955.712 469.864 955.712 469.211ZM906.422 463.864C900.107 461.954 897.935 460.841 899.422 460.275C903.248 458.82 911.386 459.403 915.723 461.443C919.091 463.028 919.662 463.772 918.537 465.116C916.825 467.161 917.584 467.24 906.422 463.864V463.864ZM940.275 455.783C939.855 455.109 939.819 454.065 940.195 453.463C940.571 452.86 940.048 452.051 939.033 451.665C936.621 450.747 936.627 445.989 939.04 445.989C940.178 445.989 940.893 444.842 940.893 443.016C940.893 440.116 943.725 436.195 945.82 436.195C948.104 436.195 950.721 437.734 950.108 438.718C949.751 439.291 948.647 439.452 947.656 439.075C945.017 438.071 944.023 441.921 946.33 444.208C949.201 447.055 948.898 452.982 945.832 453.946C944.474 454.374 943.362 455.237 943.362 455.865C943.362 457.383 941.238 457.327 940.275 455.783V455.783ZM887.833 450.326C886.964 449.287 885.348 448.42 884.242 448.398C881.287 448.341 878.396 445.787 877.351 442.311C876.845 440.63 873.569 436.695 870.07 433.566C866.571 430.437 864.083 427.494 864.541 427.027C865.404 426.146 880.469 433.887 884.554 437.31C887.641 439.898 891.883 449.766 890.498 451.139C889.876 451.756 888.74 451.409 887.833 450.326V450.326ZM914.65 445.103C908.6 443.344 908.26 442.768 909.54 436.426C910.126 433.52 911.361 432.255 915.035 430.798C917.642 429.764 920.309 427.938 920.962 426.741C921.615 425.544 923.833 423.588 925.891 422.395C929.53 420.285 929.698 420.296 932.044 422.793C935.607 426.584 934.659 437.278 930.252 443.006C927.679 446.35 926.629 446.954 925.295 445.857C924.195 444.951 923.063 444.874 922.06 445.637C921.055 446.399 918.469 446.213 914.65 445.103V445.103ZM964.357 437.419C964.357 436.746 964.912 436.195 965.592 436.195C966.271 436.195 966.826 436.746 966.826 437.419C966.826 438.092 966.271 438.643 965.592 438.643C964.912 438.643 964.357 438.092 964.357 437.419ZM954.477 417.896C950.735 416.941 950.384 413.688 953.968 413.181C956.884 412.768 960.429 416.162 958.685 417.697C958.069 418.24 956.175 418.33 954.477 417.896ZM810.007 412.628C810.017 411.786 810.503 410.35 811.087 409.436C812.444 407.313 814.231 409.776 813.223 412.38C812.381 414.556 809.981 414.741 810.007 412.628ZM943.249 391.815C942.197 388.967 942.346 383.562 943.497 382.857C944.435 382.282 944.656 382.467 944.098 383.362C943.613 384.139 943.716 384.776 944.326 384.776C945.278 384.776 948.302 389.941 948.302 391.567C948.302 392.133 943.455 392.371 943.249 391.815ZM423.039 378.137C422.628 377.075 422.606 375.393 422.99 374.401C423.599 372.827 423.933 372.838 425.597 374.488C427.298 376.174 427.303 376.582 425.646 378.224C423.99 379.867 423.705 379.857 423.039 378.137ZM905.696 376.206C906.116 375.532 907.261 374.981 908.239 374.981C909.218 374.981 910.019 375.532 910.019 376.206C910.019 376.879 908.875 377.43 907.476 377.43C906.077 377.43 905.277 376.879 905.696 376.206ZM356.144 368.86C355.724 368.187 356.247 367.636 357.306 367.636C358.365 367.636 359.231 368.187 359.231 368.86C359.231 369.533 358.708 370.084 358.069 370.084C357.43 370.084 356.564 369.533 356.144 368.86ZM337.002 366.618C337.002 364.799 342.95 362.39 345.255 363.276C347.395 364.098 347.388 364.219 345.102 365.887C342.51 367.778 337.002 368.275 337.002 366.618ZM942.127 364.575C942.127 363.565 942.683 362.739 943.362 362.739C944.042 362.739 944.597 363.565 944.597 364.575C944.597 365.585 944.042 366.412 943.362 366.412C942.683 366.412 942.127 365.585 942.127 364.575ZM322.183 361.505C322.183 360.031 320.863 359.174 317.848 358.689C315.464 358.305 312.588 357.075 311.458 355.955C310.021 354.53 308.17 354.116 305.296 354.578C303.037 354.942 301.189 354.723 301.189 354.092C301.189 353.461 301.605 352.903 302.115 352.851C302.624 352.799 304.152 352.47 305.511 352.118C312.114 350.409 316.933 350.363 318.588 351.995C319.546 352.94 323.248 354.751 326.814 356.019C330.38 357.288 333.297 358.95 333.297 359.714C333.297 360.477 330.796 361.669 327.74 362.363C322.805 363.482 322.183 363.386 322.183 361.505ZM993.181 324.108C992.804 323.134 991.477 322.338 990.231 322.338C987.455 322.338 986.426 320.903 987.717 318.831C988.593 317.426 990.991 316.567 994.754 316.31C995.511 316.259 998.952 313.463 1002.4 310.097C1006.01 306.577 1009.01 304.52 1009.47 305.254C1009.9 305.956 1009.59 307.332 1008.77 308.313C1007.95 309.293 1007.69 310.095 1008.19 310.095C1008.69 310.095 1008.2 311.453 1007.1 313.113C1006.01 314.773 1005.1 317.39 1005.09 318.928C1005.06 323.088 1003.76 324.33 998.562 325.143C995.095 325.685 993.687 325.415 993.181 324.108V324.108ZM603.305 304.586C602.914 303.576 602.786 302.75 603.021 302.75C603.256 302.75 604.141 303.576 604.986 304.586C605.872 305.645 605.992 306.423 605.269 306.423C604.58 306.423 603.696 305.596 603.305 304.586ZM586.462 297.241C586.462 296.231 586.68 295.404 586.947 295.404C587.214 295.404 587.752 296.231 588.143 297.241C588.534 298.251 588.316 299.077 587.658 299.077C587 299.077 586.462 298.251 586.462 297.241ZM1010.92 290.878C1009.3 290.459 1008.93 289.607 1009.53 287.653C1009.99 286.193 1010.43 284.902 1010.52 284.786C1010.61 284.669 1012.58 284.959 1014.91 285.429C1019.2 286.301 1021.74 289.283 1018.18 289.283C1017.1 289.283 1016.22 289.834 1016.22 290.507C1016.22 291.768 1014.78 291.869 1010.92 290.878V290.878ZM1016.06 275.002C1014.84 273.553 1014.37 268.926 1014.37 258.443C1014.37 237.863 1015.82 235.063 1018.06 251.331C1018.48 254.361 1019.63 258.07 1020.62 259.573C1022.24 262.019 1022.17 262.776 1020 266.797C1018.25 270.03 1017.9 271.901 1018.75 273.477C1020.33 276.393 1018.22 277.585 1016.06 275.002V275.002ZM385.923 259.211C385.516 258.158 384.686 257.601 384.079 257.973C383.472 258.345 382.379 257.938 381.651 257.068C380.682 255.91 380.971 254.436 382.728 251.572C384.048 249.419 385.688 247.658 386.371 247.658C388.405 247.658 395.045 255.194 395.045 257.503C395.045 261.193 387.255 262.652 385.923 259.211V259.211ZM547.673 246.434C548.157 244.077 548.625 240.973 548.714 239.535C548.802 238.098 549.488 236.17 550.237 235.25C551.736 233.411 550.308 228.07 548.316 228.07C547.669 228.07 546.774 226.42 546.328 224.404C545.881 222.388 544.693 220.282 543.688 219.725C541.84 218.7 541.821 214.131 543.652 211.236C544.979 209.137 550.228 209.304 551.068 211.472C551.444 212.443 551.448 215.09 551.078 217.355C550.549 220.586 551.077 222.265 553.533 225.159C555.255 227.187 557.031 230.302 557.482 232.081C557.932 233.859 559.08 235.956 560.032 236.739C562.18 238.507 562.289 243.271 560.22 244.9C559.37 245.568 556.454 246.512 553.739 246.999C551.024 247.485 548.35 248.521 547.798 249.301C547.245 250.081 547.189 248.79 547.673 246.434V246.434ZM531.548 237.65C532.391 233.82 537.452 226.414 538.509 227.462C538.776 227.726 538.778 230.191 538.513 232.94C538.121 237.016 537.352 238.286 534.342 239.829L530.652 241.721L531.548 237.65H531.548ZM161.639 228.61C161.639 227.56 162.195 227.041 162.874 227.458C163.553 227.874 164.109 228.733 164.109 229.366C164.109 230 163.553 230.518 162.874 230.518C162.195 230.518 161.639 229.659 161.639 228.61ZM154.847 217.051C154.427 216.378 154.672 215.827 155.392 215.827C156.111 215.827 156.699 216.378 156.699 217.051C156.699 217.725 156.454 218.276 156.155 218.276C155.855 218.276 155.267 217.725 154.847 217.051ZM418.825 191.394C411.747 189.69 412.215 190.579 403.973 163.184C402.859 159.48 401.506 155.927 400.966 155.287C398.595 152.477 400.001 143.694 403.689 138.276C408.29 131.519 408.31 129.886 403.837 126.155C399.816 122.801 397.971 118.508 400.012 117.257C400.762 116.798 402.455 117.391 403.775 118.575C405.095 119.759 406.516 120.389 406.933 119.976C408.332 118.588 406.097 110.54 404.312 110.54C403.358 110.54 402.048 109.602 401.4 108.456C400.423 106.724 399.899 106.638 398.306 107.949C395.26 110.455 393.81 108.435 393.81 101.689C393.81 97.4482 393.113 94.6672 391.651 93.0647C390.276 91.5593 389.461 88.6098 389.407 84.9512C389.361 81.7897 388.894 78.5135 388.368 77.671C387.843 76.8284 386.768 73.5774 385.98 70.4465C384.902 66.1639 383.603 64.2088 380.734 62.5529C376.719 60.2354 367.51 59.4956 360.872 60.9572C357.367 61.7289 356.75 61.4268 355.006 58.0827C353.934 56.0274 353.056 54.043 353.056 53.6729C353.056 53.3028 385.775 53 425.764 53H498.472L499.437 56.9789C500.927 63.121 500.316 66.8435 497.47 68.9718C494.598 71.1197 494.406 78.3525 497.237 77.7913C499.524 77.3378 499.109 79.2593 496.394 81.6955C495.081 82.8731 494.307 84.6113 494.674 85.558C495.432 87.5172 495.603 87.4784 482.55 88.2986C477.952 88.5874 476.979 91.9327 481.046 93.4658C483.79 94.4998 484.153 95.2063 483.528 98.2996C482.939 101.22 483.329 102.194 485.54 103.324C490.63 105.924 493.841 109.694 493.841 113.071C493.841 116.977 490.826 118.616 488.601 115.92C485.077 111.648 482.673 109.317 481.8 109.324C481.29 109.328 479.894 111.037 478.697 113.122C477.354 115.462 475.853 116.658 474.774 116.248C472.857 115.518 469.906 118.236 471.211 119.529C471.658 119.972 473.578 120.335 475.479 120.335C477.67 120.335 479.418 121.23 480.256 122.783C481.122 124.386 482.842 125.232 485.239 125.232C487.998 125.232 488.901 125.798 488.901 127.53C488.901 130.698 486.688 132.235 479.98 133.726C476.377 134.526 472.497 136.593 469.534 139.291C466.941 141.652 463.708 143.589 462.349 143.596C460.248 143.607 455.386 149.039 449.645 157.792C449.161 158.529 447.114 159.907 445.095 160.852C442.566 162.037 440.805 164.236 439.431 167.925C438.334 170.869 436.15 174.24 434.578 175.415C432.651 176.856 431.934 178.362 432.375 180.036C433.274 183.443 428.313 191.903 425.268 192.156C423.927 192.268 421.028 191.925 418.825 191.394V191.394ZM358.161 179.91C356.916 178.422 355.293 178.079 351.981 178.604C347.632 179.293 347.333 179.089 342.537 172.168C337.851 165.404 337.294 165.007 332.16 164.782C320.667 164.278 322.814 154.295 334.657 153.175C338.719 152.79 338.856 152.606 338.895 147.445C338.917 144.512 338.271 141.211 337.459 140.111C336.135 138.315 335.651 138.465 332.738 141.581C329.739 144.789 329.285 144.917 326.764 143.26C321.21 139.61 323.838 136.217 332.571 135.761C336.585 135.551 336.02 133.16 331.581 131.568C329.258 130.736 327.048 129.254 326.67 128.276C326.281 127.273 325.153 126.812 324.082 127.22C322.849 127.689 322.183 127.238 322.183 125.935C322.183 123.758 317.585 121.518 315.066 122.469C314.208 122.792 312.707 122.399 311.729 121.595C310.751 120.79 308.788 120.498 307.365 120.946C305.461 121.545 303.244 120.532 298.97 117.11C295.775 114.552 292.713 111.89 292.165 111.194C291.618 110.498 291.454 106.072 291.802 101.358C292.349 93.9574 292.894 92.3946 295.803 89.8997C299.035 87.1274 299.238 87.1017 300.833 89.2638C301.826 90.6104 302.192 92.8806 301.743 94.9072C300.732 99.4719 303.978 99.4843 307.945 94.931L310.879 91.5643L312.166 94.625C314.783 100.846 316.769 102.273 322.11 101.768C324.867 101.507 327.122 101.616 327.122 102.009C327.122 102.402 329.941 102.724 333.386 102.724C340.775 102.724 342.285 104.288 341.229 110.846C340.552 115.051 340.733 115.438 343.377 115.439C347.604 115.44 355.526 123.955 355.526 128.496C355.526 130.471 354.945 132.664 354.234 133.369C353.334 134.26 354.588 135.273 358.363 136.702C361.353 137.834 364.486 140.055 365.35 141.655C366.211 143.25 369.076 145.397 371.717 146.425C375.1 147.743 376.309 148.839 375.807 150.135C375.416 151.146 375.732 153.154 376.511 154.596C378.741 158.728 376.029 160.965 369.289 160.555C362.735 160.155 361.937 161.371 364.23 168.259C365.498 172.066 365.512 173.358 364.298 174.545C363.093 175.722 362.432 175.585 361.173 173.896C359.489 171.637 355.526 170.944 355.526 172.908C355.526 173.544 356.688 174.87 358.109 175.856C359.529 176.843 360.501 178.612 360.27 179.789C359.88 181.769 359.722 181.778 358.161 179.91V179.91ZM301.519 172.703C296.779 169.396 296.539 167.429 300.306 162.763L303.116 159.282L308.945 162.089C313.383 164.227 314.773 165.568 314.773 167.713C314.773 169.753 314.062 170.529 312.192 170.529C310.773 170.529 308.689 171.645 307.561 173.009L305.511 175.488L301.519 172.703V172.703ZM503.103 171.466C501.744 170.676 498.41 169.728 495.693 169.361C490.859 168.707 490.745 168.578 490.365 163.323C489.881 156.615 491.024 155.419 496.212 157.212C499.227 158.254 500.504 158.26 501.141 157.237C501.615 156.478 504.472 155.522 507.492 155.113C512.262 154.467 513.436 154.787 516.441 157.551C520.494 161.28 520.13 162.312 512.557 168.555C506.587 173.476 506.567 173.482 503.103 171.466V171.466ZM714.372 135.174C713.989 134.56 714.506 133.742 715.521 133.356C716.536 132.97 717.367 133.155 717.367 133.768C717.367 135.427 715.172 136.458 714.372 135.174ZM219.991 129.563C211.964 125.888 211.687 123.528 219.064 121.686C222.711 120.776 224.622 119.635 224.622 118.368C224.622 116.77 223.288 116.509 216.903 116.855L209.185 117.274L209.601 110.54C210.174 101.266 212.066 98.8071 219.907 97.1401C225.776 95.8922 226.577 95.9839 228.287 98.1002C229.328 99.387 231.707 100.795 233.575 101.229C235.443 101.662 236.993 102.695 237.019 103.524C237.045 104.353 238.851 106.142 241.032 107.499C243.214 108.856 245.162 111.093 245.362 112.471C245.563 113.848 247.365 115.934 249.369 117.107C253.585 119.576 255.002 123.68 253.319 128.546C252.374 131.278 251.542 131.855 249.184 131.417C244.802 130.604 234.404 130.761 230.179 131.704C227.521 132.297 224.641 131.692 219.991 129.563V129.563ZM263.523 131.353C262.427 129.596 263.936 127.674 266.374 127.719C268.989 127.768 273.022 130.709 271.942 131.78C270.68 133.032 264.37 132.712 263.523 131.353V131.353ZM733.977 119.204C733.331 118.583 731.147 117.894 729.121 117.674C724.272 117.147 722.008 111.8 725.169 108.339C726.311 107.087 727.264 105.004 727.285 103.711C727.307 102.417 728.09 100.358 729.025 99.1355C730.463 97.2543 731.108 97.1501 733.221 98.4582C735.114 99.63 735.436 100.526 734.552 102.163C733.81 103.538 733.855 106.228 734.677 109.574C737.01 119.062 737.185 120.335 736.162 120.335C735.605 120.335 734.622 119.826 733.977 119.204V119.204ZM1134.53 116.507C1132.97 115.143 1132.34 114.348 1133.13 114.74C1133.92 115.132 1134.76 114.912 1134.98 114.252C1135.57 112.547 1140.95 114.178 1140.95 116.061C1140.95 118.82 1137.46 119.063 1134.53 116.507ZM190.579 109.571C187.734 107.668 185.486 102.983 186.04 100.111C186.363 98.4402 187.052 97.0735 187.573 97.0735C188.977 97.0735 190.296 92.1089 190.069 87.6746C189.757 81.5889 193.768 80.482 206.83 83.049C209.913 83.6547 215.977 89.3853 215.977 91.6925C215.977 92.5893 213.504 95.1311 210.481 97.3408C207.459 99.5505 204.45 102.821 203.794 104.61C203.139 106.398 201.583 108.137 200.336 108.475C194.458 110.067 191.771 110.369 190.579 109.571V109.571ZM261.258 108.5C260.806 108.051 260.432 106.812 260.427 105.745C260.424 104.679 258.617 102.781 256.414 101.528L252.408 99.2481L255.187 97.3993C256.8 96.3258 257.965 94.2973 257.965 92.5617C257.965 89.9271 258.441 89.6183 261.979 89.9564C265.424 90.2857 266.047 90.86 266.378 94.0128C266.59 96.0329 267.666 98.3725 268.77 99.212C270.62 100.619 270.615 101.073 268.713 105.027C266.786 109.033 263.392 110.615 261.259 108.5H261.258ZM274.49 97.3796C274.044 95.5279 273.264 93.4619 272.757 92.7886C271.496 91.1155 273.532 86.1637 275.842 85.2849C276.878 84.8911 278.697 84.9861 279.886 85.4959C281.074 86.0058 283.158 86.6221 284.517 86.8654C285.875 87.1088 287.638 87.5432 288.434 87.8309C290.726 88.6588 288.894 93.0866 285.314 95.3728C283.517 96.5202 281.602 98.1986 281.059 99.1026C279.289 102.048 275.367 101.019 274.49 97.3796V97.3796ZM321.386 94.3627C318.846 92.5734 317.592 90.7009 317.699 88.8544C317.898 85.4116 318.513 85.379 322.634 88.5925C324.423 89.9881 325.888 90.747 325.888 90.279C325.888 89.811 326.709 90.1043 327.714 90.9308C329.07 92.0466 329.218 93.031 328.288 94.7535C326.697 97.7004 326.075 97.6652 321.386 94.3627V94.3627ZM1009.4 92.1228C1008.31 90.3718 1011.1 87.2794 1013.77 87.2794C1016.08 87.2794 1017.95 90.4001 1016.77 92.2869C1015.82 93.8154 1010.38 93.6943 1009.4 92.1228V92.1228ZM733.421 89.2163C733.421 88.2305 733.902 87.1294 734.489 86.7694C735.077 86.4094 735.86 83.8767 736.231 81.1413C737.045 75.1226 740.118 70.1409 743.02 70.1364C744.22 70.1346 746.234 68.1252 747.624 65.5454C750.026 61.0863 750.298 60.953 757.319 60.7911C762.544 60.6706 765.52 59.9084 768.073 58.0365C772.239 54.9837 773.663 54.81 774.604 57.2399C775.355 59.1817 770.769 63.3706 766.379 64.7519C764.92 65.2108 762.272 67.1302 760.494 69.0171C758.716 70.9041 755.648 72.8363 753.677 73.3109C750.521 74.0708 739.596 84.066 739.596 86.1937C739.596 86.636 738.206 87.9002 736.508 89.0032C733.896 90.7003 733.421 90.7331 733.421 89.2163V89.2163ZM295.631 79.3742C293.594 78.4792 290.429 77.1627 288.598 76.4487C285.649 75.2985 285.172 74.2979 284.416 67.6714C283.59 60.4314 283.413 60.133 278.886 58.3374C272.986 55.997 271.47 52.9838 276.22 53.0389C278.066 53.0603 280.656 53.8867 281.974 54.8753C283.293 55.8639 285.377 56.6728 286.605 56.6728C287.834 56.6728 288.857 57.3614 288.878 58.2031C288.974 61.9181 292.389 63.9449 300.665 65.1979C305.368 65.9099 311.855 67.0926 315.082 67.8261C320.455 69.0477 320.948 69.4638 320.948 72.7826C320.948 75.2043 320.476 76.1166 319.525 75.5341C318.743 75.0548 317.399 75.6168 316.539 76.7829C315.292 78.4743 314.466 78.633 312.458 77.5676C310.466 76.5108 309.092 76.7451 305.873 78.6905C301.18 81.5273 300.619 81.5648 295.631 79.3742V79.3742ZM221.566 75.9115L222.374 71.6398L216.706 72.2733C211.452 72.8603 211.037 72.7038 211.037 70.1349C211.037 68.6104 211.681 65.2332 212.468 62.6301C214.09 57.2626 216.78 56.4904 220.326 60.3745C222 62.2082 222.832 62.4594 223.529 61.3414C224.238 60.2041 225.097 60.3924 227.004 62.1033C229.502 64.3447 229.563 64.3148 231.418 59.9122C232.453 57.4572 233.515 55.4485 233.778 55.4485C234.042 55.4485 235.405 57.3767 236.807 59.7335C238.413 62.4311 240.302 64.0184 241.908 64.0184C245.434 64.0184 246.161 66.7679 243.821 71.2535C241.675 75.3676 239.769 76.0854 238.653 73.2004C237.942 71.3651 234.371 70.5463 234.647 72.2822C235.356 76.7311 234.409 77.7908 230.312 77.1317C227.598 76.695 225.178 77.1135 223.44 78.3204C220.81 80.1466 220.774 80.0993 221.566 75.9115V75.9115ZM1000.36 77.6373L996.226 75.4631L1000.36 71.1685C1003.76 67.6367 1005.4 66.8649 1009.61 66.8235C1013.87 66.7816 1014.97 67.2766 1016.11 69.7724C1017.94 73.747 1016.93 75.0368 1011.98 75.0368C1009.32 75.0368 1007.29 75.874 1006.19 77.4241C1004.54 79.7384 1004.37 79.745 1000.36 77.6373V77.6373ZM274.275 76.7901C272.799 75.7654 271.13 73.1621 270.566 71.0049C269.222 65.8623 265.375 64.9026 265.375 69.7098V73.1323L262.722 70.5024C260.302 68.1031 259.824 68.0315 257.278 69.6856C254.623 71.4103 254.447 71.3213 253.68 67.8592C253.237 65.8575 251.796 62.9883 250.48 61.4832C247.285 57.831 247.436 56.1776 250.864 57.2835C254.377 58.4167 257.834 58.4227 261.292 57.3014C263.581 56.5595 264.29 57.1079 265.86 60.8329C266.882 63.2582 268.538 65.2426 269.54 65.2426C272.986 65.2426 279.037 71.4166 278.619 74.5078C278.074 78.5423 277.348 78.9239 274.275 76.7901V76.7901ZM1029.19 76.261C1028.77 75.5877 1029.54 75.0368 1030.9 75.0368C1032.26 75.0368 1033.71 75.5877 1034.13 76.261C1034.55 76.9344 1033.78 77.4853 1032.42 77.4853C1031.07 77.4853 1029.61 76.9344 1029.19 76.261ZM316.151 58.4405C312.972 55.7887 311.991 55.5277 309.725 56.7301C307.776 57.7644 306.256 57.7902 304.12 56.825C298.031 54.0747 301.013 52.9062 313.215 53.2617C323.168 53.5517 325.308 53.9559 325.626 55.606C326.013 57.612 322.913 61.5698 320.954 61.5698C320.376 61.5698 318.214 60.1617 316.151 58.4405V58.4405ZM198.932 58.8736C198.118 58.0672 197.453 56.4157 197.453 55.2037C197.453 53.3964 198.489 53 203.216 53C206.386 53 208.745 53.1377 208.458 53.3061C208.172 53.4744 206.244 55.1259 204.174 56.976C201.251 59.5888 200.081 60.0125 198.932 58.8736V58.8736Z" fill="#38454F"/>
</svg>
