<svg width="1106" height="573" viewBox="0 0 1106 573" fill="none" xmlns="http://www.w3.org/2000/svg">
<path d="M283.604 572.272C282.26 570.94 284.145 567.052 286.42 566.462C289.196 565.742 291.85 568.522 290.851 571.103C290.165 572.875 285.045 573.701 283.604 572.272ZM275.742 561.317C275.292 559.54 273.651 557.606 272.096 557.02C269.539 556.056 269.281 555.213 269.4 548.233C269.473 543.987 269.097 537.968 268.564 534.859C267.835 530.6 268.082 528.273 269.564 525.431C272.102 520.565 272.126 512.531 269.609 510.46C267.192 508.471 267.633 502.588 270.569 497.663C271.773 495.643 272.763 493.164 272.77 492.154C272.776 491.144 273.611 488.743 274.624 486.817C276.468 483.311 279.557 473.289 281.291 465.187C282.373 460.128 282.025 444.672 280.577 433.487C279.605 425.978 279.311 425.455 274.002 421.759C267.253 417.061 257.948 404.356 257.948 399.84C257.948 399.102 255.864 396.763 253.317 394.643C249.147 391.172 248.697 390.226 248.804 385.153C248.874 381.843 249.741 378.623 250.906 377.346C251.998 376.151 253.256 372.904 253.704 370.132C254.27 366.62 255.552 364.332 257.928 362.59C261.67 359.848 261.787 356.734 258.429 349.293C256.669 345.393 256.659 345.39 252.349 347.175C248.152 348.913 247.933 348.863 244.468 345.349C242.508 343.361 240.571 342.064 240.164 342.468C239.757 342.872 239.423 342.334 239.423 341.274C239.423 340.214 236.95 337.795 233.927 335.899C230.904 334.003 227.765 331.22 226.953 329.715C225.028 326.15 216.043 322.007 210.67 322.207C206.158 322.375 185.086 313.085 185.086 310.928C185.086 310.274 184.391 309.727 183.542 309.713C181.77 309.683 175.952 301.882 174.679 297.83C174.208 296.33 171.947 292.877 169.654 290.157C167.362 287.437 164.565 283.155 163.439 280.642C161.116 275.456 156.172 271.249 153.565 272.24C152.058 272.814 152.055 273.584 153.545 277.769C155.193 282.4 158.81 288.837 160.5 290.151C161.891 291.23 163.063 296.272 161.923 296.272C159.32 296.272 150.516 283.458 148.613 276.899C147.504 273.077 145.15 268.435 143.381 266.583C141.612 264.732 140.63 263.217 141.197 263.217C142.131 263.217 138.806 259.875 132.488 254.465C129.251 251.693 125.288 246.702 124.723 244.686C123.675 240.947 122.394 223.212 122.959 220.262C123.293 218.521 123.028 215.164 122.37 212.803C121.484 209.621 121.63 207.437 122.936 204.359C125.42 198.502 124.37 196.008 116.632 189.386C109.891 183.616 108.261 181.068 104.152 169.884C102.98 166.695 101.261 163.46 100.331 162.695C99.4 161.929 98.639 160.808 98.639 160.202C98.639 159.597 97.176 156.91 95.388 154.231C92.916 150.528 91.327 149.36 88.762 149.36C86.906 149.36 83.975 148.258 82.248 146.912C80.521 145.565 78.028 144.463 76.708 144.463C73.368 144.463 67.053 142.365 59.496 138.743C55.966 137.052 52.578 135.974 51.966 136.349C51.355 136.724 50.804 138.787 50.743 140.933C50.641 144.464 48.933 146.843 46.463 146.893C44.994 146.923 45.376 143.918 47.473 138.942C49.872 133.252 48.221 130.783 44.491 134.481C40.533 138.405 38.3 143.588 39.002 147.224C39.482 149.715 39.064 150.773 37.341 151.424C36.0752 151.903 32.1001 154.665 28.5077 157.561C24.9154 160.457 21.2105 162.827 20.2747 162.827C19.3389 162.827 18.3393 163.516 18.0533 164.357C17.7673 165.199 17.1251 163.743 16.6262 161.121C16.1273 158.499 14.9256 155.567 13.9559 154.606C12.9861 153.645 12.1927 151.589 12.1927 150.038C12.1927 143.351 10.5795 139.435 7.08777 137.645C5.06067 136.606 3.54796 134.828 3.54796 133.486C3.54796 132.196 3.01257 130.813 2.35807 130.412C0.948568 129.548 5.31807 124.883 7.56157 124.856C8.41067 124.847 11.3282 124.075 14.0451 123.142C18.3691 121.657 19.031 120.924 19.3547 117.264C19.6768 113.621 19.1976 112.802 15.6322 110.898C13.3815 109.697 10.1586 108.909 8.47017 109.148C4.31667 109.737 -0.508132 105.346 0.043268 101.48C0.388468 99.06 1.07427 98.618 4.00767 98.929C5.95847 99.136 8.94347 100.207 10.6409 101.31C13.5092 103.173 13.8351 103.168 15.2572 101.24C16.0988 100.099 17.4207 99.165 18.1949 99.165C18.969 99.165 19.6024 97.788 19.6024 96.105C19.6024 93.656 18.9849 93.044 16.515 93.044C14.817 93.044 13.4276 92.518 13.4276 91.875C13.4276 89.975 7.19487 84.365 5.93817 85.135C5.30277 85.524 4.77537 85.122 4.76607 84.24C4.75687 83.359 4.43067 81.461 4.04127 80.022C3.45287 77.848 4.32777 76.918 9.22107 74.513C12.4594 72.922 15.9426 70.188 16.9615 68.439C17.9804 66.69 21.23 63.988 24.1828 62.436C28.8442 59.984 29.9428 59.82 32.5208 61.187C34.1539 62.054 36.4395 62.402 37.6 61.96C38.76 61.519 40.982 61.984 42.536 62.994C44.091 64.003 47.763 65.165 50.698 65.574C53.632 65.983 57.978 67.003 60.356 67.839C62.733 68.675 66.836 69.164 69.474 68.926C72.586 68.644 75.405 69.239 77.501 70.62C79.278 71.79 81.566 72.877 82.585 73.035C83.604 73.194 85.661 74.73 87.157 76.45C90.742 80.573 93.89 80.399 97.678 75.866C101.101 71.769 107.333 69.441 111.861 70.568C114.492 71.223 114.733 70.961 114.197 68.027C113.79 65.802 114.209 64.524 115.506 64.03C117.701 63.195 119.381 65.264 120.444 70.115C121.347 74.235 122.659 75.179 125.382 73.668C127.418 72.539 133.066 74.106 138.775 77.385C140.133 78.165 143.19 79.122 145.567 79.513C148.865 80.054 149.985 80.887 150.293 83.026C150.542 84.757 151.96 86.277 153.998 86.997C155.814 87.639 158.774 88.986 160.577 89.992C165.541 92.76 167.319 92.266 171.662 86.908C175.326 82.388 175.996 82.059 180.056 82.783C182.483 83.215 185.136 84.094 185.953 84.735C186.769 85.376 188.485 85.571 189.765 85.168C191.192 84.719 193.848 85.616 196.626 87.485C201.021 90.441 201.203 90.463 202.631 88.196C203.694 86.507 205.014 86.038 207.379 86.507C211.612 87.346 215.959 82.232 215.959 76.414C215.959 73.215 215.044 71.664 211.637 69.088C207.167 65.708 205.842 60.715 208.67 57.911C211.07 55.532 216.813 59.814 216.936 64.073C216.993 66.072 217.55 68.037 218.173 68.439C218.796 68.842 219.974 71.203 220.791 73.686C221.793 76.733 223.122 78.325 224.879 78.583C226.567 78.831 227.97 80.404 228.866 83.054C231.058 89.538 234.046 90.392 238.318 85.755C240.284 83.621 241.893 80.899 241.893 79.706C241.893 76.744 242.825 76.055 245.789 76.823C247.806 77.346 248.168 78.162 247.61 80.928C247.227 82.826 247.444 84.704 248.091 85.101C249.357 85.876 249.093 89.988 247.688 91.38C247.218 91.846 246.833 93.513 246.833 95.085C246.833 97.394 246.174 97.941 243.389 97.941C241.495 97.941 237.744 99.062 235.054 100.431C232.363 101.8 229.045 102.65 227.681 102.318C224.521 101.551 221.067 103.516 222.762 105.117C223.436 105.753 225.052 106.464 226.354 106.698C227.656 106.932 228.935 107.758 229.195 108.533C229.719 110.093 222.965 113.857 219.641 113.857C213.595 113.857 208.022 122.933 206.687 134.956C206.258 138.817 205.39 142.293 204.758 142.68C203.298 143.575 203.31 146.995 204.784 149.304C205.747 150.814 206.386 150.836 209.004 149.447C213.659 146.977 215.959 148.488 215.959 154.015C215.959 159.508 216.904 160.917 219.279 158.964C221.896 156.811 226.709 159.592 228.751 164.436C230.273 168.048 231.205 168.673 236.038 169.33C244.577 170.49 248.388 172.587 247.452 175.61C247.023 176.996 246.431 178.957 246.137 179.967C245.822 181.049 247.501 183.219 250.225 185.25L254.849 188.697L257.633 185.488C259.619 183.199 260.418 180.719 260.418 176.838C260.418 173.845 260.467 171.259 260.527 171.091C262.139 166.579 262.298 159.234 260.885 154.579C259.551 150.184 259.463 147.209 260.48 140.898C262.687 127.212 262.709 127.151 265.079 128.322C266.251 128.9 270.405 130.054 274.311 130.885C278.68 131.815 281.412 133.03 281.412 134.043C281.412 134.948 282.003 135.885 282.726 136.124C283.449 136.363 284.355 138.877 284.738 141.711C285.347 146.213 286.12 147.262 290.851 150.01C296.804 153.469 298.701 153.164 298.701 148.748C298.701 144.759 300.739 143.814 301.643 147.384C302.047 148.982 304.607 153.926 307.332 158.372C310.056 162.818 312.286 166.78 312.286 167.177C312.286 168.316 315.138 170.617 319.122 172.691C322.366 174.381 322.776 175.221 322.722 180.078C322.637 187.754 317.579 193.434 310.83 193.434C308.216 193.434 305.057 192.802 303.811 192.03C299.116 189.124 288.821 194.823 288.821 200.328C288.821 202.155 289.343 203.053 290.127 202.573C290.844 202.133 292.674 202.082 294.192 202.46C296.188 202.956 296.938 204.032 296.9 206.345C296.858 208.977 297.695 209.834 301.634 211.191C308.674 213.615 309.302 214.7 306.179 219.049C304.427 221.487 302.414 222.816 300.469 222.816C296.992 222.816 296.758 221.915 299.301 218.316C300.933 216.005 300.923 215.638 299.207 214.985C295.898 213.726 286.632 220.028 276.904 230.152C273.76 233.425 270.618 235.899 268.659 236.644C267.445 237.106 266.56 238.835 266.514 240.835C266.29 250.505 265.653 252.074 259.823 257.335C251.834 264.542 250.162 268.112 251.089 275.982C251.582 280.166 251.264 283.724 250.165 286.316C248.505 290.23 248.461 290.246 245.708 288.036C243.205 286.027 243.085 285.464 244.502 282.381C245.46 280.296 245.62 278.632 244.911 278.126C244.27 277.669 243.134 276.194 242.386 274.847C240.435 271.335 232.577 270.851 229.094 274.029C226.884 276.045 225.016 276.375 217.574 276.063C207.184 275.628 201.832 277.797 198.439 283.818C194.554 290.713 197.165 306.809 202.39 308.164C203.74 308.514 204.845 309.261 204.845 309.824C204.845 311.072 211.942 313.12 215.345 312.855C216.702 312.749 220.142 311.126 222.989 309.248C225.837 307.37 228.754 306.194 229.473 306.634C231.379 307.802 231.069 311.649 228.926 313.412C224.503 317.051 227.739 321.981 234.55 321.981C241.074 321.981 245.987 326.723 245.231 332.289C244.922 334.558 244.336 336.95 243.928 337.604C242.621 339.701 247.624 343.099 250.626 342.154C252.131 341.681 255.417 341.966 257.929 342.788C261.767 344.043 263.107 343.969 266.323 342.32C268.428 341.241 271.137 338.702 272.342 336.679C273.548 334.655 274.967 333 275.496 333C276.879 333 276.012 337.333 274.193 339.505C273.138 340.765 273.062 341.606 273.953 342.152C275.724 343.237 280.478 341.63 282.133 339.386C283.192 337.95 284.777 337.763 289.547 338.515C292.884 339.04 297.857 339.358 300.598 339.219C306.26 338.934 311.177 342.015 314.147 347.708C315.545 350.388 317.583 351.644 323.075 353.21C331.344 355.569 336.37 359.713 339.62 366.855C341.176 370.273 343.084 372.337 345.442 373.152C347.371 373.819 350.951 376.107 353.397 378.236C357.644 381.932 358.067 382.042 362.733 380.657C369.643 378.604 375.543 380.026 379.433 384.681C381.218 386.816 382.678 389.111 382.678 389.779C382.678 390.448 383.887 392.27 385.364 393.829C387.942 396.55 387.976 396.898 386.195 402.478C384.638 407.355 383.889 408.242 381.542 407.98C379.623 407.767 378.541 408.439 378.097 410.123C377.741 411.473 376.866 412.577 376.153 412.577C375.44 412.577 375.205 412.922 375.63 413.344C376.056 413.766 375.489 415.832 374.37 417.935C373.251 420.038 371.929 425.054 371.433 429.082C370.431 437.207 366.59 441.959 361.026 441.959C359.176 441.959 357.241 443.161 355.953 445.11C354.612 447.139 353.083 448.057 351.659 447.688C347.078 446.501 345.912 448.869 342.611 466.059C341.882 469.854 339.589 473.79 338.108 473.79C337.415 473.79 335.693 476.545 334.281 479.911C332.87 483.278 330.978 486.033 330.078 486.033C329.177 486.033 327.014 484.518 325.272 482.666C322.593 479.82 321.915 479.583 320.886 481.136C320.217 482.146 319.939 484.9 320.27 487.257C320.646 489.94 320.07 493.143 318.728 495.827C316.993 499.295 315.881 500.112 312.891 500.112C308.981 500.112 307.067 501.311 305.839 504.529C305.426 505.611 303.31 506.85 301.136 507.281C297.219 508.057 297.192 508.113 298.03 513.652C299.007 520.109 297.876 522.047 291.62 524.638C287.76 526.237 287.492 526.691 288.225 530.383C288.664 532.587 289.317 535.899 289.677 537.742C290.118 539.996 289.224 543.194 286.946 547.513C285.084 551.044 282.914 556.144 282.125 558.846C280.397 564.762 276.952 566.096 275.742 561.317ZM219.049 227.713C219.278 227.713 220.389 224.958 221.517 221.592C222.645 218.225 223.968 215.47 224.456 215.47C226.28 215.47 228.309 218.501 228.309 221.224C228.309 222.773 228.901 224.04 229.625 224.04C232.089 224.04 235.719 221.511 235.719 219.795C235.719 218.854 236.83 217.734 238.189 217.307C242.591 215.922 240.82 213.231 233.304 209.887C227.965 207.512 225.652 205.733 224.867 203.396C223.994 200.801 222.967 200.153 219.563 200.049C217.241 199.978 213.917 199.528 212.176 199.05C207.918 197.88 202.123 202.179 204.6 204.671C205.484 205.561 208.263 206.288 210.775 206.288C214.529 206.288 215.41 206.764 215.726 208.96C215.937 210.43 215.242 213.295 214.182 215.327C213.122 217.359 212.255 220.187 212.255 221.611C212.255 225.604 214.657 229.225 216.773 228.42C217.795 228.031 218.819 227.713 219.049 227.713ZM191.962 185.024C191.511 181.906 191.029 177.867 190.892 176.048C190.51 170.981 188.473 169.603 184.296 171.588C180.001 173.628 179.078 176.956 182.556 177.857C184.996 178.49 185.777 181.015 185.259 186.598C185.14 187.889 186.273 190.243 187.777 191.831C190.215 194.404 190.635 194.499 191.647 192.705C192.272 191.598 192.414 188.141 191.962 185.024ZM153.617 145.553C162.749 138.084 163.422 136.593 158.226 135.34C156.358 134.889 153.933 133.373 152.838 131.97C149.685 127.934 147.63 130.302 148.498 136.968C149.289 143.038 148.66 144.8 145.259 146.044C142.44 147.075 142.458 150.584 145.281 150.584C146.482 150.584 150.233 148.32 153.617 145.553ZM133.608 114.898C135.091 114.123 136.722 112.884 137.231 112.143C137.87 111.215 138.525 111.363 139.341 112.622C140.701 114.721 142.444 113.49 144.815 108.756C145.602 107.185 147.483 105.723 148.994 105.508C150.676 105.268 151.742 104.258 151.742 102.903C151.742 100.049 149.695 98.428 144.372 97.066C140.858 96.166 139.087 96.494 134.493 98.898C124.456 104.149 120.753 109.421 127.47 108.896C132.011 108.542 132.326 108.87 130.337 111.88C127.6 116.02 128.994 117.305 133.608 114.898ZM1039.39 557.995C1036.24 554.147 1038.19 550.782 1048.61 542.043C1052.56 538.728 1055.4 539.263 1055.12 543.267C1054.76 548.276 1054.57 548.953 1053.73 548.12C1053.31 547.704 1052.15 548.163 1051.17 549.141C1050.18 550.119 1048.27 550.919 1046.92 550.919C1045.57 550.919 1044.79 551.444 1045.19 552.087C1046.25 553.78 1044.65 559.213 1042.89 559.88C1042.07 560.192 1040.5 559.344 1039.39 557.995ZM1050.16 547.26C1050.59 546.566 1050.1 546.361 1049 546.779C1046.86 547.593 1046.47 548.47 1048.24 548.47C1048.88 548.47 1049.74 547.926 1050.16 547.26ZM965.4 541.864C963.28 540.808 962.6 539.585 962.92 537.4C963.15 535.745 963.43 534.306 963.53 534.202C963.93 533.8 967.55 533.495 970.28 533.634C972.79 533.762 973.09 534.318 972.75 538.26C972.32 543.241 970.22 544.272 965.4 541.864ZM1062.15 529.342C1061.28 528.416 1060.94 527.658 1061.39 527.658C1061.83 527.658 1061.55 526.88 1060.76 525.93C1059.72 524.693 1059.69 523.968 1060.66 523.375C1061.41 522.919 1061.76 520.954 1061.45 519.007C1060.89 515.484 1060.9 515.478 1063.83 517.584C1065.44 518.748 1066.78 520.613 1066.8 521.728C1066.83 523.147 1067.58 523.563 1069.31 523.115C1072.58 522.267 1072.45 524.541 1069.03 527.932C1065.69 531.242 1064.23 531.542 1062.15 529.342ZM963.1 519.608C959.92 518.513 958.34 518.48 957.1 519.483C955.36 520.883 953.64 519.364 947.78 511.271C946.49 509.483 944.11 507.691 942.48 507.287C940.75 506.856 939.61 505.731 939.73 504.557C940.5 496.674 937.71 494.791 932.23 499.5C928.569 502.648 927.473 502.584 926.154 499.143C924.323 494.37 921.265 492.805 913.85 492.843C908.928 492.869 904.679 493.886 899.217 496.347C892.838 499.221 890.405 499.704 885.015 499.165C881.437 498.807 876.166 499.121 873.301 499.862C870.436 500.604 867.72 500.841 867.264 500.39C866.809 499.939 866.274 497.315 866.077 494.56C865.879 491.806 865.078 488.789 864.297 487.856C863.517 486.924 862.596 484.342 862.252 482.118C861.908 479.894 860.638 476.973 859.43 475.627C857.753 473.758 857.475 472.326 858.257 469.578C858.9 467.317 858.786 465.388 857.951 464.391C857.208 463.503 857.042 461.851 857.574 460.645C858.097 459.458 858.441 458.086 858.338 457.595C858.042 456.185 864.951 453.056 870.104 452.266C881.665 450.495 883.286 449.85 885.323 446.206C886.44 444.207 888.336 442.383 889.534 442.153C890.733 441.923 893.266 440.013 895.162 437.91C898.032 434.725 898.921 434.342 900.474 435.62C904.434 438.878 907.303 438.229 913.341 432.709C916.598 429.731 920.236 427.288 921.425 427.281C922.613 427.274 923.586 426.766 923.586 426.152C923.586 424.95 925.052 425.042 929.503 426.523C931.992 427.352 932.29 428.155 931.973 433.182C931.615 438.867 931.643 438.913 937.17 441.486C946.5 445.828 949.41 446.136 950.63 442.908C951.21 441.376 951.21 439.825 950.64 439.461C949.27 438.592 951.11 431.843 952.88 431.259C953.63 431.01 954.61 431.924 955.04 433.29C955.48 434.656 957.61 437.002 959.78 438.502C964.89 442.039 965.53 443.042 965.55 447.543C965.57 450.391 966.89 452.494 971.04 456.305C974.05 459.063 976.76 461.067 977.07 460.759C977.87 459.969 985.33 469.138 985.33 470.906C985.33 471.707 985.98 472.574 986.76 472.834C988.84 473.52 989.94 483.4 988.57 489.093C987.93 491.787 986.1 495.909 984.51 498.254C982.93 500.598 981.63 503.778 981.63 505.32C981.63 508.097 973.15 518.355 969.36 520.171C968.29 520.679 965.48 520.425 963.1 519.608ZM557.921 490.175C555.597 487.398 551.848 477.029 549.784 467.669C549.413 465.985 548.426 464.057 547.59 463.384C545.034 461.325 542.362 455.093 541.643 449.516C541.268 446.602 540.117 443.294 539.086 442.165C535.787 438.551 535.34 428.812 538.035 419.231C540.141 411.74 540.252 410.02 538.863 406.377C537.98 404.063 535.796 398.356 534.008 393.694C532.22 389.032 529.861 384.568 528.767 383.775C527.144 382.599 526.924 380.938 527.574 374.772L528.371 367.212L524.767 366.497C522.785 366.104 520.036 364.742 518.659 363.47C517.282 362.198 515.636 361.158 515.001 361.158C514.366 361.158 513.527 360.331 513.136 359.321C512.206 356.918 506.242 356.961 502.735 359.396C499.807 361.43 494.199 361.096 486.783 358.448C483.778 357.375 482.062 357.384 479.624 358.485C473.397 361.298 469.445 360.316 463.577 354.499C460.561 351.509 457.771 347.791 457.376 346.235C456.98 344.679 454.756 342.173 452.433 340.666C446.283 336.676 444.484 332.485 445.726 325.042C446.288 321.675 446.781 315.726 446.821 311.82C446.907 303.6 448.997 298.845 455.541 291.987C458.111 289.294 460.589 285.85 461.048 284.335C461.506 282.82 462.385 281.581 463.001 281.581C465.409 281.581 471.894 273.288 474.49 266.89C477.432 259.638 477.08 259.785 487.433 261.47C491.699 262.165 493.713 261.816 497.441 259.739C501.254 257.615 504.545 257.079 515.417 256.811C528.008 256.501 528.779 256.624 529.702 259.084C530.313 260.714 530.022 262.938 528.922 265.04C526.251 270.143 526.635 270.562 533.976 270.562C537.721 270.562 541.75 271.033 542.929 271.609C544.109 272.184 547.695 273.487 550.9 274.503C556.353 276.234 556.859 276.206 558.809 274.069C561.119 271.54 563.175 271.225 566.393 272.908C572.336 276.016 577.882 277.869 582.824 278.399C585.834 278.722 589.829 279.359 591.703 279.816C593.576 280.272 596.64 280.017 598.512 279.248C604.242 276.895 609.487 264.314 606.493 260.105C604.943 257.925 595.996 255.852 589.532 256.175C583.505 256.476 583.347 256.395 582.939 252.811C582.709 250.79 582.005 248.519 581.374 247.763C579.159 245.107 581.641 242.918 590.793 239.454C599.4 236.197 600.471 236.058 606.513 237.417C618.208 240.049 619.722 240.238 622.86 239.457C627.66 238.262 626.688 234.509 619.788 227.596C616.392 224.194 613.613 220.408 613.613 219.183C613.613 216.974 611.321 215.47 607.955 215.47C606.823 215.47 606.204 216.8 606.204 219.228C606.204 222.425 605.789 222.928 603.425 222.595C601.614 222.34 600.505 221.219 600.242 219.374C600.019 217.818 599.042 216.243 598.071 215.873C595.398 214.856 590.562 218.572 589.596 222.385C589.125 224.245 587.668 226.512 586.357 227.422C584.934 228.41 583.974 230.507 583.974 232.632C583.974 237.044 579.743 241.18 575.229 241.18C571.72 241.18 570.39 243.038 570.39 247.941C570.39 252.25 568.568 252.58 564.323 249.04C561.812 246.945 559.864 243.638 558.597 239.316C556.877 233.451 556.096 232.488 551.12 230.1C548.063 228.633 544.694 226.119 543.633 224.512C541.19 220.818 537.046 220.594 537.046 224.157C537.046 228.249 541.491 233.334 547.524 236.145C553.489 238.925 554.149 240.017 551.288 242.372C550.291 243.192 549.523 244.224 549.582 244.664C550.204 249.334 546.336 250.015 545.178 245.44C544.748 243.743 543.16 240.904 541.648 239.132C538.42 235.346 526.954 224.04 526.343 224.04C526.112 224.04 523.849 225.142 521.315 226.489C518.78 227.836 514.923 228.937 512.744 228.937C508.757 228.937 504.938 232.408 504.938 236.031C504.938 237.665 501.936 241.308 500.659 241.224C500.296 241.2 499.453 241.18 498.788 241.18C498.123 241.18 496.381 243.521 494.917 246.383C492.133 251.827 490.288 253.671 488.636 252.659C488.096 252.328 486.08 252.978 484.158 254.104C480.921 256 480.375 256.004 476.782 254.162C472.055 251.739 470.481 249.043 470.579 243.538C470.62 241.231 470.397 237.932 470.084 236.208C469.771 234.483 469.991 231.795 470.574 230.234C471.531 227.669 472.135 227.478 476.862 228.253C490.536 230.496 489.889 230.674 490.838 224.405C491.823 217.894 489.469 212.661 485.267 212.019C483.86 211.803 482.709 210.924 482.709 210.063C482.709 207.646 487.072 203.228 489.459 203.228C494.012 203.228 500.075 199.01 512.15 187.442C524.057 176.036 524.697 175.167 524.697 170.388C524.697 163.246 527.864 164.857 528.889 172.52L529.675 178.392L537.783 179.143C544.08 179.726 546.562 179.458 548.893 177.943C550.812 176.697 553.208 176.254 555.537 176.716C559.693 177.54 560.541 176.66 562.436 169.563C563.715 164.777 563.872 164.663 569.229 164.663C574.593 164.663 574.721 164.57 575.122 160.383C575.648 154.892 576.999 153.369 582.901 151.616C589.89 149.54 591.404 147.248 587.644 144.437C583.462 141.309 579.202 140.745 573.773 142.6C568.109 144.534 567.616 143.939 567.099 134.535C566.776 128.661 567.316 126.383 570.42 120.533C574.87 112.148 575.716 106.2 572.553 105.551C569.246 104.872 563.147 112.376 564.822 115.063C565.548 116.229 556.122 126.099 554.283 126.099C553.045 126.099 550.598 133.414 551.004 135.902C551.17 136.916 552.265 139.105 553.438 140.765C555.742 144.026 556.295 149.996 554.402 151.156C553.759 151.55 551.407 155.164 549.177 159.186C546.946 163.209 544.502 166.5 543.745 166.5C541.703 166.5 538.281 162.34 538.281 159.859C538.281 156.871 534.376 150.584 532.519 150.584C531.68 150.584 530.55 151.273 530.007 152.115C529.464 152.956 528.073 154.38 526.917 155.277C525.091 156.694 524.319 156.407 521.051 153.092C518.981 150.993 517.287 148.028 517.287 146.502C517.287 144.977 516.642 143.089 515.855 142.308C515.066 141.527 514.524 138.026 514.649 134.525C514.894 127.676 515.658 126.659 523.771 122.374C528.372 119.944 533.323 113.597 535.191 107.735C535.727 106.052 537.197 103.955 538.458 103.075C539.719 102.195 540.751 100.433 540.751 99.16C540.751 97.886 543.415 93.648 546.67 89.741C549.926 85.834 553.561 80.579 554.748 78.063C557.101 73.076 560.841 70.401 563.86 71.55C564.916 71.952 568.624 70.714 572.099 68.8C576.849 66.184 580.18 65.29 585.518 65.197C593.557 65.058 594.715 66.801 589.934 71.847L587.249 74.68H591.697C594.97 74.68 596.786 75.488 598.573 77.741C600.281 79.893 602.203 80.801 605.049 80.801C607.275 80.801 610.15 81.747 611.439 82.903C612.727 84.058 615.751 86.124 618.16 87.494C621.122 89.177 623.05 91.478 624.115 94.6C625.551 98.811 625.472 99.367 623.214 100.935C621.853 101.88 619.913 102.339 618.904 101.955C617.895 101.571 616.63 101.961 616.093 102.822C614.735 105.001 608.073 102.017 606.089 98.34C604.812 95.975 601.164 94.31 596.941 94.166C596.262 94.143 595.394 95.396 595.013 96.951C594.481 99.118 595.201 100.431 598.1 102.582C602.259 105.666 603.516 107.965 603.647 112.725C603.741 116.134 608.144 120.801 611.143 120.67C612.162 120.626 613.177 119.321 613.399 117.769C613.643 116.061 615.085 114.466 617.055 113.723C618.843 113.049 621.718 110.938 623.443 109.033C626.271 105.911 630.004 104.703 638.621 104.125C640.42 104.004 639.516 100.741 637.077 98.553C634.11 95.891 633.91 92.686 636.548 90.071C639.412 87.231 640.782 87.718 640.782 91.575C640.782 98.521 647.42 100.346 650.863 94.347C653.659 89.475 669.186 82.076 669.186 85.616C669.186 88.3 674.386 88.331 677.25 85.664C679.323 83.734 681.035 83.167 683.183 83.702C685.523 84.284 687.071 83.573 690.06 80.542C693.764 76.787 694.121 76.685 699.045 77.988C701.865 78.734 704.86 79.084 705.7 78.764C707.654 78.021 708.666 74.226 708.688 67.56C708.697 64.654 709.262 61.244 709.943 59.983C710.792 58.409 710.76 57.431 709.84 56.867C709.042 56.378 710.04 55.117 712.307 53.751C714.401 52.488 716.114 50.896 716.114 50.213C716.114 48.251 723.051 48.767 724.802 50.859C726 52.289 726.036 53.091 724.953 54.164C722.888 56.211 723.211 66.102 725.483 70.395C728.394 75.897 728.617 85.906 725.981 92.735C723.94 98.021 723.404 98.52 720.119 98.195C714.545 97.642 712.721 100.645 715.333 106.075C716.931 109.398 717.921 110.211 719.547 109.537C720.715 109.053 723.339 108.295 725.376 107.853C729.891 106.873 737.108 96.96 737.108 91.739C737.108 87.418 739.495 82.026 741.408 82.026C742.33 82.026 742.922 84.951 743.069 90.235C743.195 94.751 743.817 98.961 744.453 99.591C746.037 101.161 754.398 97.116 754.398 94.78C754.398 93.778 753.562 91.694 752.541 90.149C751.52 88.604 750.465 85.081 750.197 82.319C749.569 75.862 748.752 74.664 745.172 74.958C741.341 75.272 736.106 72.44 735.182 69.552C733.109 63.078 732.642 51.325 734.339 48.321C735.436 46.3761 735.735 46.506 737.261 49.592C738.196 51.483 739.794 53.398 740.813 53.848C751.709 58.662 752.543 59.501 752.584 65.69C752.635 73.521 753.6 74.988 757.529 73.213C759.935 72.127 760.576 70.918 760.589 67.444C760.599 65.027 760.907 61.938 761.276 60.579C761.745 58.847 760.477 56.485 757.031 52.672C753.141 48.369 752.363 46.778 753.301 45.0422C753.952 43.8361 754.882 42.8083 755.367 42.7583C761.247 42.1523 764.712 39.919 764.862 36.6382C764.88 36.2522 766.284 33.9105 767.982 31.4345C769.947 28.5686 771.729 27.1787 772.884 27.61C773.882 27.9826 774.36 27.9517 773.946 27.5413C773.532 27.1309 775.494 24.2341 778.306 21.104C788.876 9.3379 788.006 9.8617 795.913 10.5095C802.224 11.0265 803.505 11.5962 806.526 15.2294C809.005 18.2104 810.661 19.1799 812.474 18.71C816.369 17.7001 818.574 13.7722 817.375 9.979C816.811 8.194 816.015 5.2184 815.606 3.3667C814.866 0.0126991 814.889 0 821.655 0C827.934 0 828.508 0.2397 829.251 3.1726C829.941 5.8975 830.51 6.2235 833.288 5.4826C839.363 3.8618 844.766 4.361 846.065 6.6632C846.743 7.8638 848.385 9.9241 849.714 11.2416C851.952 13.4599 851.987 13.8538 850.192 16.5696C849.126 18.1824 848.254 20.5839 848.254 21.9062C848.254 24.7278 846.535 26.4627 839.695 30.5466C836.931 32.197 834.669 34.2236 834.669 35.0502C834.669 35.8767 833.864 37.3516 832.879 38.3275C831.411 39.7833 831.372 40.4856 832.664 42.2376C834.142 44.2405 834.542 44.1841 839.104 41.3291C841.779 39.655 844.709 37.3993 845.616 36.3166C847.105 34.5378 847.694 34.5263 851.729 36.1976C854.185 37.2148 856.492 38.4478 856.855 38.9376C857.219 39.4273 859.323 41.2994 861.532 43.0977C864.638 45.627 866.456 46.2272 869.559 45.7484C871.765 45.4079 877.002 45.935 881.195 46.9198C888.651 48.671 888.917 48.645 893.17 45.7797C897.81 42.6546 900.122 42.0871 900.122 44.0735C900.122 44.7468 900.891 45.2978 901.832 45.2978C904.634 45.2978 907.357 50.704 907.766 57.079L908.149 63.05L915.061 62.655C918.96 62.432 924.934 63.114 928.766 64.218C935.073 66.035 940.35 65.797 939.08 63.752C938.78 63.269 939.3 61.413 940.23 59.627C941.17 57.842 942.11 55.183 942.33 53.719C942.55 52.255 943.68 50.465 944.84 49.742C946.54 48.691 947.69 49.121 950.61 51.89C954.28 55.376 962.42 57.183 963.88 54.835C964.87 53.253 971.73 54.983 974.46 57.5C975.72 58.668 976.99 60.81 977.27 62.26C978.02 66.136 978.77 66.961 982.78 68.347C985.68 69.35 987.34 69.129 991.07 67.243C998.36 63.557 1001.78 64.472 1002.81 70.388C1003.35 73.445 1007.97 75.961 1014.21 76.592C1016.84 76.858 1020.9 78.19 1023.23 79.551C1025.56 80.912 1028.16 82.026 1029 82.026C1029.85 82.026 1032.43 83.403 1034.73 85.086C1040.01 88.946 1045.85 89.239 1045.85 85.645C1045.85 84.269 1047.2 81.694 1048.86 79.923L1051.87 76.703L1058.23 79.977C1061.73 81.777 1065.57 83.25 1066.76 83.25C1067.95 83.25 1069.98 84.408 1071.28 85.824C1073.58 88.346 1080.42 92.446 1080.42 91.303C1080.42 90.984 1082.02 91.276 1083.98 91.951C1086.75 92.907 1087.69 94.139 1088.24 97.506C1088.63 99.886 1089.55 102.553 1090.29 103.433C1091.7 105.118 1096.48 104.548 1096.48 102.695C1096.48 100.899 1101.11 101.481 1103.18 103.538C1106.04 106.367 1105.57 109.155 1101.5 113.571L1097.88 117.504L1088.58 112.62C1083.46 109.933 1078.44 107.735 1077.41 107.735C1076.39 107.735 1074.72 109.321 1073.71 111.26C1072.7 113.198 1070.95 115.133 1069.83 115.56C1068.15 116.201 1067.88 117.719 1068.3 124.246L1068.81 132.155L1062.88 134.266C1059.63 135.427 1056.96 136.759 1056.96 137.227C1056.96 137.694 1055.6 138.415 1053.94 138.829C1052.27 139.242 1050.18 141.093 1049.29 142.94C1047.86 145.893 1046.96 146.3 1041.89 146.3C1036.9 146.3 1035.62 146.854 1032.39 150.446C1029.08 154.118 1028.14 154.51 1024.17 153.872C1018.3 152.927 1014.96 154.971 1015.66 159.093C1018.1 173.547 1016.42 180.59 1009.66 184.219C1007.49 185.384 1004.88 188.072 1003.86 190.192C1001.76 194.547 998.77 195.271 998.06 191.597C996.94 185.873 997.47 177.412 999.06 175.463C1000.21 174.065 1000.26 173.679 999.23 174.295C998.38 174.801 997.68 174.631 997.68 173.918C997.68 172.485 1000.23 169.319 1005.4 164.333C1007.27 162.532 1008.8 160.239 1008.8 159.239C1008.8 158.239 1010.7 155.47 1013.02 153.085C1015.34 150.7 1017.43 147.646 1017.65 146.3C1017.99 144.254 1017.45 143.901 1014.35 144.157C1012.32 144.326 1009.44 143.843 1007.97 143.085C1005.79 141.963 1004.64 142.166 1001.8 144.177C997.46 147.244 994 150.984 992.2 154.572C990.67 157.616 985.78 158.506 984.37 155.998C982.63 152.917 977.56 151.944 973.98 154.006C971.1 155.668 969.99 155.704 965.64 154.277C961.9 153.054 959.9 152.973 957.84 153.962C956.32 154.693 953.67 155.589 951.96 155.953C947.62 156.874 935.873 172.384 934.699 178.749C933.755 183.869 934.642 185.465 938.88 186.262C940.41 186.551 941.84 188.694 943.08 192.551C944.71 197.616 944.74 199.567 943.31 207.07C942.41 211.838 941 216.394 940.19 217.195C939.39 217.996 937.87 220.277 936.816 222.264C934.395 226.845 924.96 236.283 922.801 236.283C921.902 236.283 918.931 237.169 916.2 238.253C911.954 239.937 910.672 241.389 907.362 248.265C903.875 255.508 903.637 256.711 904.964 260.35C906.26 263.902 906.138 264.712 903.962 267.027L901.486 269.662L900.687 266.509C900.248 264.775 900.255 262.769 900.702 262.053C901.594 260.621 898.61 257.095 896.505 257.095C895.176 257.095 894.828 255.967 894.861 251.775C894.876 249.987 894.204 249.65 891.635 250.158C883.831 251.704 883.46 251.647 883.056 248.832C882.819 247.185 881.8 246.077 880.519 246.077C878.144 246.077 870.483 253.332 870.483 255.58C870.483 257.499 874.544 259.544 878.356 259.544C883.092 259.544 883.38 261.638 879.211 265.77C875.636 269.315 875.461 269.929 876.038 276.934C876.472 282.198 877.34 284.941 879.034 286.397C881.347 288.386 881.353 288.59 879.22 293.278C875.842 300.701 866.279 310.546 861.54 311.478C859.327 311.914 855.303 313.307 852.599 314.574C849.895 315.842 847.138 316.545 846.471 316.137C845.114 315.305 837.675 315.585 834.361 316.593C830.784 317.68 831.859 329.859 835.809 333C837.946 334.699 840.824 340.593 841.068 343.772C841.42 348.354 838.008 353.55 833.989 354.549C831.409 355.191 829.812 354.296 824.745 349.366C821.375 346.088 818.618 342.681 818.617 341.794C818.616 340.761 817.406 340.322 815.247 340.57C811.602 340.989 808.093 346.04 809.908 348.255C810.481 348.955 811.657 351.889 812.522 354.775C813.386 357.662 815.306 361.32 816.787 362.905C820.872 367.274 825.18 374.646 824.211 375.607C823.738 376.076 821.741 374.532 819.775 372.175C817.808 369.819 815.158 366.789 813.886 365.443C809.4 360.692 808.455 357.357 806.763 340.295C805.81 330.69 803.372 326.362 799.939 328.183C797.424 329.517 795.151 328.802 795.151 326.677C795.151 325.972 793.815 323.821 792.182 321.897C790.549 319.973 788.991 317.739 788.72 316.933C788.448 316.127 784.644 315.035 780.265 314.507C772.486 313.568 772.224 313.63 768.791 317.21C766.858 319.225 763.131 322.216 760.508 323.858C755.725 326.851 752.994 330.434 752.287 334.643C752.079 335.883 751.079 338.072 750.066 339.506C749.052 340.941 748.223 342.855 748.223 343.76C748.223 346.352 739.834 354.58 738.614 353.184C738.034 352.52 736.82 348.946 735.917 345.242C735.014 341.539 732.968 336.591 731.37 334.246C729.771 331.901 728.464 328.458 728.464 326.594C728.464 324.731 727.918 323.206 727.252 323.206C726.586 323.206 725.691 321.824 725.263 320.134C724.792 318.273 723.323 316.774 721.535 316.329C719.889 315.919 718.584 314.685 718.584 313.538C718.584 311.261 709.223 302.988 704.759 301.32C703.193 300.735 698.888 299.894 695.192 299.453C686.106 298.366 682.958 297.548 677.571 294.874C675.051 293.623 671.541 292.599 669.772 292.599C664.684 292.599 661.793 290.392 659.286 284.594C656.919 279.12 655.591 278.329 647.574 277.622C643.262 277.242 643.17 278.984 647.08 287.014C648.371 289.665 649.427 292.833 649.427 294.053C649.427 295.702 650.378 296.272 653.132 296.272C656.231 296.272 656.837 296.758 656.837 299.245C656.837 305.254 664.098 308.468 666.716 303.617C668.225 300.823 672.891 300.285 672.891 302.905C672.891 303.861 674.836 305.834 677.213 307.29C679.59 308.747 681.521 310.582 681.502 311.369C681.443 313.916 672.9 322.021 667.576 324.582C664.726 325.954 661.56 327.497 660.541 328.012C659.523 328.527 655.632 329.624 651.897 330.45C648.161 331.276 643.944 332.508 642.526 333.188C641.108 333.868 638.35 334.242 636.396 334.018C633.48 333.685 632.692 332.876 632.004 329.511C631.542 327.256 629.21 323.4 626.821 320.942C624.432 318.483 621.608 314.544 620.545 312.187C619.482 309.831 615.649 302.393 612.027 295.66C606.459 285.305 604.981 283.417 602.444 283.417C598.213 283.417 597.936 286.969 601.779 291.963C603.844 294.647 604.969 297.663 604.969 300.518C604.969 302.943 605.829 306.229 606.88 307.819C607.931 309.41 609.048 312.117 609.363 313.836C609.677 315.555 611.596 318.764 613.626 320.968C615.815 323.345 617.318 326.321 617.318 328.281C617.318 330.972 618.12 331.848 621.64 333C624.018 333.778 626.008 335.06 626.063 335.849C626.118 336.639 626.257 339.488 626.372 342.182C626.574 346.934 626.699 347.067 630.594 346.694C632.801 346.483 634.607 346.877 634.607 347.57C634.607 350.244 639.168 351.363 642.81 349.583C644.751 348.634 647.954 347.463 649.926 346.982C653.45 346.122 653.499 346.179 652.686 350.205C652.232 352.459 651.393 354.606 650.823 354.976C650.252 355.346 649.01 357.13 648.063 358.94C646.158 362.579 636.304 374.001 626.202 384.281C617.273 393.368 615.807 397.105 617.895 405.464C618.788 409.039 620.829 415.454 622.432 419.718L625.345 427.472L620.405 431.637C617.689 433.927 614.493 435.81 613.305 435.82C612.116 435.83 611.143 436.389 611.143 437.062C611.143 437.736 610.369 438.286 609.423 438.286C606.935 438.286 606.153 441.254 607.009 447.445C607.734 452.685 607.605 452.963 603.279 455.493C600.814 456.935 599.093 458.588 599.453 459.167C599.814 459.745 597.897 464.581 595.193 469.912C588.335 483.434 576.87 491.868 567.761 490.092C565.976 489.744 564.137 490.065 563.675 490.806C562.462 492.751 559.837 492.463 557.921 490.175ZM666.689 257.145C668.804 253.227 666.822 241.42 663.443 237.805C661.847 236.098 660.541 233.712 660.541 232.504C660.541 231.295 659.986 229.966 659.306 229.549C656.213 227.654 658.318 226.215 663.08 226.97L668.088 227.764L667.711 222.021C667.383 217.026 666.827 215.999 663.443 214.131C659.869 212.159 658.911 212.129 651.642 213.773C645.218 215.226 643.337 216.222 641.639 219.072C638.895 223.677 638.998 226.711 642.017 230.162C643.376 231.714 644.487 233.983 644.487 235.203C644.487 236.424 646.116 239.261 648.107 241.509C651.212 245.015 651.631 246.303 651.054 250.567C650.481 254.803 650.808 255.834 653.266 257.541C657.396 260.409 665.049 260.183 666.689 257.145ZM690.363 231.692C692.986 227.162 694.144 219.091 692.459 217.078C691.718 216.194 689.505 215.47 687.541 215.47C684.836 215.47 683.375 216.437 681.522 219.449C678.4 224.525 678.443 226.043 681.844 230.996C685.233 235.93 687.787 236.139 690.363 231.692ZM634.607 457.219C634.607 456.186 633.734 454.019 632.667 452.405C631.134 450.085 631.023 448.921 632.137 446.857C632.913 445.42 633.452 442.491 633.335 440.347C632.987 433.966 633.146 433.737 638.93 432.293C643.467 431.16 644.487 430.397 644.487 428.135C644.487 423.577 647.97 419.73 651.707 420.159C654.604 420.491 654.946 421.01 654.654 424.634C654.473 426.888 652.827 431.846 650.997 435.652C649.167 439.458 647.541 443.398 647.382 444.408C646.107 452.542 644.025 456.571 640.458 457.803C635.465 459.529 634.607 459.443 634.607 457.219ZM967.52 416.177C966.21 414.87 964.27 413.75 963.2 413.688C962.13 413.625 958.75 413.425 955.69 413.243C946.3 412.683 940.56 410.36 932.87 403.996C926.265 398.533 923.845 397.274 920.829 397.734C920.331 397.809 919.576 396.497 919.151 394.818C918.726 393.139 917.883 391.764 917.277 391.764C916.671 391.764 916.176 390.938 916.176 389.928C916.176 386.857 921.439 387.842 924.351 391.458C926.893 394.615 927.316 394.73 931.138 393.305C934.808 391.936 935.65 392.077 939.59 394.723C941.99 396.338 946.38 398.045 949.34 398.515C954.49 399.332 957.33 401.227 960.02 405.636C960.7 406.75 962.64 407.852 964.34 408.085C966.29 408.352 968.07 409.825 969.16 412.073C970.12 414.033 971.37 415.821 971.94 416.046C972.51 416.27 972.98 416.959 972.98 417.576C972.98 419.45 970.04 418.696 967.52 416.177ZM892.712 416.211C892.712 415.559 893.546 415.025 894.564 415.025C896.936 415.025 896.936 415.79 894.564 416.692C893.546 417.08 892.712 416.864 892.712 416.211ZM843.422 410.864C837.107 408.954 834.935 407.841 836.422 407.275C840.248 405.82 848.386 406.403 852.723 408.443C856.091 410.028 856.662 410.772 855.537 412.116C853.825 414.161 854.584 414.24 843.422 410.864ZM877.275 402.783C876.855 402.109 876.819 401.065 877.195 400.463C877.571 399.86 877.048 399.051 876.033 398.665C873.621 397.747 873.627 392.989 876.04 392.989C877.178 392.989 877.893 391.842 877.893 390.016C877.893 387.116 880.725 383.195 882.82 383.195C885.104 383.195 887.721 384.734 887.108 385.718C886.751 386.291 885.647 386.452 884.656 386.075C882.017 385.071 881.023 388.921 883.33 391.208C886.201 394.055 885.898 399.982 882.832 400.946C881.474 401.374 880.362 402.237 880.362 402.865C880.362 404.383 878.238 404.327 877.275 402.783ZM824.833 397.326C823.964 396.287 822.348 395.42 821.242 395.398C818.287 395.341 815.396 392.787 814.351 389.311C813.845 387.63 810.569 383.695 807.07 380.566C803.571 377.437 801.083 374.494 801.541 374.027C802.404 373.146 817.469 380.887 821.554 384.31C824.641 386.898 828.883 396.766 827.498 398.139C826.876 398.756 825.74 398.409 824.833 397.326ZM851.65 392.103C845.6 390.344 845.26 389.768 846.54 383.426C847.126 380.52 848.361 379.255 852.035 377.798C854.642 376.764 857.309 374.938 857.962 373.741C858.615 372.544 860.833 370.588 862.891 369.395C866.53 367.285 866.698 367.296 869.044 369.793C872.607 373.584 871.659 384.278 867.252 390.006C864.679 393.35 863.629 393.954 862.295 392.857C861.195 391.951 860.063 391.874 859.06 392.637C858.055 393.399 855.469 393.213 851.65 392.103ZM901.357 384.419C901.357 383.746 901.912 383.195 902.592 383.195C903.271 383.195 903.826 383.746 903.826 384.419C903.826 385.092 903.271 385.643 902.592 385.643C901.912 385.643 901.357 385.092 901.357 384.419ZM891.477 364.896C887.735 363.941 887.384 360.688 890.968 360.181C893.884 359.768 897.429 363.162 895.685 364.697C895.069 365.24 893.175 365.33 891.477 364.896ZM747.007 359.628C747.017 358.786 747.503 357.35 748.087 356.436C749.444 354.313 751.231 356.776 750.223 359.38C749.381 361.556 746.981 361.741 747.007 359.628ZM880.249 338.815C879.197 335.967 879.346 330.562 880.497 329.857C881.435 329.282 881.656 329.467 881.098 330.362C880.613 331.139 880.716 331.776 881.326 331.776C882.278 331.776 885.302 336.941 885.302 338.567C885.302 339.133 880.455 339.371 880.249 338.815ZM360.039 325.137C359.628 324.075 359.606 322.393 359.99 321.401C360.599 319.827 360.933 319.838 362.597 321.488C364.298 323.174 364.303 323.582 362.646 325.224C360.99 326.867 360.705 326.857 360.039 325.137ZM842.696 323.206C843.116 322.532 844.261 321.981 845.239 321.981C846.218 321.981 847.019 322.532 847.019 323.206C847.019 323.879 845.875 324.43 844.476 324.43C843.077 324.43 842.277 323.879 842.696 323.206ZM293.144 315.86C292.724 315.187 293.247 314.636 294.306 314.636C295.365 314.636 296.231 315.187 296.231 315.86C296.231 316.533 295.708 317.084 295.069 317.084C294.43 317.084 293.564 316.533 293.144 315.86ZM274.002 313.618C274.002 311.799 279.95 309.39 282.255 310.276C284.395 311.098 284.388 311.219 282.102 312.887C279.51 314.778 274.002 315.275 274.002 313.618ZM879.127 311.575C879.127 310.565 879.683 309.739 880.362 309.739C881.042 309.739 881.597 310.565 881.597 311.575C881.597 312.585 881.042 313.412 880.362 313.412C879.683 313.412 879.127 312.585 879.127 311.575ZM259.183 308.505C259.183 307.031 257.863 306.174 254.848 305.689C252.464 305.305 249.588 304.075 248.458 302.955C247.021 301.53 245.17 301.116 242.296 301.578C240.037 301.942 238.189 301.723 238.189 301.092C238.189 300.461 238.605 299.903 239.115 299.851C239.624 299.799 241.152 299.47 242.511 299.118C249.114 297.409 253.933 297.363 255.588 298.995C256.546 299.94 260.248 301.751 263.814 303.019C267.38 304.288 270.297 305.95 270.297 306.714C270.297 307.477 267.796 308.669 264.74 309.363C259.805 310.482 259.183 310.386 259.183 308.505ZM930.181 271.108C929.804 270.134 928.477 269.338 927.231 269.338C924.455 269.338 923.426 267.903 924.717 265.831C925.593 264.426 927.991 263.567 931.754 263.31C932.511 263.259 935.952 260.463 939.4 257.097C943.01 253.577 946.01 251.52 946.47 252.254C946.9 252.956 946.59 254.332 945.77 255.313C944.95 256.293 944.69 257.095 945.19 257.095C945.69 257.095 945.2 258.453 944.1 260.113C943.01 261.773 942.1 264.39 942.09 265.928C942.06 270.088 940.76 271.33 935.562 272.143C932.095 272.685 930.687 272.415 930.181 271.108ZM540.305 251.586C539.914 250.576 539.786 249.75 540.021 249.75C540.256 249.75 541.141 250.576 541.986 251.586C542.872 252.645 542.992 253.423 542.269 253.423C541.58 253.423 540.696 252.596 540.305 251.586ZM523.462 244.241C523.462 243.231 523.68 242.404 523.947 242.404C524.214 242.404 524.752 243.231 525.143 244.241C525.534 245.251 525.316 246.077 524.658 246.077C524 246.077 523.462 245.251 523.462 244.241ZM947.92 237.878C946.3 237.459 945.93 236.607 946.53 234.653C946.99 233.193 947.43 231.902 947.52 231.786C947.61 231.669 949.58 231.959 951.91 232.429C956.2 233.301 958.74 236.283 955.18 236.283C954.1 236.283 953.22 236.834 953.22 237.507C953.22 238.768 951.78 238.869 947.92 237.878ZM953.06 222.002C951.84 220.553 951.37 215.926 951.37 205.443C951.37 184.863 952.82 182.063 955.06 198.331C955.48 201.361 956.63 205.07 957.62 206.573C959.24 209.019 959.17 209.776 957 213.797C955.25 217.03 954.9 218.901 955.75 220.477C957.33 223.393 955.22 224.585 953.06 222.002ZM322.923 206.211C322.516 205.158 321.686 204.601 321.079 204.973C320.472 205.345 319.379 204.938 318.651 204.068C317.682 202.91 317.971 201.436 319.728 198.572C321.048 196.419 322.688 194.658 323.371 194.658C325.405 194.658 332.045 202.194 332.045 204.503C332.045 208.193 324.255 209.652 322.923 206.211ZM484.673 193.434C485.157 191.077 485.625 187.973 485.714 186.535C485.802 185.098 486.488 183.17 487.237 182.25C488.736 180.411 487.308 175.07 485.316 175.07C484.669 175.07 483.774 173.42 483.328 171.404C482.881 169.388 481.693 167.282 480.688 166.725C478.84 165.7 478.821 161.131 480.652 158.236C481.979 156.137 487.228 156.304 488.068 158.472C488.444 159.443 488.448 162.09 488.078 164.355C487.549 167.586 488.077 169.265 490.533 172.159C492.255 174.187 494.031 177.302 494.482 179.081C494.932 180.859 496.08 182.956 497.032 183.739C499.18 185.507 499.289 190.271 497.22 191.9C496.37 192.568 493.454 193.512 490.739 193.999C488.024 194.485 485.35 195.521 484.798 196.301C484.245 197.081 484.189 195.79 484.673 193.434ZM468.548 184.65C469.391 180.82 474.452 173.414 475.509 174.462C475.776 174.726 475.778 177.191 475.513 179.94C475.121 184.016 474.352 185.286 471.342 186.829L467.652 188.721L468.548 184.65ZM98.639 175.61C98.639 174.56 99.195 174.041 99.874 174.458C100.553 174.874 101.109 175.733 101.109 176.366C101.109 177 100.553 177.518 99.874 177.518C99.195 177.518 98.639 176.659 98.639 175.61ZM91.847 164.051C91.427 163.378 91.672 162.827 92.392 162.827C93.111 162.827 93.699 163.378 93.699 164.051C93.699 164.725 93.454 165.276 93.155 165.276C92.855 165.276 92.267 164.725 91.847 164.051ZM355.825 138.394C348.747 136.69 349.215 137.579 340.973 110.184C339.859 106.48 338.506 102.927 337.966 102.287C335.595 99.477 337.001 90.694 340.689 85.276C345.29 78.519 345.31 76.886 340.837 73.155C336.816 69.801 334.971 65.508 337.012 64.257C337.762 63.798 339.455 64.391 340.775 65.575C342.095 66.759 343.516 67.389 343.933 66.976C345.332 65.588 343.097 57.54 341.312 57.54C340.358 57.54 339.048 56.602 338.4 55.456C337.423 53.724 336.899 53.638 335.306 54.949C332.26 57.455 330.81 55.435 330.81 48.689C330.81 44.4482 330.113 41.6672 328.651 40.0647C327.276 38.5593 326.461 35.6098 326.407 31.9512C326.361 28.7897 325.894 25.5135 325.368 24.671C324.843 23.8284 323.768 20.5774 322.98 17.4465C321.902 13.1639 320.603 11.2088 317.734 9.5529C313.719 7.2354 304.51 6.4956 297.872 7.9572C294.367 8.7289 293.75 8.4268 292.006 5.0827C290.934 3.0274 290.056 1.043 290.056 0.672901C290.056 0.302801 322.775 0 362.764 0H435.472L436.437 3.9789C437.927 10.121 437.316 13.8435 434.47 15.9718C431.598 18.1197 431.406 25.3525 434.237 24.7913C436.524 24.3378 436.109 26.2593 433.394 28.6955C432.081 29.8731 431.307 31.6113 431.674 32.558C432.432 34.5172 432.603 34.4784 419.55 35.2986C414.952 35.5874 413.979 38.9327 418.046 40.4658C420.79 41.4998 421.153 42.2063 420.528 45.2996C419.939 48.22 420.329 49.194 422.54 50.324C427.63 52.924 430.841 56.694 430.841 60.071C430.841 63.977 427.826 65.616 425.601 62.92C422.077 58.648 419.673 56.317 418.8 56.324C418.29 56.328 416.894 58.037 415.697 60.122C414.354 62.462 412.853 63.658 411.774 63.248C409.857 62.518 406.906 65.236 408.211 66.529C408.658 66.972 410.578 67.335 412.479 67.335C414.67 67.335 416.418 68.23 417.256 69.783C418.122 71.386 419.842 72.232 422.239 72.232C424.998 72.232 425.901 72.798 425.901 74.53C425.901 77.698 423.688 79.235 416.98 80.726C413.377 81.526 409.497 83.593 406.534 86.291C403.941 88.652 400.708 90.589 399.349 90.596C397.248 90.607 392.386 96.039 386.645 104.792C386.161 105.529 384.114 106.907 382.095 107.852C379.566 109.037 377.805 111.236 376.431 114.925C375.334 117.869 373.15 121.24 371.578 122.415C369.651 123.856 368.934 125.362 369.375 127.036C370.274 130.443 365.313 138.903 362.268 139.156C360.927 139.268 358.028 138.925 355.825 138.394ZM295.161 126.91C293.916 125.422 292.293 125.079 288.981 125.604C284.632 126.293 284.333 126.089 279.537 119.168C274.851 112.404 274.294 112.007 269.16 111.782C257.667 111.278 259.814 101.295 271.657 100.175C275.719 99.79 275.856 99.606 275.895 94.445C275.917 91.512 275.271 88.211 274.459 87.111C273.135 85.315 272.651 85.465 269.738 88.581C266.739 91.789 266.285 91.917 263.764 90.26C258.21 86.61 260.838 83.217 269.571 82.761C273.585 82.551 273.02 80.16 268.581 78.568C266.258 77.736 264.048 76.254 263.67 75.276C263.281 74.273 262.153 73.812 261.082 74.22C259.849 74.689 259.183 74.238 259.183 72.935C259.183 70.758 254.585 68.518 252.066 69.469C251.208 69.792 249.707 69.399 248.729 68.595C247.751 67.79 245.788 67.498 244.365 67.946C242.461 68.545 240.244 67.532 235.97 64.11C232.775 61.552 229.713 58.89 229.165 58.194C228.618 57.498 228.454 53.072 228.802 48.358C229.349 40.9574 229.894 39.3946 232.803 36.8997C236.035 34.1274 236.238 34.1017 237.833 36.2638C238.826 37.6104 239.192 39.8806 238.743 41.9072C237.732 46.4719 240.978 46.4843 244.945 41.931L247.879 38.5643L249.166 41.625C251.783 47.846 253.769 49.273 259.11 48.768C261.867 48.507 264.122 48.616 264.122 49.009C264.122 49.402 266.941 49.724 270.386 49.724C277.775 49.724 279.285 51.288 278.229 57.846C277.552 62.051 277.733 62.438 280.377 62.439C284.604 62.44 292.526 70.955 292.526 75.496C292.526 77.471 291.945 79.664 291.234 80.369C290.334 81.26 291.588 82.273 295.363 83.702C298.353 84.834 301.486 87.055 302.35 88.655C303.211 90.25 306.076 92.397 308.717 93.425C312.1 94.743 313.309 95.839 312.807 97.135C312.416 98.146 312.732 100.154 313.511 101.596C315.741 105.728 313.029 107.965 306.289 107.555C299.735 107.155 298.937 108.371 301.23 115.259C302.498 119.066 302.512 120.358 301.298 121.545C300.093 122.722 299.432 122.585 298.173 120.896C296.489 118.637 292.526 117.944 292.526 119.908C292.526 120.544 293.688 121.87 295.109 122.856C296.529 123.843 297.501 125.612 297.27 126.789C296.88 128.769 296.722 128.778 295.161 126.91ZM238.519 119.703C233.779 116.396 233.539 114.429 237.306 109.763L240.116 106.282L245.945 109.089C250.383 111.227 251.773 112.568 251.773 114.713C251.773 116.753 251.062 117.529 249.192 117.529C247.773 117.529 245.689 118.645 244.561 120.009L242.511 122.488L238.519 119.703ZM440.103 118.466C438.744 117.676 435.41 116.728 432.693 116.361C427.859 115.707 427.745 115.578 427.365 110.323C426.881 103.615 428.024 102.419 433.212 104.212C436.227 105.254 437.504 105.26 438.141 104.237C438.615 103.478 441.472 102.522 444.492 102.113C449.262 101.467 450.436 101.787 453.441 104.551C457.494 108.28 457.13 109.312 449.557 115.555C443.587 120.476 443.567 120.482 440.103 118.466ZM651.372 82.174C650.989 81.56 651.506 80.742 652.521 80.356C653.536 79.97 654.367 80.155 654.367 80.768C654.367 82.427 652.172 83.458 651.372 82.174ZM156.991 76.563C148.964 72.888 148.687 70.528 156.064 68.686C159.711 67.776 161.622 66.635 161.622 65.368C161.622 63.77 160.288 63.509 153.903 63.855L146.185 64.274L146.601 57.54C147.174 48.266 149.066 45.8071 156.907 44.1401C162.776 42.8922 163.577 42.9839 165.287 45.1002C166.328 46.387 168.707 47.795 170.575 48.229C172.443 48.662 173.993 49.695 174.019 50.524C174.045 51.353 175.851 53.142 178.032 54.499C180.214 55.856 182.162 58.093 182.362 59.471C182.563 60.848 184.365 62.934 186.369 64.107C190.585 66.576 192.002 70.68 190.319 75.546C189.374 78.278 188.542 78.855 186.184 78.417C181.802 77.604 171.404 77.761 167.179 78.704C164.521 79.297 161.641 78.692 156.991 76.563ZM200.523 78.353C199.427 76.596 200.936 74.674 203.374 74.719C205.989 74.768 210.022 77.709 208.942 78.78C207.68 80.032 201.37 79.712 200.523 78.353ZM670.977 66.204C670.331 65.583 668.147 64.894 666.121 64.674C661.272 64.147 659.008 58.8 662.169 55.339C663.311 54.087 664.264 52.004 664.285 50.711C664.307 49.417 665.09 47.358 666.025 46.1355C667.463 44.2543 668.108 44.1501 670.221 45.4582C672.114 46.63 672.436 47.526 671.552 49.163C670.81 50.538 670.855 53.228 671.677 56.574C674.01 66.062 674.185 67.335 673.162 67.335C672.605 67.335 671.622 66.826 670.977 66.204ZM1071.53 63.507C1069.97 62.143 1069.34 61.348 1070.13 61.74C1070.92 62.132 1071.76 61.912 1071.98 61.252C1072.57 59.547 1077.95 61.178 1077.95 63.061C1077.95 65.82 1074.46 66.063 1071.53 63.507ZM127.579 56.571C124.734 54.668 122.486 49.983 123.04 47.111C123.363 45.4402 124.052 44.0735 124.573 44.0735C125.977 44.0735 127.296 39.1089 127.069 34.6746C126.757 28.5889 130.768 27.482 143.83 30.049C146.913 30.6547 152.977 36.3853 152.977 38.6925C152.977 39.5893 150.504 42.1311 147.481 44.3408C144.459 46.5505 141.45 49.821 140.794 51.61C140.139 53.398 138.583 55.137 137.336 55.475C131.458 57.067 128.771 57.369 127.579 56.571ZM198.258 55.5C197.806 55.051 197.432 53.812 197.427 52.745C197.424 51.679 195.617 49.781 193.414 48.528L189.408 46.2481L192.187 44.3993C193.8 43.3258 194.965 41.2973 194.965 39.5617C194.965 36.9271 195.441 36.6183 198.979 36.9564C202.424 37.2857 203.047 37.86 203.378 41.0128C203.59 43.0329 204.666 45.3725 205.77 46.212C207.62 47.619 207.615 48.073 205.713 52.027C203.786 56.033 200.392 57.615 198.259 55.5H198.258ZM211.49 44.3796C211.044 42.5279 210.264 40.4619 209.757 39.7886C208.496 38.1155 210.532 33.1637 212.842 32.2849C213.878 31.8911 215.697 31.9861 216.886 32.4959C218.074 33.0058 220.158 33.6221 221.517 33.8654C222.875 34.1088 224.638 34.5432 225.434 34.8309C227.726 35.6588 225.894 40.0866 222.314 42.3728C220.517 43.5202 218.602 45.1986 218.059 46.1026C216.289 49.048 212.367 48.019 211.49 44.3796ZM258.386 41.3627C255.846 39.5734 254.592 37.7009 254.699 35.8544C254.898 32.4116 255.513 32.379 259.634 35.5925C261.423 36.9881 262.888 37.747 262.888 37.279C262.888 36.811 263.709 37.1043 264.714 37.9308C266.07 39.0466 266.218 40.031 265.288 41.7535C263.697 44.7004 263.075 44.6652 258.386 41.3627ZM946.4 39.1228C945.31 37.3718 948.1 34.2794 950.77 34.2794C953.08 34.2794 954.95 37.4001 953.77 39.2869C952.82 40.8154 947.38 40.6943 946.4 39.1228ZM670.421 36.2163C670.421 35.2305 670.902 34.1294 671.489 33.7694C672.077 33.4094 672.86 30.8767 673.231 28.1413C674.045 22.1226 677.118 17.1409 680.02 17.1364C681.22 17.1346 683.234 15.1252 684.624 12.5454C687.026 8.0863 687.298 7.953 694.319 7.7911C699.544 7.6706 702.52 6.9084 705.073 5.0365C709.239 1.9837 710.663 1.81 711.604 4.2399C712.355 6.1817 707.769 10.3706 703.379 11.7519C701.92 12.2108 699.272 14.1302 697.494 16.0171C695.716 17.9041 692.648 19.8363 690.677 20.3109C687.521 21.0708 676.596 31.066 676.596 33.1937C676.596 33.636 675.206 34.9002 673.508 36.0032C670.896 37.7003 670.421 37.7331 670.421 36.2163ZM232.631 26.3742C230.594 25.4792 227.429 24.1627 225.598 23.4487C222.649 22.2985 222.172 21.2979 221.416 14.6714C220.59 7.4314 220.413 7.133 215.886 5.3374C209.986 2.997 208.47 -0.0162015 213.22 0.0388985C215.066 0.0602985 217.656 0.886701 218.974 1.8753C220.293 2.8639 222.377 3.6728 223.605 3.6728C224.834 3.6728 225.857 4.3614 225.878 5.2031C225.974 8.9181 229.389 10.9449 237.665 12.1979C242.368 12.9099 248.855 14.0926 252.082 14.8261C257.455 16.0477 257.948 16.4638 257.948 19.7826C257.948 22.2043 257.476 23.1166 256.525 22.5341C255.743 22.0548 254.399 22.6168 253.539 23.7829C252.292 25.4743 251.466 25.633 249.458 24.5676C247.466 23.5108 246.092 23.7451 242.873 25.6905C238.18 28.5273 237.619 28.5648 232.631 26.3742ZM158.566 22.9115L159.374 18.6398L153.706 19.2733C148.452 19.8603 148.037 19.7038 148.037 17.1349C148.037 15.6104 148.681 12.2332 149.468 9.6301C151.09 4.2626 153.78 3.4904 157.326 7.3745C159 9.2082 159.832 9.4594 160.529 8.3414C161.238 7.2041 162.097 7.3924 164.004 9.1033C166.502 11.3447 166.563 11.3148 168.418 6.9122C169.453 4.4572 170.515 2.4485 170.778 2.4485C171.042 2.4485 172.405 4.3767 173.807 6.7335C175.413 9.4311 177.302 11.0184 178.908 11.0184C182.434 11.0184 183.161 13.7679 180.821 18.2535C178.675 22.3676 176.769 23.0854 175.653 20.2004C174.942 18.3651 171.371 17.5463 171.647 19.2822C172.356 23.7311 171.409 24.7908 167.312 24.1317C164.598 23.695 162.178 24.1135 160.44 25.3204C157.81 27.1466 157.774 27.0993 158.566 22.9115ZM937.36 24.6373L933.226 22.4631L937.36 18.1685C940.76 14.6367 942.4 13.8649 946.61 13.8235C950.87 13.7816 951.97 14.2766 953.11 16.7724C954.94 20.747 953.93 22.0368 948.98 22.0368C946.32 22.0368 944.29 22.874 943.19 24.4241C941.54 26.7384 941.37 26.745 937.36 24.6373ZM211.275 23.7901C209.799 22.7654 208.13 20.1621 207.566 18.0049C206.222 12.8623 202.375 11.9026 202.375 16.7098V20.1323L199.722 17.5024C197.302 15.1031 196.824 15.0315 194.278 16.6856C191.623 18.4103 191.447 18.3213 190.68 14.8592C190.237 12.8575 188.796 9.9883 187.48 8.4832C184.285 4.831 184.436 3.1776 187.864 4.2835C191.377 5.4167 194.834 5.4227 198.292 4.3014C200.581 3.5595 201.29 4.1079 202.86 7.8329C203.882 10.2582 205.538 12.2426 206.54 12.2426C209.986 12.2426 216.037 18.4166 215.619 21.5078C215.074 25.5423 214.348 25.9239 211.275 23.7901ZM966.19 23.261C965.77 22.5877 966.54 22.0368 967.9 22.0368C969.26 22.0368 970.71 22.5877 971.13 23.261C971.55 23.9344 970.78 24.4853 969.42 24.4853C968.07 24.4853 966.61 23.9344 966.19 23.261ZM253.151 5.4405C249.972 2.7887 248.991 2.5277 246.725 3.7301C244.776 4.7644 243.256 4.7902 241.12 3.825C235.031 1.0747 238.013 -0.0938003 250.215 0.2617C260.168 0.5517 262.308 0.955899 262.626 2.606C263.013 4.612 259.913 8.5698 257.954 8.5698C257.376 8.5698 255.214 7.1617 253.151 5.4405ZM135.932 5.8736C135.118 5.0672 134.453 3.4157 134.453 2.2037C134.453 0.396401 135.489 0 140.216 0C143.386 0 145.745 0.137699 145.458 0.306099C145.172 0.474399 143.244 2.1259 141.174 3.976C138.251 6.5888 137.081 7.0125 135.932 5.8736Z" fill="#40AACA"/>
</svg>
