<svg width="60" height="70" viewBox="0 0 60 70" fill="none" xmlns="http://www.w3.org/2000/svg">
<path d="M54.6429 27.3438C53.2221 27.3438 51.8595 27.9199 50.8548 28.9455C49.8502 29.9711 49.2858 31.3621 49.2858 32.8125H48.2143V29.5312C48.2143 28.0808 47.6499 26.6898 46.6453 25.6643C45.6406 24.6387 44.278 24.0625 42.8572 24.0625C41.4364 24.0625 40.0738 24.6387 39.0692 25.6643C38.0645 26.6898 37.5001 28.0808 37.5001 29.5312V32.8125H36.4287V27.3438C36.4287 25.8933 35.8643 24.5023 34.8596 23.4768C33.855 22.4512 32.4924 21.875 31.0716 21.875C29.6508 21.875 28.2882 22.4512 27.2835 23.4768C26.2789 24.5023 25.7145 25.8933 25.7145 27.3438V32.8125H24.643V5.46875C24.643 4.01835 24.0786 2.62735 23.074 1.60176C22.0693 0.57617 20.7067 0 19.2859 0C17.8651 0 16.5025 0.57617 15.4979 1.60176C14.4932 2.62735 13.9288 4.01835 13.9288 5.46875V43.2031L9.68999 37.2518C9.27615 36.6709 8.7543 36.179 8.15423 35.8041C7.55417 35.4292 6.88763 35.1785 6.19269 35.0666C5.49774 34.9546 4.788 34.9834 4.10398 35.1515C3.41996 35.3195 2.77506 35.6234 2.2061 36.0459C1.05703 36.8991 0.287039 38.1833 0.065513 39.6161C-0.0441756 40.3255 -0.015911 41.05 0.148693 41.7483C0.313298 42.4466 0.611018 43.1049 1.02486 43.6857L18.1676 67.7482C18.6647 68.4458 19.3163 69.0134 20.0693 69.4047C20.8223 69.7961 21.6552 70.0001 22.5002 70H50.3572C51.5648 70.0001 52.7369 69.5837 53.6836 68.8183C54.6302 68.053 55.2958 66.9836 55.5723 65.7836L59.858 47.1898C59.9521 46.7793 59.9997 46.3591 60 45.9375V32.8125C60 31.3621 59.4356 29.9711 58.4309 28.9455C57.4263 27.9199 56.0637 27.3438 54.6429 27.3438V27.3438ZM30.0002 54.6875C30.0002 55.2677 29.7744 55.8241 29.3725 56.2343C28.9707 56.6445 28.4256 56.875 27.8573 56.875C27.289 56.875 26.7439 56.6445 26.3421 56.2343C25.9402 55.8241 25.7145 55.2677 25.7145 54.6875V45.9375C25.7145 45.3573 25.9402 44.8009 26.3421 44.3907C26.7439 43.9805 27.289 43.75 27.8573 43.75C28.4256 43.75 28.9707 43.9805 29.3725 44.3907C29.7744 44.8009 30.0002 45.3573 30.0002 45.9375V54.6875ZM38.5715 54.6875C38.5715 55.2677 38.3458 55.8241 37.9439 56.2343C37.5421 56.6445 36.997 56.875 36.4287 56.875C35.8604 56.875 35.3153 56.6445 34.9135 56.2343C34.5116 55.8241 34.2858 55.2677 34.2858 54.6875V45.9375C34.2858 45.3573 34.5116 44.8009 34.9135 44.3907C35.3153 43.9805 35.8604 43.75 36.4287 43.75C36.997 43.75 37.5421 43.9805 37.9439 44.3907C38.3458 44.8009 38.5715 45.3573 38.5715 45.9375V54.6875ZM47.1429 54.6875C47.1429 55.2677 46.9172 55.8241 46.5153 56.2343C46.1134 56.6445 45.5684 56.875 45.0001 56.875C44.4318 56.875 43.8867 56.6445 43.4849 56.2343C43.083 55.8241 42.8572 55.2677 42.8572 54.6875V45.9375C42.8572 45.3573 43.083 44.8009 43.4849 44.3907C43.8867 43.9805 44.4318 43.75 45.0001 43.75C45.5684 43.75 46.1134 43.9805 46.5153 44.3907C46.9172 44.8009 47.1429 45.3573 47.1429 45.9375V54.6875Z" fill="#A1E3FF"/>
<path d="M36.4287 43.75C35.8604 43.75 35.3153 43.9805 34.9135 44.3907C34.5116 44.8009 34.2859 45.3573 34.2859 45.9375V54.6875C34.2859 55.2677 34.5116 55.8241 34.9135 56.2343C35.3153 56.6445 35.8604 56.875 36.4287 56.875C36.997 56.875 37.5421 56.6445 37.9439 56.2343C38.3458 55.8241 38.5716 55.2677 38.5716 54.6875V45.9375C38.5716 45.3573 38.3458 44.8009 37.9439 44.3907C37.5421 43.9805 36.997 43.75 36.4287 43.75ZM27.8573 43.75C27.289 43.75 26.744 43.9805 26.3421 44.3907C25.9402 44.8009 25.7145 45.3573 25.7145 45.9375V54.6875C25.7145 55.2677 25.9402 55.8241 26.3421 56.2343C26.744 56.6445 27.289 56.875 27.8573 56.875C28.4256 56.875 28.9707 56.6445 29.3725 56.2343C29.7744 55.8241 30.0002 55.2677 30.0002 54.6875V45.9375C30.0002 45.3573 29.7744 44.8009 29.3725 44.3907C28.9707 43.9805 28.4256 43.75 27.8573 43.75ZM45.0001 43.75C44.4318 43.75 43.8867 43.9805 43.4849 44.3907C43.083 44.8009 42.8572 45.3573 42.8572 45.9375V54.6875C42.8572 55.2677 43.083 55.8241 43.4849 56.2343C43.8867 56.6445 44.4318 56.875 45.0001 56.875C45.5684 56.875 46.1135 56.6445 46.5153 56.2343C46.9172 55.8241 47.1429 55.2677 47.1429 54.6875V45.9375C47.1429 45.3573 46.9172 44.8009 46.5153 44.3907C46.1135 43.9805 45.5684 43.75 45.0001 43.75Z" fill="#008BB7"/>
</svg>
