<svg width="161" height="100" viewBox="0 0 161 100" fill="none" xmlns="http://www.w3.org/2000/svg">
<path d="M80.5 99.4169C124.959 99.4169 161 77.1617 161 49.7084C161 22.2552 124.959 0 80.5 0C36.0411 0 0 22.2552 0 49.7084C0 77.1617 36.0411 99.4169 80.5 99.4169Z" fill="#A1E3FF"/>
<path fill-rule="evenodd" clip-rule="evenodd" d="M22.606 79.1411L31.4283 26.162H51.8282C60.6499 26.8163 65.061 32.0482 65.061 41.2058C65.061 56.9032 54.5853 66.0601 45.2115 65.4058H35.2879L33.0824 79.1411H22.606ZM37.4929 55.5954L40.25 35.9731H47.4177C51.2773 35.9731 54.0338 37.9352 54.0338 41.8594C53.4828 52.979 49.0717 54.9411 44.1096 55.5954H37.4929ZM63.0114 65.4058L71.8331 12.4275H82.3094L80.1038 26.162H90.0279C98.8502 26.8163 102.158 32.0483 101.056 38.5895L97.1962 65.4058H86.169L90.0286 41.2058C90.5795 37.9352 90.5795 35.9731 86.7205 35.9731H78.4498L73.4877 65.4058H63.0114ZM96.49 79.1411L105.312 26.162H125.712C134.534 26.8163 138.946 32.0482 138.946 41.2058C138.946 56.9032 128.469 66.0601 119.096 65.4058H109.171L106.966 79.1411H96.49ZM111.376 55.5954L114.133 35.9731H121.302C125.161 35.9731 127.918 37.9352 127.918 41.8594C127.367 52.979 122.956 54.9411 117.994 55.5954H111.376Z" fill="#0188B3"/>
</svg>
