<svg width="80" height="80" viewBox="0 0 80 80" fill="none" xmlns="http://www.w3.org/2000/svg">
<path d="M69.4274 20.3435C65.6399 15.439 60.483 11.7678 54.6089 9.79429C48.7349 7.82076 42.4075 7.63352 36.427 9.25626C30.4465 10.879 25.0816 14.2388 21.0107 18.9108C16.9398 23.5828 14.3459 29.3571 13.5569 35.5034C12.7679 41.6497 13.8194 47.8919 16.5783 53.4406C19.3372 58.9893 23.6796 63.5952 29.0564 66.6758C34.4331 69.7564 40.6026 71.1734 46.7847 70.7474C52.9668 70.3215 58.8837 68.0718 63.7871 64.2828C77.4741 53.7053 80 34.0354 69.4264 20.3435H69.4274Z" fill="#FF6C37"/>
<path d="M55.1979 28.1249L41.9878 41.4399L38.2547 37.602C51.2563 24.6004 52.5613 25.7752 55.1989 28.1249H55.1979Z" fill="white"/>
<path d="M41.9878 41.804C41.8708 41.8012 41.7591 41.7547 41.6745 41.6738L37.915 37.9143C37.8304 37.8267 37.7831 37.7096 37.7831 37.5878C37.7831 37.466 37.8304 37.3489 37.915 37.2613C50.7336 24.4427 52.4831 25.0429 55.5113 27.7842C55.562 27.8248 55.6025 27.8766 55.6297 27.9356C55.6569 27.9945 55.67 28.059 55.6679 28.1239C55.6875 28.2512 55.6386 28.3814 55.5377 28.4637L42.3275 41.6748C42.2349 41.7597 42.1135 41.8063 41.9878 41.805V41.804ZM38.9068 37.601L41.9878 40.6821L54.5195 28.1504C54.0868 27.6081 53.4694 27.2444 52.7854 27.1288C52.1014 27.0132 51.3987 27.1538 50.8119 27.5238C48.5405 28.542 44.8858 31.6485 38.9068 37.601Z" fill="#FF6C37"/>
<path d="M45.7737 45.1209L42.1708 41.4397L55.381 28.3853C58.932 31.8579 53.6579 37.6538 45.7737 45.1199V45.1209Z" fill="white"/>
<path d="M45.7738 45.5909C45.6582 45.5817 45.5485 45.5361 45.4605 45.4607L41.7793 41.8578C41.7241 41.724 41.7241 41.5737 41.7793 41.4398C41.7401 41.3299 41.7401 41.2099 41.7793 41.1001L54.9895 27.8899C55.0813 27.8036 55.2027 27.7556 55.3287 27.7556C55.4548 27.7556 55.5761 27.8036 55.668 27.8899C56.0958 28.2837 56.4338 28.7649 56.659 29.301C56.8841 29.837 56.9913 30.4153 56.973 30.9964C56.973 34.5209 52.9521 38.9589 46.1125 45.4343C46.0211 45.5247 45.9009 45.5801 45.7728 45.5909H45.7738ZM42.8494 41.4398L45.7992 44.3887C51.0204 39.4543 56.0077 34.3633 56.0331 30.9171C56.0615 30.1865 55.82 29.4711 55.3547 28.9071L42.8494 41.4398Z" fill="#FF6C37"/>
<path d="M38.3585 37.6804L40.9696 40.2915C40.9863 40.3062 40.9996 40.3242 41.0088 40.3445C41.0179 40.3647 41.0226 40.3867 41.0226 40.4089C41.0226 40.4312 41.0179 40.4531 41.0088 40.4734C40.9996 40.4937 40.9863 40.5117 40.9696 40.5264L35.4606 41.7013C35.3494 41.7253 35.2334 41.7123 35.1302 41.6643C35.0271 41.6162 34.9425 41.5358 34.8892 41.4353C34.836 41.3347 34.8171 41.2195 34.8354 41.1072C34.8537 40.995 34.9082 40.8917 34.9906 40.8133L38.2019 37.6285C38.2019 37.6285 38.3066 37.6285 38.3585 37.6804Z" fill="white"/>
<path d="M35.3303 42.2231C35.1563 42.2209 34.9857 42.1741 34.8349 42.0872C34.684 42.0003 34.558 41.8762 34.4688 41.7267C34.3684 41.5374 34.332 41.3206 34.365 41.1089C34.398 40.8971 34.4986 40.7017 34.6519 40.5519L37.8367 37.3406C37.9515 37.238 38.1002 37.1812 38.2542 37.1812C38.4083 37.1812 38.5569 37.238 38.6718 37.3406L41.2829 39.9517C41.4376 40.0986 41.4983 40.3208 41.4395 40.5264C41.3808 40.732 41.2085 40.8955 40.996 40.9445L35.487 42.1193L35.3303 42.2231ZM38.2547 38.255L35.3049 41.2049L40.1873 40.1603L38.2547 38.255Z" fill="#FF6C37"/>
<path d="M62.2217 20.788C60.3321 18.965 57.3636 18.8886 55.382 20.6088C53.4004 22.329 53.0616 25.2818 54.6046 27.4063C56.1476 29.5308 59.0564 30.126 61.3082 28.7769L57.7572 25.226L62.2217 20.788Z" fill="white"/>
<path d="M58.6971 29.9773C57.6115 29.9633 56.554 29.6303 55.6564 29.0196C54.7587 28.4088 54.0607 27.5475 53.6492 26.5428C53.2379 25.5389 53.13 24.4364 53.3389 23.3718C53.5477 22.3072 54.064 21.3272 54.824 20.553C55.8693 19.5269 57.2755 18.9521 58.7402 18.9521C60.2049 18.9521 61.6111 19.5269 62.6564 20.553C62.7563 20.6372 62.813 20.7615 62.813 20.8927C62.8128 20.9573 62.7987 21.021 62.7717 21.0796C62.7446 21.1382 62.7053 21.1904 62.6564 21.2325L58.4269 25.2269L61.6382 28.3863C61.6902 28.436 61.7293 28.4977 61.752 28.5659C61.7747 28.6342 61.7803 28.707 61.7684 28.7779C61.7607 28.8464 61.738 28.9123 61.7019 28.971C61.6659 29.0297 61.6174 29.0798 61.5599 29.1177C60.6971 29.6569 59.7054 29.9545 58.6883 29.9792L58.6971 29.9773ZM58.6971 19.8471C56.8369 19.8569 55.1726 20.9759 54.4745 22.6863C53.7764 24.3967 54.1563 26.3656 55.4604 27.6794C56.109 28.3319 56.9396 28.7732 57.8433 28.9456C58.747 29.118 59.6817 29.0135 60.525 28.6458L57.4439 25.5647C57.395 25.5256 57.3554 25.4759 57.3282 25.4194C57.3011 25.3628 57.287 25.3009 57.287 25.2382C57.287 25.1755 57.3011 25.1136 57.3282 25.0571C57.3554 25.0005 57.395 24.9509 57.4439 24.9117L61.5168 20.8124C60.7072 20.192 59.7171 19.8527 58.6971 19.8461V19.8471Z" fill="#FF6C37"/>
<path d="M62.2999 20.8663L57.8355 25.3043L61.3864 28.8553C61.7438 28.6501 62.0766 28.4047 62.3782 28.1239C63.3089 27.1402 63.8209 25.8334 63.8063 24.4793C63.7917 23.1252 63.2516 21.8297 62.2999 20.8663Z" fill="white"/>
<path d="M61.3072 29.2469C61.2486 29.2501 61.1899 29.24 61.1357 29.2175C61.0815 29.1949 61.033 29.1605 60.9939 29.1167L57.4429 25.5657C57.3939 25.5265 57.3544 25.4769 57.3272 25.4203C57.3001 25.3638 57.2859 25.3019 57.2859 25.2392C57.2859 25.1765 57.3001 25.1146 57.3272 25.058C57.3544 25.0015 57.3939 24.9518 57.4429 24.9127L61.8809 20.553C61.9238 20.4884 61.982 20.4354 62.0503 20.3987C62.1186 20.362 62.195 20.3428 62.2725 20.3428C62.3501 20.3428 62.4264 20.362 62.4948 20.3987C62.5631 20.4354 62.6213 20.4884 62.6641 20.553C63.1851 21.0635 63.5991 21.6728 63.8816 22.3452C64.1642 23.0177 64.3097 23.7398 64.3097 24.4692C64.3097 25.1986 64.1642 25.9207 63.8816 26.5931C63.5991 27.2656 63.1851 27.8749 62.6641 28.3853C62.3568 28.7113 62.0052 28.9924 61.6195 29.2205C61.5224 29.2694 61.4101 29.2789 61.3062 29.2469H61.3072ZM58.4357 25.227L61.3855 28.1768C61.5884 28.0346 61.7805 27.8775 61.9602 27.7069C62.8274 26.8421 63.3158 25.6684 63.3181 24.4437C63.3201 23.3477 62.9207 22.2889 62.1952 21.4674L58.4357 25.227Z" fill="#FF6C37"/>
<path d="M55.7463 28.6732C55.3927 28.3411 54.9258 28.1562 54.4407 28.1562C53.9556 28.1563 53.4888 28.3411 53.1352 28.6732L41.3093 40.4726L43.2674 42.4571L55.7727 31.4918C55.9634 31.309 56.1147 31.0892 56.2172 30.8457C56.3198 30.6023 56.3714 30.3404 56.3689 30.0763C56.3664 29.8121 56.3099 29.5513 56.2028 29.3098C56.0958 29.0684 55.9404 28.8513 55.7463 28.6722V28.6732Z" fill="white"/>
<path d="M43.1627 42.928C43.0457 42.9251 42.9339 42.8787 42.8494 42.7978L40.8649 40.8133C40.7802 40.7257 40.7329 40.6086 40.7329 40.4868C40.7329 40.3649 40.7802 40.2479 40.8649 40.1603L52.6917 28.3854C53.0323 28.0451 53.4673 27.8151 53.9403 27.725C54.4133 27.635 54.9024 27.6892 55.3442 27.8805C55.786 28.0718 56.1601 28.3914 56.4181 28.798C56.6761 29.2045 56.8059 29.6791 56.7909 30.1604C56.7773 30.487 56.6987 30.8076 56.5597 31.1035C56.4207 31.3994 56.224 31.6645 55.9812 31.8835L43.476 42.8487C43.385 42.9131 43.2732 42.941 43.1627 42.927V42.928ZM41.7793 40.4726L43.0843 41.8041L55.3546 31.1257C55.6581 30.8613 55.8393 30.4834 55.851 30.0811C55.8628 29.6787 55.7042 29.2851 55.4075 29.011C55.1336 28.7382 54.7627 28.585 54.3761 28.585C53.9895 28.585 53.6186 28.7382 53.3447 29.011L41.7793 40.4726Z" fill="#FF6C37"/>
<path d="M32.1455 53.9187C32.1121 53.9641 32.0941 54.019 32.0941 54.0754C32.0941 54.1317 32.1121 54.1866 32.1455 54.232L32.6674 56.5034C32.6883 56.6371 32.6684 56.7739 32.6105 56.8962C32.5525 57.0184 32.459 57.1204 32.3423 57.1887C32.226 57.2568 32.0911 57.2861 31.957 57.2726C31.8229 57.259 31.6966 57.2033 31.5963 57.1133L28.0199 53.6671L39.1682 42.4307H43.0324L45.6435 45.0418C41.5704 48.603 37.0289 51.5897 32.1455 53.9187Z" fill="white"/>
<path d="M31.9106 57.7565C31.6149 57.7507 31.3231 57.6293 31.1273 57.4168L27.7075 53.997C27.6586 53.9579 27.619 53.9082 27.5919 53.8517C27.5647 53.7951 27.5506 53.7332 27.5506 53.6705C27.5506 53.6078 27.5647 53.5459 27.5919 53.4894C27.619 53.4328 27.6586 53.3832 27.7075 53.344L38.9332 42.0919C38.9961 42.0251 39.0782 41.9796 39.1682 41.9617H43.0579C43.1593 41.9259 43.2698 41.9259 43.3712 41.9617L45.9823 44.5728C46.0319 44.6186 46.0697 44.6757 46.0924 44.7393C46.1151 44.8029 46.122 44.8711 46.1125 44.938C46.1144 45.0028 46.1012 45.0673 46.074 45.1262C46.0468 45.1851 46.0064 45.237 45.9559 45.2777L45.7473 45.4608C41.6578 48.8701 37.1586 51.7555 32.3541 54.0499L32.8504 56.1646C32.8888 56.3277 32.8903 56.4974 32.8547 56.6612C32.8192 56.8249 32.7475 56.9787 32.645 57.1113C32.5425 57.2438 32.4116 57.3518 32.2621 57.4274C32.1125 57.5029 31.9479 57.5441 31.7804 57.548L31.9106 57.7565ZM28.7257 53.6573L31.8058 56.7638C31.8345 56.7894 31.8716 56.8035 31.9101 56.8035C31.9485 56.8035 31.9856 56.7894 32.0143 56.7638C32.0335 56.7371 32.0439 56.7051 32.0439 56.6722C32.0439 56.6394 32.0335 56.6074 32.0143 56.5807L31.4925 54.3093C31.4514 54.1463 31.4679 53.9741 31.5393 53.8219C31.6107 53.6697 31.7325 53.5468 31.8841 53.4742C36.5595 51.2104 40.9427 48.3874 44.9377 45.0672L42.7965 42.926H39.2984L28.7257 53.6573Z" fill="#FF6C37"/>
<path d="M25.3314 56.3467L27.9425 53.7356L31.9634 57.7565L25.5674 57.313C25.4576 57.3044 25.3533 57.2613 25.2694 57.1899C25.1855 57.1185 25.1263 57.0224 25.1003 56.9154C25.0742 56.8084 25.0826 56.6959 25.1243 56.5939C25.166 56.492 25.2388 56.4058 25.3324 56.3477L25.3314 56.3467Z" fill="white"/>
<path d="M32.0408 58.1482L25.6702 57.7046C25.2923 57.6694 24.9672 57.4109 24.8341 57.0653C24.7009 56.7197 24.7822 56.3095 25.0436 56.0334L27.6547 53.4223C27.7423 53.3377 27.8594 53.2903 27.9812 53.2903C28.103 53.2903 28.2201 53.3377 28.3077 53.4223L32.3022 57.4168C32.3575 57.4926 32.3873 57.5839 32.3873 57.6777C32.3873 57.7715 32.3575 57.8629 32.3022 57.9386C32.2418 58.0363 32.1494 58.11 32.0408 58.1472V58.1482ZM25.6702 56.6864L30.8914 57.0262L28.0199 54.3367L25.6702 56.6864Z" fill="#FF6C37"/>
<path d="M43.3976 42.7459L38.1236 43.5556L41.1781 40.5274L43.3976 42.7459Z" fill="white"/>
<path d="M38.1235 44.05C38.0359 44.0523 37.9495 44.0288 37.8752 43.9823C37.8008 43.9358 37.7418 43.8684 37.7055 43.7886C37.6499 43.713 37.6199 43.6216 37.6199 43.5277C37.6199 43.4338 37.6499 43.3424 37.7055 43.2668L40.7336 40.2121C40.8255 40.1258 40.9468 40.0778 41.0729 40.0778C41.1989 40.0778 41.3202 40.1258 41.4121 40.2121L43.6325 42.4307C43.6769 42.501 43.7004 42.5825 43.7004 42.6656C43.7004 42.7488 43.6769 42.8303 43.6325 42.9006C43.6108 42.9864 43.5647 43.064 43.5 43.1243C43.4352 43.1845 43.3544 43.2248 43.2674 43.2403L38.0462 44.05H38.1235ZM41.1781 41.2039L39.4815 42.9006L42.4058 42.4571L41.1781 41.2039Z" fill="#FF6C37"/>
<path d="M43.3976 42.744L39.7164 43.2139C39.6179 43.2363 39.5148 43.2263 39.4224 43.1855C39.33 43.1446 39.2533 43.0751 39.2035 42.9872C39.1537 42.8993 39.1336 42.7977 39.1461 42.6975C39.1586 42.5972 39.2031 42.5037 39.2729 42.4307L41.1791 40.5245L43.3976 42.744Z" fill="white"/>
</svg>
