<svg width="100" height="100" viewBox="0 0 100 100" fill="none" xmlns="http://www.w3.org/2000/svg">
<path d="M49.5719 0.0281982C24.2493 0.0281982 25.8304 11.0537 25.8304 11.0537L25.8585 22.4764H50.0234V25.9058H16.2606C16.2606 25.9058 0.0566368 24.0607 0.0566368 49.7136C0.0566368 75.3674 14.1998 74.4576 14.1998 74.4576H22.6404V62.5532C22.6404 62.5532 22.1854 48.3533 36.5579 48.3533H60.5252C60.5252 48.3533 73.9907 48.5717 73.9907 35.287V13.3215C73.9907 13.3215 76.0358 0.0281982 49.5719 0.0281982ZM36.2474 7.70976C36.8184 7.70925 37.3839 7.82179 37.9116 8.04095C38.4393 8.26012 38.9187 8.5816 39.3225 8.987C39.7263 9.3924 40.0465 9.87377 40.2647 10.4036C40.483 10.9333 40.5951 11.5011 40.5946 12.0745C40.5951 12.6478 40.483 13.2156 40.2647 13.7454C40.0465 14.2752 39.7263 14.7565 39.3225 15.1619C38.9187 15.5673 38.4393 15.8888 37.9116 16.108C37.3839 16.3271 36.8184 16.4397 36.2474 16.4392C35.6763 16.4397 35.1108 16.3271 34.5831 16.108C34.0555 15.8888 33.576 15.5673 33.1723 15.1619C32.7685 14.7565 32.4483 14.2752 32.23 13.7454C32.0117 13.2156 31.8996 12.6478 31.9001 12.0745C31.8996 11.5011 32.0117 10.9333 32.23 10.4036C32.4483 9.87377 32.7685 9.3924 33.1723 8.987C33.576 8.5816 34.0555 8.26012 34.5831 8.04095C35.1108 7.82179 35.6763 7.70925 36.2474 7.70976Z" fill="url(#paint0_linear_540_2364)"/>
<path d="M50.291 99.6573C75.6136 99.6573 74.0325 88.6318 74.0325 88.6318L74.0044 77.2095H49.8391V73.7801H83.6019C83.6019 73.7801 99.8058 75.6252 99.8058 49.9714C99.8058 24.3181 85.6627 25.2279 85.6627 25.2279H77.222V37.1318C77.222 37.1318 77.6771 51.3318 63.3046 51.3318H39.3373C39.3373 51.3318 25.8718 51.1134 25.8718 64.3985V86.3644C25.8718 86.3644 23.8271 99.6573 50.2906 99.6573H50.291ZM63.6155 91.9765C63.0445 91.977 62.479 91.8645 61.9513 91.6453C61.4236 91.4262 60.9442 91.1047 60.5404 90.6993C60.1366 90.2939 59.8164 89.8125 59.5981 89.2827C59.3798 88.7529 59.2678 88.1852 59.2683 87.6118C59.2677 87.0385 59.3798 86.4706 59.598 85.9408C59.8163 85.411 60.1365 84.9295 60.5403 84.5241C60.944 84.1187 61.4235 83.7971 61.9512 83.578C62.4789 83.3588 63.0444 83.2462 63.6155 83.2467C64.1865 83.2462 64.7521 83.3587 65.2797 83.5779C65.8074 83.7971 66.2868 84.1186 66.6906 84.524C67.0944 84.9294 67.4146 85.4107 67.6329 85.9405C67.8512 86.4703 67.9633 87.0381 67.9628 87.6114C67.9633 88.1848 67.8512 88.7526 67.6329 89.2823C67.4146 89.8121 67.0944 90.2935 66.6906 90.6989C66.2868 91.1043 65.8074 91.4258 65.2797 91.6449C64.7521 91.8641 64.1865 91.9767 63.6155 91.9761V91.9765Z" fill="url(#paint1_linear_540_2364)"/>
<defs>
<linearGradient id="paint0_linear_540_2364" x1="9.6425" y1="8.98923" x2="59.2713" y2="57.9264" gradientUnits="userSpaceOnUse">
<stop stop-color="#008BB7"/>
<stop offset="1" stop-color="#41AACB"/>
</linearGradient>
<linearGradient id="paint1_linear_540_2364" x1="39.9843" y1="40.5415" x2="93.2701" y2="90.7128" gradientUnits="userSpaceOnUse">
<stop stop-color="#A1E3FF"/>
<stop offset="1" stop-color="#A1E3FF"/>
</linearGradient>
</defs>
</svg>
