<svg width="70" height="70" viewBox="0 0 70 70" fill="none" xmlns="http://www.w3.org/2000/svg">
<path d="M0 62.952V44.0322C0 43.1339 0.356854 42.2724 0.992058 41.6372C1.62726 41.002 2.48878 40.6451 3.3871 40.6451H22.3069C25.3242 40.6451 26.8357 44.2933 24.706 46.4314L18.8139 52.3236C23.2015 56.4465 29.0019 58.7318 35.0226 58.7096C45.9474 58.6998 55.3889 51.2101 57.9956 40.8074C58.0856 40.4393 58.2965 40.1119 58.5946 39.8778C58.8927 39.6437 59.2607 39.5163 59.6397 39.5161H67.7278C67.9764 39.5159 68.222 39.5704 68.4471 39.6758C68.6722 39.7812 68.8714 39.9348 69.0305 40.1258C69.1896 40.3168 69.3047 40.5405 69.3676 40.781C69.4305 41.0215 69.4397 41.2729 69.3946 41.5173C66.3405 57.733 52.1034 70 35 70C25.9916 70.012 17.3278 66.5381 10.8232 60.3058L5.78629 65.3427C3.64819 67.4808 0 65.9693 0 62.952Z" fill="#A1E3FF"/>
<path d="M0.606855 28.4827C3.65948 12.267 17.8966 3.1302e-05 35 3.1302e-05C44.0084 -0.0120299 52.6722 3.46186 59.1768 9.69418L64.2137 4.65728C66.3476 2.52342 70 4.03491 70 7.05648V25.9677C70 26.8661 69.6431 27.7276 69.0079 28.3628C68.3727 28.998 67.5112 29.3548 66.6129 29.3548H47.6931C44.6758 29.3548 43.1643 25.7067 45.294 23.5686L51.1861 17.6764C46.799 13.5536 40.9991 11.2683 34.9788 11.2903C24.047 11.3002 14.6097 18.7956 12.0044 29.1925C11.9144 29.5607 11.7035 29.8881 11.4054 30.1222C11.1073 30.3563 10.7393 30.4837 10.3603 30.4839H2.27218C2.02372 30.4839 1.77831 30.4292 1.55334 30.3237C1.32838 30.2183 1.12938 30.0646 0.970451 29.8736C0.811524 29.6826 0.696566 29.459 0.63373 29.2186C0.570893 28.9783 0.561718 28.727 0.606855 28.4827Z" fill="#0188B3"/>
</svg>
