<svg width="90" height="90" viewBox="0 0 90 90" fill="none" xmlns="http://www.w3.org/2000/svg">
<path d="M84.4687 14.7094L48.4687 0.646045C47.3721 0.219538 46.1966 0 45.0094 0C43.8222 0 42.6466 0.219538 41.55 0.646045L5.55 14.7094C3.90704 15.3487 2.50299 16.4301 1.51519 17.8171C0.52738 19.2041 0.000121675 20.8344 0 22.5022C0 57.3968 21.4687 81.5137 41.5312 89.354C42.6278 89.7805 43.8034 90 44.9906 90C46.1778 90 47.3534 89.7805 48.45 89.354C64.5187 83.0764 90 61.3996 90 22.5022C90.0014 20.8364 89.4769 19.2075 88.4926 17.8208C87.5083 16.434 86.1082 15.3514 84.4687 14.7094ZM75.6187 34.7865L41.1187 67.1321C40.5549 67.6556 39.7935 67.9492 39 67.9492C38.2065 67.9492 37.4451 67.6556 36.8812 67.1321L17.3812 48.8498C16.8228 48.3209 16.5096 47.6067 16.5096 46.8625C16.5096 46.1183 16.8228 45.4041 17.3812 44.8752L21.6187 40.9023C22.1828 40.3793 22.9442 40.0859 23.7375 40.0859C24.5308 40.0859 25.2922 40.3793 25.8562 40.9023L39 53.2253L67.1437 26.839C67.7078 26.316 68.4692 26.0226 69.2625 26.0226C70.0558 26.0226 70.8172 26.316 71.3812 26.839L75.6187 30.8119C75.8993 31.0717 76.1221 31.3811 76.2741 31.7223C76.4261 32.0634 76.5044 32.4295 76.5044 32.7992C76.5044 33.1689 76.4261 33.535 76.2741 33.8761C76.1221 34.2172 75.8993 34.5267 75.6187 34.7865Z" fill="#A1E3FF"/>
</svg>
