<svg width="272" height="246" viewBox="0 0 272 246" fill="none" xmlns="http://www.w3.org/2000/svg">
<path d="M38.4822 22.209C38.894 20.3852 40.5143 19.09 42.3839 19.09H226.508C228.718 19.09 230.508 20.8809 230.508 23.09V188.635C230.508 190.844 228.718 192.635 226.508 192.635H5.00391C2.43933 192.635 0.537273 190.255 1.10214 187.754L38.4822 22.209Z" fill="#F4F4F4"/>
<rect x="89.8983" y="140.571" width="13.8305" height="8.67724" fill="#98C0E8"/>
<path d="M230.508 33.4077L266.441 192.852H194.576L230.508 33.4077Z" fill="#008BB7"/>
<path d="M95.4302 105.862C95.4302 105.862 110.612 116.709 110.612 124.069C110.612 131.894 102.731 136.233 96.9027 136.233C91.0742 136.233 82.9831 132.032 82.9831 124.391C82.9831 116.75 95.4302 105.862 95.4302 105.862Z" fill="#98C0E8"/>
<path fill-rule="evenodd" clip-rule="evenodd" d="M39.1865 127.556C48.0979 127.556 55.3221 120.757 55.3221 112.37C55.3221 103.984 48.0979 97.1852 39.1865 97.1852C30.2751 97.1852 23.0509 103.984 23.0509 112.37C23.0509 120.757 30.2751 127.556 39.1865 127.556ZM39.1864 121.048C44.2787 121.048 48.4068 117.163 48.4068 112.37C48.4068 107.578 44.2787 103.693 39.1864 103.693C34.0942 103.693 29.9661 107.578 29.9661 112.37C29.9661 117.163 34.0942 121.048 39.1864 121.048Z" fill="#C9D8F0"/>
<path fill-rule="evenodd" clip-rule="evenodd" d="M168.271 162.264C172.09 162.264 175.186 159.351 175.186 155.757C175.186 152.162 172.09 149.249 168.271 149.249C164.452 149.249 161.356 152.162 161.356 155.757C161.356 159.351 164.452 162.264 168.271 162.264ZM168.27 159.475C170.452 159.475 172.222 157.81 172.222 155.757C172.222 153.703 170.452 152.038 168.27 152.038C166.088 152.038 164.318 153.703 164.318 155.757C164.318 157.81 166.088 159.475 168.27 159.475Z" fill="#C9D8F0"/>
<path fill-rule="evenodd" clip-rule="evenodd" d="M93.8165 56.0475C94.2726 54.8681 93.6726 53.5799 92.4763 53.1701C91.2801 52.7603 89.9405 53.3842 89.4844 54.5636L87.1567 60.5822L80.5599 58.3226C79.4179 57.9314 78.1392 58.527 77.7038 59.6528C77.2684 60.7786 77.8411 62.0084 78.9831 62.3995L85.5799 64.6592L83.2523 70.6775C82.7962 71.8569 83.3962 73.1452 84.5925 73.5549C85.7888 73.9647 87.1283 73.3408 87.5845 72.1614L89.9121 66.143L96.5084 68.4025C97.6504 68.7937 98.9291 68.1981 99.3645 67.0723C99.7999 65.9464 99.2271 64.7167 98.0852 64.3255L91.4888 62.0661L93.8165 56.0475Z" fill="#C9D8F0"/>
<path d="M143.372 52.6351C143.542 52.2338 143.756 51.9247 144.014 51.7079C144.275 51.4882 144.598 51.3783 144.985 51.3783C145.463 51.3783 145.829 51.5336 146.084 51.8441C146.277 52.0756 146.374 52.3231 146.374 52.5868C146.374 53.0204 146.101 53.4686 145.556 53.9315C145.923 54.0751 146.199 54.2802 146.387 54.5468C146.574 54.8134 146.668 55.1268 146.668 55.4872C146.668 56.0028 146.504 56.4496 146.176 56.8275C145.748 57.3197 145.129 57.5658 144.317 57.5658C143.916 57.5658 143.642 57.516 143.495 57.4164C143.352 57.3168 143.28 57.2098 143.28 57.0956C143.28 57.0106 143.314 56.9359 143.381 56.8715C143.451 56.807 143.535 56.7748 143.632 56.7748C143.705 56.7748 143.78 56.7865 143.856 56.8099C143.906 56.8246 144.018 56.8788 144.194 56.9725C144.37 57.0634 144.491 57.1176 144.559 57.1351C144.667 57.1674 144.783 57.1835 144.906 57.1835C145.205 57.1835 145.464 57.0677 145.684 56.8363C145.906 56.6049 146.018 56.3309 146.018 56.0145C146.018 55.7831 145.967 55.5575 145.864 55.3378C145.788 55.1737 145.704 55.0492 145.614 54.9642C145.488 54.847 145.315 54.7416 145.095 54.6478C144.875 54.5511 144.651 54.5028 144.423 54.5028H144.282V54.371C144.513 54.3417 144.745 54.2582 144.976 54.1205C145.211 53.9828 145.381 53.8173 145.486 53.6239C145.592 53.4305 145.644 53.2181 145.644 52.9867C145.644 52.6849 145.549 52.4418 145.359 52.2572C145.171 52.0697 144.937 51.976 144.656 51.976C144.201 51.976 143.822 52.2191 143.517 52.7054L143.372 52.6351ZM148.47 52.0858L149.92 51.3783H150.065V56.41C150.065 56.744 150.078 56.952 150.105 57.0341C150.134 57.1161 150.193 57.1791 150.281 57.223C150.368 57.267 150.547 57.2919 150.817 57.2977V57.4603H148.575V57.2977C148.857 57.2919 149.038 57.2684 149.12 57.2274C149.202 57.1835 149.26 57.1263 149.292 57.056C149.324 56.9828 149.34 56.7675 149.34 56.41V53.1932C149.34 52.7596 149.325 52.4813 149.296 52.3583C149.276 52.2645 149.238 52.1957 149.182 52.1517C149.129 52.1078 149.065 52.0858 148.989 52.0858C148.88 52.0858 148.729 52.1312 148.536 52.222L148.47 52.0858Z" fill="#B1B1B1"/>
<ellipse cx="71.6873" cy="40.3494" rx="5.76271" ry="2.16931" fill="#DDDDDD"/>
<path d="M68.9324 42.6488C68.632 43.1122 67.9986 43.2669 67.5346 42.9701C65.1188 41.4251 63.075 39.4133 61.5411 37.0642C59.8296 34.4432 58.8017 31.4768 58.5414 28.4076C58.2811 25.3383 58.7958 22.2534 60.0433 19.405C61.2909 16.5565 63.236 14.0255 65.7195 12.0188C68.203 10.0122 71.1545 8.58678 74.3325 7.85927C77.5106 7.13176 80.8251 7.12276 84.0049 7.83301C87.1848 8.54326 90.1398 9.95259 92.6283 11.9458C95.1167 13.939 99.2086 19.0815 97.5084 19.0791L90.6016 18.7533C90.2167 18.7352 89.9162 18.4834 89.6682 18.2076C89.067 17.5391 88.5361 18.9227 87.2539 17.8957C85.7608 16.6997 83.9878 15.8542 82.0799 15.428C80.172 15.0019 78.1833 15.0073 76.2764 15.4438C74.3696 15.8803 72.5987 16.7355 71.1086 17.9395C69.6185 19.1435 68.4515 20.6621 67.7029 22.3712C66.9544 24.0802 66.6456 25.9312 66.8018 27.7727C66.958 29.6143 67.5747 31.3941 68.6016 32.9667C69.4507 34.2671 70.5603 35.3953 71.8653 36.2902C72.3189 36.6011 72.4665 37.1966 72.1661 37.6601L68.9324 42.6488Z" fill="#00799F"/>
<ellipse cx="121.728" cy="40.3494" rx="5.76271" ry="2.16931" fill="#DDDDDD"/>
<path d="M119.644 42.6435C119.344 43.107 118.71 43.2617 118.246 42.9649C115.831 41.4198 113.787 39.408 112.253 37.059C110.541 34.438 109.514 31.4716 109.253 28.4023C108.993 25.3331 109.508 22.2481 110.755 19.3997C112.003 16.5513 113.948 14.0203 116.431 12.0136C118.915 10.0069 121.866 8.58154 125.044 7.85402C128.222 7.12651 131.537 7.11751 134.717 7.82776C137.897 8.53801 140.852 9.94734 143.34 11.9405C145.829 13.9337 149.92 19.0762 148.22 19.0739L141.313 18.7481C140.929 18.7299 140.628 18.4782 140.38 18.2023C139.779 17.5338 139.248 18.9174 137.966 17.8904C136.473 16.6945 134.7 15.8489 132.792 15.4228C130.884 14.9966 128.895 15.002 126.988 15.4385C125.081 15.875 123.311 16.7302 121.82 17.9343C120.33 19.1383 119.163 20.6569 118.415 22.3659C117.666 24.075 117.357 25.926 117.514 27.7675C117.67 29.609 118.287 31.3889 119.313 32.9615C120.163 34.2619 121.272 35.39 122.577 36.2849C123.031 36.5959 123.178 37.1914 122.878 37.6548L119.644 42.6435Z" fill="#00799F"/>
<ellipse cx="172.44" cy="40.3494" rx="5.76271" ry="2.16931" fill="#DDDDDD"/>
<path d="M170.356 42.6435C170.056 43.107 169.422 43.2617 168.958 42.9649C166.543 41.4198 164.499 39.408 162.965 37.059C161.253 34.438 160.225 31.4716 159.965 28.4023C159.705 25.3331 160.219 22.2481 161.467 19.3997C162.715 16.5513 164.66 14.0203 167.143 12.0136C169.627 10.0069 172.578 8.58154 175.756 7.85402C178.934 7.12651 182.249 7.11751 185.429 7.82776C188.609 8.53801 191.563 9.94734 194.052 11.9405C196.54 13.9337 200.632 19.0762 198.932 19.0739L192.025 18.7481C191.64 18.7299 191.34 18.4782 191.092 18.2023C190.491 17.5338 189.96 18.9174 188.678 17.8904C187.184 16.6945 185.412 15.8489 183.504 15.4228C181.596 14.9966 179.607 15.002 177.7 15.4385C175.793 15.875 174.022 16.7302 172.532 17.9343C171.042 19.1383 169.875 20.6569 169.127 22.3659C168.378 24.075 168.069 25.926 168.225 27.7675C168.382 29.609 168.998 31.3889 170.025 32.9615C170.874 34.2619 171.984 35.39 173.289 36.2849C173.743 36.5959 173.89 37.1914 173.59 37.6548L170.356 42.6435Z" fill="#00799F"/>
<path fill-rule="evenodd" clip-rule="evenodd" d="M50.7119 152.249C50.7119 150.592 52.055 149.249 53.7119 149.249H139.915C141.572 149.249 142.915 150.592 142.915 152.249V169.434L141.644 170.63L141.654 170.639C140.182 171.985 138.466 173.068 136.595 173.833C134.649 174.628 132.574 175.061 130.488 175.109C128.402 175.156 126.347 174.817 124.44 174.109C122.532 173.402 120.81 172.341 119.37 170.987L119.366 170.991L116.622 168.409L116.629 168.402L114.07 165.995L108.707 171.042L108.713 171.047C107.309 172.329 105.646 173.337 103.812 174.017C101.907 174.724 99.8546 175.064 97.7722 175.017C95.6898 174.97 93.6181 174.538 91.6752 173.745C89.7324 172.952 87.9565 171.814 86.4489 170.395L86.4471 170.397L84.336 168.41L84.4791 168.275L81.925 165.872L76.5219 170.956L76.534 170.968C75.122 172.255 73.4532 173.27 71.6151 173.959C69.7023 174.676 67.6437 175.025 65.5569 174.988C63.47 174.951 61.3957 174.527 59.4525 173.74C57.5092 172.954 55.735 171.821 54.2312 170.406L54.2263 170.411L50.7119 167.103V152.249ZM113.94 172.992L111.309 175.468L111.346 175.503C109.584 177.161 107.476 178.46 105.142 179.326C102.807 180.192 100.292 180.609 97.7403 180.551C95.1883 180.494 92.6494 179.964 90.2685 178.993C87.8876 178.021 85.7112 176.626 83.8637 174.887L83.8899 174.862L81.7788 172.875L79.1284 175.37L79.1699 175.409C77.396 177.078 75.2765 178.39 72.9324 179.268C70.5883 180.147 68.0656 180.575 65.5081 180.529C62.9507 180.484 60.4087 179.964 58.0273 179.001C55.6458 178.037 53.4716 176.649 51.6287 174.914L51.6508 174.893L50.7119 174.01V200.312C50.7119 200.864 51.1596 201.312 51.7119 201.312H141.915C142.468 201.312 142.915 200.864 142.915 200.312V176.07C141.363 177.307 139.628 178.325 137.768 179.084C135.383 180.059 132.84 180.59 130.284 180.648C127.728 180.706 125.21 180.29 122.872 179.423C120.534 178.557 118.423 177.256 116.66 175.597L116.684 175.574L113.94 172.992Z" fill="#008BB7"/>
</svg>
