<svg width="360" height="310" viewBox="0 0 360 310" fill="none" xmlns="http://www.w3.org/2000/svg">
<g clip-path="url(#clip0_254_57)">
<path d="M299.354 62C311.781 62 321.854 71.9138 321.854 84.1429V172.714C321.854 209.402 291.634 239.143 254.354 239.143H123.854C111.428 239.143 101.354 229.229 101.354 217V84.1429C101.354 71.9138 111.428 62 123.854 62H299.354Z" fill="#008BB7"/>
<path d="M101.354 39.8571C101.354 27.628 111.428 17.7143 123.854 17.7143H258.855C271.281 17.7143 281.355 27.628 281.355 39.8571V239.143H123.854C111.428 239.143 101.354 229.229 101.354 217V39.8571Z" fill="#F4F4F4"/>
<path d="M168.854 66.4286C168.854 63.9827 170.869 62 173.354 62H254.355C256.84 62 258.855 63.9827 258.855 66.4286C258.855 68.8745 256.84 70.8571 254.355 70.8571H173.354C170.869 70.8571 168.854 68.8745 168.854 66.4286Z" fill="#008BB7"/>
<path d="M168.854 84.1428C168.854 81.6969 170.869 79.7143 173.354 79.7143H254.355C256.84 79.7143 258.855 81.6969 258.855 84.1428C258.855 86.5887 256.84 88.5714 254.355 88.5714H173.354C170.869 88.5714 168.854 86.5887 168.854 84.1428Z" fill="#D3E0EB"/>
<path d="M168.854 119.571C168.854 117.126 170.869 115.143 173.354 115.143H254.355C256.84 115.143 258.855 117.126 258.855 119.571C258.855 122.017 256.84 124 254.355 124H173.354C170.869 124 168.854 122.017 168.854 119.571Z" fill="#0189B4"/>
<path d="M168.854 137.286C168.854 134.84 170.869 132.857 173.354 132.857H254.355C256.84 132.857 258.855 134.84 258.855 137.286C258.855 139.732 256.84 141.714 254.355 141.714H173.354C170.869 141.714 168.854 139.732 168.854 137.286Z" fill="#D3E0EB"/>
<path d="M168.854 172.714C168.854 170.268 170.869 168.286 173.354 168.286H254.355C256.84 168.286 258.855 170.268 258.855 172.714C258.855 175.16 256.84 177.143 254.355 177.143H173.354C170.869 177.143 168.854 175.16 168.854 172.714Z" fill="#008BB7"/>
<path d="M168.854 190.429C168.854 187.983 170.869 186 173.354 186H254.355C256.84 186 258.855 187.983 258.855 190.429C258.855 192.874 256.84 194.857 254.355 194.857H173.354C170.869 194.857 168.854 192.874 168.854 190.429Z" fill="#D3E0EB"/>
<path d="M148.604 88.5714C154.818 88.5714 159.854 83.6146 159.854 77.5C159.854 71.3854 154.818 66.4286 148.604 66.4286C142.391 66.4286 137.354 71.3854 137.354 77.5C137.354 83.6146 142.391 88.5714 148.604 88.5714Z" fill="#D3DFEB"/>
<path d="M148.604 141.714C154.818 141.714 159.854 136.757 159.854 130.643C159.854 124.528 154.818 119.571 148.604 119.571C142.391 119.571 137.354 124.528 137.354 130.643C137.354 136.757 142.391 141.714 148.604 141.714Z" fill="#D3DFEB"/>
<path d="M148.604 194.857C154.818 194.857 159.854 189.9 159.854 183.786C159.854 177.671 154.818 172.714 148.604 172.714C142.391 172.714 137.354 177.671 137.354 183.786C137.354 189.9 142.391 194.857 148.604 194.857Z" fill="#D3DFEB"/>
<path fill-rule="evenodd" clip-rule="evenodd" d="M369.104 88.5714C377.803 88.5714 384.854 81.6319 384.854 73.0714C384.854 64.511 377.803 57.5714 369.104 57.5714C360.406 57.5714 353.354 64.511 353.354 73.0714C353.354 81.6319 360.406 88.5714 369.104 88.5714ZM369.104 81.9286C374.075 81.9286 378.104 77.9632 378.104 73.0714C378.104 68.1796 374.075 64.2143 369.104 64.2143C364.134 64.2143 360.104 68.1796 360.104 73.0714C360.104 77.9632 364.134 81.9286 369.104 81.9286Z" fill="#F4F4F4"/>
<path d="M85.6045 31C94.303 31 101.354 24.0604 101.354 15.5C101.354 6.93959 94.303 0 85.6045 0C76.906 0 69.8545 6.93959 69.8545 15.5C69.8545 24.0604 76.906 31 85.6045 31Z" fill="#F4F4F4"/>
<path d="M85.6045 24.3572C90.5751 24.3572 94.6045 20.3917 94.6045 15.5C94.6045 10.6083 90.5751 6.64287 85.6045 6.64287C80.6339 6.64287 76.6045 10.6083 76.6045 15.5C76.6045 20.3917 80.6339 24.3572 85.6045 24.3572Z" fill="white"/>
<path fill-rule="evenodd" clip-rule="evenodd" d="M53.4656 55.339C53.8906 54.1898 53.2895 52.9197 52.1208 52.5012C50.9522 52.0822 49.662 52.6752 49.237 53.8244L46.9284 60.0665L40.5855 57.7946C39.4168 57.3761 38.1266 57.9691 37.7016 59.1179C37.2766 60.2671 37.8777 61.5377 39.0464 61.9562L45.3893 64.228L43.0807 70.4705C42.6557 71.6193 43.2567 72.8898 44.4254 73.3083C45.594 73.7268 46.8843 73.1339 47.3093 71.9851L49.6179 65.7426L55.9608 68.0149C57.1295 68.4334 58.4197 67.8404 58.8447 66.6912C59.2696 65.5424 58.6686 64.2718 57.4999 63.8533L51.157 61.5811L53.4656 55.339Z" fill="#F4F4F4"/>
<path d="M335.355 93H312.855C302.913 93 294.854 100.931 294.854 110.714V132.857C294.854 142.64 302.913 150.571 312.855 150.571H335.355C345.296 150.571 353.355 142.64 353.355 132.857V110.714C353.355 100.931 345.296 93 335.355 93Z" fill="#E5E5E5"/>
<path d="M324.104 137.286C332.803 137.286 339.854 130.346 339.854 121.786C339.854 113.225 332.803 106.286 324.104 106.286C315.406 106.286 308.354 113.225 308.354 121.786C308.354 130.346 315.406 137.286 324.104 137.286Z" fill="#008BB7"/>
<path d="M317.354 119.571C318.597 119.571 319.604 118.58 319.604 117.357C319.604 116.134 318.597 115.143 317.354 115.143C316.112 115.143 315.104 116.134 315.104 117.357C315.104 118.58 316.112 119.571 317.354 119.571Z" fill="white"/>
<path d="M330.854 119.571C332.097 119.571 333.104 118.58 333.104 117.357C333.104 116.134 332.097 115.143 330.854 115.143C329.612 115.143 328.604 116.134 328.604 117.357C328.604 118.58 329.612 119.571 330.854 119.571Z" fill="white"/>
<path d="M332.114 121.696C332.766 121.937 333.103 122.657 332.77 123.259C332.125 124.423 331.22 125.435 330.116 126.214C328.671 127.236 326.949 127.813 325.17 127.871C323.391 127.93 321.634 127.469 320.122 126.545C318.968 125.84 317.996 124.891 317.272 123.771C316.899 123.194 317.187 122.452 317.82 122.169C318.454 121.886 319.192 122.171 319.596 122.729C320.091 123.41 320.72 123.992 321.451 124.438C322.54 125.103 323.804 125.435 325.085 125.393C326.366 125.35 327.605 124.935 328.647 124.2C329.345 123.706 329.932 123.084 330.38 122.372C330.746 121.789 331.462 121.455 332.114 121.696Z" fill="white"/>
<path fill-rule="evenodd" clip-rule="evenodd" d="M97.2289 174.019C97.2973 179.251 96.9098 184.021 96.2789 186.338C93.8053 195.424 86.9468 197.632 79.745 195.732C72.5432 193.833 67.7251 188.547 70.1992 179.461C71.7544 173.749 77.1539 164.066 82.5683 158.088C83.4206 156.161 84.0583 153.979 84.2594 151.487C86.9639 117.959 92.7644 120.25 96.3743 122.724C96.5359 122.834 96.7015 122.944 96.8702 123.056C100.472 125.452 105.36 128.702 96.2465 154.647C95.6921 156.226 95.5684 157.975 95.6687 159.78C96.2713 162.15 96.6794 164.934 96.9278 167.812C97.3643 170.198 97.6465 172.368 97.2289 174.019Z" fill="#008BB7"/>
<path fill-rule="evenodd" clip-rule="evenodd" d="M50.6702 175.874C50.4574 173.47 50.0086 170.658 49.1334 167.444C43.8801 148.15 45.9863 146.62 50.7222 146.621C50.883 146.621 51.0392 146.62 51.1912 146.619C55.5127 146.602 56.3476 146.598 60.5106 162.068C61.129 164.365 61.9543 166.113 62.8659 167.455C67.6791 169.883 73.5868 173.823 75.371 179.129C78.6848 188.984 71.2693 193.313 65.774 194.762C60.2787 196.211 51.5005 194.001 49.4098 186.322C48.611 183.388 49.3956 179.526 50.6702 175.874Z" fill="#D3DFEB"/>
<path d="M86.9464 229.626C80.7711 212.928 80.1253 194.735 85.1023 177.654L86.7457 178.118C81.8686 194.858 82.5013 212.687 88.5534 229.05L86.9464 229.626Z" fill="#F0F0F0"/>
<path d="M91.6984 227.286C77.8667 215.864 68.0645 200.426 63.6964 183.185L65.3556 182.778C69.6363 199.674 79.2424 214.803 92.7973 225.997L91.6984 227.286Z" fill="#F0F0F0"/>
<path d="M90.1045 239.143H58.6045L49.6045 203.715H99.1045L90.1045 239.143Z" fill="#00799F"/>
<path fill-rule="evenodd" clip-rule="evenodd" d="M149.319 83.0667C148.944 84.7655 148.421 85.3815 148.478 84.0755C148.484 83.9365 148.481 83.793 148.468 83.6455C148.452 83.533 148.435 83.4117 148.419 83.2815C147.71 79.3441 141.132 73.0032 136.761 70.8571L144.645 67.2319C146.822 69.3045 148.122 71.6786 148.853 73.997C150.303 67.6796 154.663 59.9748 166.605 55.1313L166.606 64.2143C157.065 67.0995 151.246 78.8277 149.319 83.0667Z" fill="#008BB7"/>
</g>
<defs>
<clipPath id="clip0_254_57">
<rect width="360" height="310" fill="white"/>
</clipPath>
</defs>
</svg>
