<svg width="341" height="238" viewBox="0 0 341 238" fill="none" xmlns="http://www.w3.org/2000/svg">
<path opacity="0.3" d="M167.648 235.413C222.557 235.413 267.07 190.242 267.07 134.522C267.07 78.801 222.557 33.6304 167.648 33.6304C112.738 33.6304 68.2253 78.801 68.2253 134.522C68.2253 190.242 112.738 235.413 167.648 235.413Z" fill="#A1E3FF"/>
<path fill-rule="evenodd" clip-rule="evenodd" d="M152.482 32.194C150.16 32.5484 147.854 32.9836 145.568 33.4982L146.233 36.5282C148.398 36.0411 150.581 35.6273 152.779 35.2881L152.482 32.194ZM157.84 34.6422C159.404 34.484 160.975 34.3634 162.551 34.281V31.1726C160.876 31.2576 159.206 31.3844 157.543 31.5525L157.84 34.6422ZM136.153 36.1026C137.631 35.6158 139.12 35.1631 140.618 34.7449L141.285 37.7787C139.906 38.1654 138.537 38.5823 137.178 39.0289L136.153 36.1026ZM131.345 37.8232C129.659 38.475 127.99 39.1724 126.339 39.9145L127.709 42.6942C129.246 42.0056 130.8 41.357 132.37 40.7491L131.345 37.8232ZM116.664 44.9054C118.328 43.9306 120.017 43.0047 121.729 42.1284L123.097 44.9051C121.496 45.7247 119.916 46.589 118.359 47.4974L116.664 44.9054ZM112.311 47.6054C110.909 48.5244 109.528 49.4796 108.168 50.4704L110.165 52.8375C111.425 51.9244 112.704 51.0423 114.002 50.1924L112.311 47.6054ZM179.407 31.7335C181.47 31.9765 183.52 32.2828 185.557 32.6514L184.815 35.6707C182.9 35.3284 180.973 35.0428 179.034 34.8148L179.407 31.7335ZM196.292 38.4485C194.156 37.7927 191.996 37.2096 189.816 36.7008L190.556 33.6882C192.858 34.2267 195.137 34.8455 197.391 35.5429L196.292 38.4485ZM201.137 40.0759C203.163 40.8156 205.164 41.6221 207.136 42.4938L208.577 39.7447C206.492 38.8175 204.377 37.9612 202.234 37.1772L201.137 40.0759ZM216.859 47.4519C215.187 46.4786 213.487 45.5556 211.763 44.684L213.2 41.9421C215.035 42.8717 216.843 43.8577 218.621 44.8989L216.859 47.4519ZM221.224 50.1465C223.522 51.6489 225.762 53.2504 227.938 54.948L229.99 52.6342C227.719 50.854 225.38 49.1754 222.98 47.6018L221.224 50.1465ZM238.368 64.3454C236.296 62.1956 234.139 60.1493 231.903 58.2112L233.951 55.9031C236.281 57.9271 238.529 60.0645 240.686 62.311L238.368 64.3454ZM241.84 68.1389C243.158 69.6559 244.427 71.2091 245.647 72.7959L248.194 71.0627C246.901 69.3734 245.554 67.7208 244.154 66.1081L241.84 68.1389ZM251.717 81.635C250.749 80.0508 249.737 78.4924 248.681 76.9609L251.222 75.2318C252.349 76.8673 253.427 78.5333 254.457 80.2277L251.717 81.635ZM254.295 86.1094C255.325 88.0072 256.293 89.9366 257.198 91.8954L260.087 90.8368C259.135 88.7611 258.114 86.7163 257.026 84.7068L254.295 86.1094ZM261.4 102.523C260.743 100.541 260.025 98.5806 259.248 96.6451L262.128 95.5901C262.95 97.6442 263.706 99.7251 264.397 101.829L261.4 102.523ZM262.904 107.481C263.4 109.282 263.848 111.099 264.245 112.928L267.308 112.61C266.89 110.654 266.417 108.714 265.89 106.791L262.904 107.481ZM266.211 126.09C265.986 123.383 265.654 120.694 265.217 118.028L268.266 117.711C268.718 120.503 269.059 123.318 269.286 126.153L266.211 126.09ZM269.62 134.522H268.167L268.612 134.439L268.046 131.303L269.571 131.334C269.604 132.394 269.62 133.457 269.62 134.522ZM174.326 31.2656C173.171 31.1887 172.012 31.1316 170.851 31.0946C169.783 31.0605 168.716 31.0435 167.65 31.0435V34.1478C168.683 34.1479 169.719 34.1643 170.755 34.1974C171.823 34.2315 172.889 34.283 173.953 34.3519L174.326 31.2656ZM99.8081 57.2659C101.207 56.0004 102.637 54.7778 104.095 53.5981L106.086 55.9585C104.724 57.0574 103.387 58.1957 102.078 59.3717L99.8081 57.2659ZM96.0764 60.8142C94.011 62.8796 92.0398 65.0263 90.1671 67.2474L92.6751 69.0485C94.4714 66.9308 96.3599 64.8829 98.3371 62.9117L96.0764 60.8142ZM89.4426 73.0655C87.8381 75.1676 86.3197 77.3303 84.8896 79.5479L82.1858 78.0712C83.6787 75.7445 85.2653 73.4758 86.9433 71.2706L89.4426 73.0655ZM82.2036 83.9566L79.508 82.4846C78.5077 84.2298 77.5578 86.0039 76.6599 87.8044L79.5243 88.9365C80.3707 87.2518 81.264 85.591 82.2036 83.9566ZM77.3207 93.6183C76.4453 95.6093 75.6336 97.6297 74.8866 99.6765L71.906 98.9066C72.6897 96.7382 73.5437 94.5983 74.467 92.4899L77.3207 93.6183ZM73.2357 104.589C72.553 106.807 71.9448 109.052 71.414 111.319L68.363 110.923C68.9152 108.53 69.5505 106.161 70.2668 103.822L73.2357 104.589ZM69.4337 122.616C69.6789 120.529 69.9884 118.456 70.3606 116.398L67.3219 116.004C66.9308 118.186 66.6081 120.386 66.3552 122.601L69.4337 122.616ZM65.8932 127.772L65.8774 128.024C65.7311 130.383 65.6648 132.738 65.6776 135.087L68.7352 134.721C68.7311 132.559 68.7959 130.39 68.9305 128.219L68.958 127.787L65.8932 127.772ZM65.8336 140.278L68.878 139.914C69.0075 142.363 69.2257 144.801 69.5301 147.224L66.4974 147.632C66.1905 145.194 65.9687 142.741 65.8336 140.278ZM67.2699 152.747C67.6925 155.144 68.1983 157.522 68.7852 159.879L71.7459 159.099C71.1902 156.865 70.7099 154.61 70.3061 152.339L67.2699 152.747ZM70.1577 164.862L73.122 164.082C73.559 165.521 74.028 166.95 74.5282 168.367L71.6817 169.508C71.1377 167.972 70.6298 166.423 70.1577 164.862ZM73.5248 174.332C74.2401 176.075 75.0034 177.798 75.8131 179.501L78.5036 178.015C77.7505 176.426 77.0393 174.817 76.3709 173.192L73.5248 174.332ZM78.1436 184.104L80.8311 182.62C81.7172 184.268 82.6503 185.892 83.6292 187.491L81.1355 189.3C80.0872 187.595 79.0899 185.862 78.1436 184.104ZM83.9438 193.622C84.9293 195.06 85.9531 196.475 87.0136 197.865L89.2759 195.758C88.2949 194.466 87.3471 193.151 86.4329 191.817L83.9438 193.622ZM90.2405 201.882L92.4957 199.782C93.6704 201.175 94.8792 202.532 96.1208 203.851L94.1262 206.225C92.7944 204.819 91.4984 203.371 90.2405 201.882ZM97.7599 209.875C99.9116 211.93 102.145 213.884 104.453 215.734L106.139 213.128C103.936 211.353 101.803 209.479 99.7474 207.51L97.7599 209.875ZM108.54 218.843L110.221 216.246C112.396 217.821 114.632 219.304 116.922 220.691L115.562 223.483C113.162 222.036 110.819 220.488 108.54 218.843ZM120.015 226.017C121.819 226.984 123.651 227.896 125.509 228.752L126.525 225.81C124.782 225.002 123.064 224.142 121.372 223.233L120.015 226.017ZM130.213 230.775L131.225 227.843C133.266 228.663 135.335 229.415 137.429 230.097L136.774 233.144C134.559 232.429 132.371 231.639 130.213 230.775ZM141.682 234.589C144.057 235.224 146.458 235.773 148.883 236.233L149.167 233.128C146.867 232.684 144.588 232.159 142.334 231.553L141.682 234.589ZM153.928 237.059L154.211 233.965C155.581 234.156 156.957 234.318 158.339 234.45C159.056 234.519 159.772 234.58 160.488 234.632L160.579 237.751C159.737 237.692 158.894 237.622 158.052 237.541C156.671 237.409 155.297 237.248 153.928 237.059ZM223.991 220.77C225.219 219.944 226.431 219.09 227.626 218.208L225.469 215.96C224.372 216.762 223.261 217.54 222.137 218.293L223.991 220.77ZM219.655 223.531L217.792 221.042C216.431 221.854 215.053 222.632 213.659 223.376L215.2 226.061C216.703 225.256 218.189 224.413 219.655 223.531ZM205.108 227.419C206.442 226.866 207.764 226.282 209.074 225.669L210.621 228.363C209.199 229.034 207.763 229.67 206.314 230.273L205.108 227.419ZM200.336 229.256C199.228 229.65 198.112 230.024 196.991 230.377L197.846 233.359C199.087 232.968 200.32 232.554 201.545 232.116L200.336 229.256ZM186.375 233.081C188.291 232.706 190.195 232.273 192.084 231.785L192.94 234.767C190.931 235.289 188.905 235.749 186.865 236.146L186.375 233.081ZM181.345 233.929C180.11 234.104 178.871 234.256 177.628 234.384L177.993 236.802L172.953 237.585L172.529 234.774C170.225 234.889 167.913 234.923 165.596 234.874L165.686 237.981C171.112 238.087 176.511 237.753 181.836 236.994L181.345 233.929ZM235.585 211.69C234.321 212.836 233.026 213.953 231.701 215.038L229.558 212.804C230.787 211.802 231.99 210.773 233.166 209.718L235.585 211.69ZM236.936 206.155L239.337 208.112C241.301 206.143 243.179 204.098 244.97 201.984L242.331 200.335C240.614 202.342 238.815 204.284 236.936 206.155ZM252.831 191.404C251.381 193.641 249.844 195.822 248.224 197.941L245.604 196.304C247.153 194.29 248.625 192.219 250.017 190.096L252.831 191.404ZM252.752 185.676L255.548 186.976C256.52 185.299 257.445 183.593 258.323 181.861L255.365 180.908C254.537 182.521 253.665 184.111 252.752 185.676ZM263.128 170.853C262.341 172.984 261.485 175.086 260.563 177.155L257.627 176.208C258.504 174.258 259.321 172.279 260.074 170.272L263.128 170.853ZM261.785 165.334L264.816 165.91C265.548 163.575 266.201 161.208 266.77 158.815L263.669 158.616C263.117 160.882 262.488 163.122 261.785 165.334ZM268.816 147.491C268.556 149.576 268.235 151.647 267.853 153.701L264.776 153.503C265.172 151.415 265.504 149.309 265.77 147.187L266.23 147.16L268.816 147.491Z" fill="#41AACB"/>
<path d="M279.817 201.783C313.607 201.783 341 173.985 341 139.696C341 105.406 313.607 77.6087 279.817 77.6087C246.026 77.6087 218.634 105.406 218.634 139.696C218.634 173.985 246.026 201.783 279.817 201.783Z" fill="#ECECEC"/>
<path d="M279.825 170.757C272.701 170.757 266.238 167.655 261.469 162.641C261.466 165.646 261.358 169.983 260.573 173.147C261.088 173.467 261.487 173.991 261.565 174.643C262.583 183.047 270.432 189.383 279.825 189.383C289.215 189.383 297.064 183.046 298.084 174.643C298.163 173.99 298.554 173.467 299.077 173.148C298.292 169.984 298.184 165.646 298.181 162.641C293.412 167.655 286.948 170.757 279.825 170.757Z" fill="white"/>
<path d="M297.782 163.023C293.053 167.803 286.758 170.757 279.825 170.757C272.701 170.757 266.238 167.655 261.469 162.641C261.466 165.646 261.358 169.983 260.573 173.147C261.088 173.467 261.487 173.991 261.565 174.643C262.015 178.358 263.803 181.665 266.466 184.203C278.745 182.449 292.683 170.145 297.782 163.023Z" fill="#D7DBE0"/>
<path d="M298.161 119.018H263.491C257.868 119.018 253.293 123.66 253.293 129.365V141.783C253.293 157.759 265.187 170.757 279.806 170.757C294.425 170.757 306.319 157.759 306.319 141.783V127.296C306.319 122.731 302.66 119.018 298.161 119.018Z" fill="white"/>
<path d="M294.086 96.2529H267.573C263.737 96.2529 260.513 98.9532 259.644 102.578C252.624 103.483 247.179 109.583 247.179 116.949V127.296C247.179 132.63 249.41 137.606 253.297 141.142V129.366C253.297 123.661 257.872 119.018 263.494 119.018H298.165C302.664 119.018 306.322 122.732 306.322 127.296V141.14C310.211 137.604 312.441 132.629 312.441 127.296V114.879C312.441 104.609 304.207 96.2529 294.086 96.2529Z" fill="#008BB7"/>
<path d="M234.343 181.228C245.542 193.845 261.763 201.783 279.814 201.783C297.865 201.783 314.087 193.845 325.286 181.228C323.333 178.549 320.579 176.372 317.038 175.366C316.956 175.342 316.874 175.324 316.791 175.312L300.511 172.834C300.412 172.818 300.198 172.81 300.097 172.81C299.068 172.81 298.199 173.589 298.073 174.627C297.054 183.029 289.205 189.367 279.814 189.367C270.422 189.367 262.572 183.031 261.555 174.627C261.427 173.559 260.479 172.755 259.48 172.811C259.36 172.804 259.243 172.814 259.117 172.833L242.837 175.312C242.754 175.324 242.672 175.342 242.59 175.366C239.05 176.372 236.296 178.549 234.343 181.228Z" fill="#008BB7"/>
<path d="M162.549 62.087C179.445 62.087 193.141 48.1883 193.141 31.0435C193.141 13.8986 179.445 0 162.549 0C145.654 0 131.958 13.8986 131.958 31.0435C131.958 48.1883 145.654 62.087 162.549 62.087Z" fill="#ECECEC"/>
<path d="M202.979 157.197C203.206 157.366 203.338 157.634 203.338 157.914C203.338 158.195 203.206 158.462 202.979 158.632L180.403 175.725C180.073 175.974 179.617 175.976 179.287 175.73C178.956 175.483 178.834 175.052 178.985 174.672L182.747 165.296C165.648 164.663 155.955 158.65 149.175 151.674C151.698 148.839 153.791 145.966 155.702 143.345C156.649 142.042 157.559 140.799 158.471 139.61C163.613 145.565 169.873 149.82 182.694 150.398L178.985 141.156C178.835 140.775 178.957 140.344 179.287 140.097C179.451 139.977 179.646 139.914 179.841 139.914C180.039 139.914 180.238 139.977 180.404 140.101L202.979 157.197ZM111.764 123.641C111.601 123.763 111.958 123.641 111.764 123.641C111.917 124.021 112.095 123.396 111.764 123.641C124.527 124.442 130.804 129.024 135.959 135.009C136.859 133.837 137.756 132.613 138.689 131.329C140.61 128.693 142.717 125.802 145.257 122.947C138.466 115.94 128.766 109.857 111.659 108.977C111.989 109.223 111.811 108.596 111.659 108.977C111.988 108.728 111.328 108.731 111.659 108.977L111.735 108.814C111.659 108.977 111.764 116.64 111.764 116.64C111.764 116.64 111.538 123.472 111.764 123.641ZM153.336 141.676C160.079 132.417 165.522 124.962 182.663 123.886L178.985 133.062C178.834 133.442 178.956 133.873 179.286 134.12C179.451 134.241 179.645 134.304 179.841 134.304C180.037 134.304 180.236 134.241 180.403 134.116L202.979 117.022C203.206 116.852 203.338 116.585 203.338 116.304C203.338 116.023 203.206 115.756 202.979 115.586L180.403 98.4922C180.073 98.2438 179.617 98.2412 179.287 98.4865C178.956 98.7338 178.834 99.1653 178.985 99.545L182.77 108.976C157.617 110.274 148.469 122.813 141.05 132.999C134.328 142.231 128.932 149.623 111.735 150.398C111.216 150.422 112.204 150.639 111.874 150.392C112.07 150.392 111.712 150.272 111.874 150.392C111.678 150.392 111.735 150.398 111.735 150.398C111.508 150.568 111.681 158.351 111.681 158.632C111.681 158.913 111.649 165.119 111.874 165.288L111.68 165.296C111.351 165.542 112.011 165.545 111.68 165.296C111.834 165.676 112.012 165.049 111.68 165.296C136.802 164.367 145.943 151.829 153.336 141.676Z" fill="#008BB7"/>
<path d="M178.056 42.25C178.056 42.79 177.625 44.125 176.112 44.125C175.67 44.125 175.242 43.981 174.896 43.7155L169.731 39.73C167.644 38.1265 165.146 37.0975 162.5 36.754V23.374C165.146 23.0305 167.644 22.0015 169.731 20.398L174.896 16.4095C175.24 16.144 175.67 16 176.112 16C177.63 16 178.056 17.3635 178.056 17.875V42.25Z" fill="#A1E3FF"/>
<path d="M178.056 26.833V33.292C178.646 32.9665 179.138 32.497 179.478 31.93C179.82 31.363 180 30.718 180 30.0625C180 29.407 179.82 28.762 179.478 28.195C179.138 27.628 178.646 27.1585 178.056 26.833ZM145 27.25V32.875C145 33.8695 145.41 34.8235 146.139 35.527C146.868 36.2305 147.857 36.625 148.888 36.625H150.937C150.85 37.246 150.805 37.873 150.804 38.5C150.804 40.753 151.335 42.976 152.358 45.001C152.673 45.6265 153.362 46 154.083 46H158.596C160.179 46 161.13 44.251 160.171 43.0375C159.138 41.734 158.58 40.1395 158.582 38.5C158.583 37.867 158.674 37.2355 158.849 36.625H160.556V23.5H148.888C147.857 23.5 146.868 23.8945 146.139 24.598C145.41 25.3015 145 26.2555 145 27.25Z" fill="#008BB7"/>
<rect y="93" width="88" height="78" rx="10" fill="#ECECEC"/>
<path d="M51.1675 110.238C49.5275 109.28 46.265 106.973 44 107C41.735 106.973 38.4725 109.279 36.83 110.238L33.845 112H54.155L51.1675 110.238ZM67.205 119.734C66.9175 119.555 65.0825 118.464 62.75 117.084V127.126L69 123.513V122.681C69 122.114 68.8375 121.553 68.525 121.043C68.215 120.532 67.7625 120.085 67.205 119.734ZM25.25 117.078C22.9175 118.46 21.0825 119.551 20.795 119.734C20.2375 120.085 19.785 120.532 19.475 121.043C19.1625 121.553 19 122.114 19 122.681V123.513L25.25 127.126V117.078ZM44 139.588C42.3575 139.589 40.755 139.173 39.425 138.402L19 126.599V143.25C19 144.245 19.495 145.198 20.3725 145.902C21.2525 146.605 22.445 147 23.6875 147H64.3125C65.555 147 66.7475 146.605 67.6275 145.902C68.505 145.198 69 144.245 69 143.25V126.599L48.575 138.402C47.245 139.172 45.6425 139.588 44 139.588Z" fill="#008BB7"/>
<path d="M25.2499 127.048L41.2574 136.297C42.0549 136.759 43.0149 137.008 44.0024 137.008C44.9874 137.008 45.9473 136.759 46.7448 136.297L62.7498 127.048V114.422C62.7498 113.759 62.4198 113.123 61.8348 112.654C61.2473 112.185 60.4548 111.922 59.6248 111.922H28.3749C27.5449 111.922 26.7524 112.185 26.1649 112.654C25.5799 113.123 25.2499 113.759 25.2499 114.422V127.048Z" fill="#A1E3FF"/>
<path d="M44.7326 125.241C44.3101 125.241 43.9702 124.962 43.9702 124.617V123.191C43.9702 122.846 44.3101 122.568 44.7326 122.568C45.1551 122.568 45.4951 122.846 45.4951 123.191V124.617C45.4951 124.962 45.1551 125.241 44.7326 125.241ZM50.8351 121.409V126.399C50.8351 126.99 50.2501 127.469 49.5276 127.469H39.9376C39.2152 127.469 38.6301 126.99 38.6301 126.399V121.409C38.6301 120.819 39.2152 120.34 39.9376 120.34H40.8076V119.27C40.8076 117.499 42.5751 116.058 44.7426 116.062C46.9126 116.067 48.6551 117.528 48.6551 119.302V120.34H49.5276C50.2501 120.34 50.8351 120.819 50.8351 121.409ZM42.1177 120.34H47.3476V119.27C47.3476 118.092 46.1751 117.132 44.7326 117.132C43.2901 117.132 42.1177 118.092 42.1177 119.27V120.34ZM49.5276 121.409H39.9376V126.399H49.5276V121.409Z" fill="#008BB7"/>
</svg>
