<svg width="24" height="30" viewBox="0 0 24 30" fill="none" xmlns="http://www.w3.org/2000/svg">
<path d="M23.2868 13.6915C23.7451 13.61 24.0705 13.117 23.9869 12.596C23.5711 10.0036 22.6726 7.55161 21.3464 5.40199C20.0128 3.24022 18.2806 1.43931 16.2668 0.114999C15.8808 -0.138844 15.3871 0.0440192 15.1682 0.501653C14.943 0.972569 15.0946 1.55313 15.49 1.81787C17.2607 3.00339 18.7851 4.60071 19.9638 6.51116C21.1412 8.41972 21.944 10.5931 22.3248 12.8915C22.411 13.4118 22.8284 13.7729 23.2868 13.6915Z" fill="#41AACB"/>
<path d="M20.2459 13.0208C20.6888 12.8571 20.9398 12.3102 20.7808 11.81C19.7916 8.69773 18.0794 5.96148 15.8194 3.88173C15.4702 3.56035 14.9607 3.653 14.6855 4.06772C14.3993 4.49919 14.4763 5.11189 14.837 5.44992C16.8006 7.2898 18.2949 9.68508 19.1749 12.4035C19.3364 12.9025 19.8031 13.1844 20.2459 13.0208Z" fill="#41AACB"/>
<path d="M16.9263 12.693C17.3461 12.4612 17.5266 11.8803 17.3048 11.4104C16.7555 10.2468 16.0965 9.15592 15.3388 8.15623C15.0388 7.76046 14.5151 7.74788 14.1803 8.10739C13.836 8.47722 13.8233 9.09799 14.129 9.50802C14.7609 10.3557 15.3147 11.2746 15.7823 12.2512C16.0065 12.7195 16.5065 12.9248 16.9263 12.693Z" fill="#41AACB"/>
<path fill-rule="evenodd" clip-rule="evenodd" d="M8.07718 9.48372C8.4243 9.21946 8.57983 8.74804 8.49055 8.29597C8.19645 6.80717 8.08506 5.27936 8.16605 3.75455C8.19767 3.15912 7.82449 2.6147 7.28316 2.52068L1.21129 1.46617C0.644508 1.36771 0.115097 1.79956 0.0707608 2.42222C-0.35897 8.455 1.17796 14.5484 4.42654 19.6043C7.67522 24.6602 12.4084 28.3249 17.7655 29.9607C18.3182 30.1295 18.8732 29.7373 18.983 29.1246L20.1604 22.5619C20.2654 21.9768 19.9236 21.4085 19.3986 21.236C18.1726 20.8333 16.9995 20.2664 15.9041 19.5537C15.5466 19.321 15.0965 19.3243 14.7563 19.5834L12.7806 21.0879C12.322 21.4371 11.6887 21.3142 11.3664 20.8134L5.97357 12.4369C5.6511 11.9361 5.76158 11.247 6.2202 10.8977L8.07718 9.48372Z" fill="#A1E3FF"/>
</svg>